G04 EAGLE Gerber RS-274X export*
G75*
%MOMM*%
%FSLAX34Y34*%
%LPD*%
%INBottom Copper*%
%IPPOS*%
%AMOC8*
5,1,8,0,0,1.08239X$1,22.5*%
G01*
%ADD10C,1.574800*%
%ADD11C,0.708000*%
%ADD12C,1.108000*%
%ADD13C,1.524000*%
%ADD14C,1.676400*%
%ADD15R,2.540000X1.270000*%
%ADD16C,0.635000*%
%ADD17C,0.800100*%
%ADD18C,0.254000*%
%ADD19C,0.406400*%

G36*
X487095Y-239383D02*
X487095Y-239383D01*
X487146Y-239381D01*
X487178Y-239363D01*
X487214Y-239355D01*
X487253Y-239322D01*
X487298Y-239298D01*
X487319Y-239268D01*
X487347Y-239245D01*
X487368Y-239198D01*
X487398Y-239156D01*
X487406Y-239114D01*
X487418Y-239086D01*
X487417Y-239056D01*
X487425Y-239014D01*
X487425Y-198755D01*
X487408Y-198681D01*
X487395Y-198606D01*
X487388Y-198596D01*
X487386Y-198586D01*
X487362Y-198557D01*
X487314Y-198486D01*
X484774Y-195946D01*
X484709Y-195906D01*
X484647Y-195862D01*
X484635Y-195860D01*
X484627Y-195855D01*
X484590Y-195851D01*
X484505Y-195835D01*
X451643Y-195835D01*
X450595Y-194788D01*
X450595Y-11430D01*
X450578Y-11356D01*
X450565Y-11281D01*
X450558Y-11271D01*
X450556Y-11261D01*
X450532Y-11232D01*
X450484Y-11161D01*
X438530Y793D01*
X438530Y189230D01*
X438519Y189280D01*
X438517Y189331D01*
X438499Y189363D01*
X438491Y189399D01*
X438458Y189438D01*
X438434Y189483D01*
X438404Y189504D01*
X438381Y189532D01*
X438334Y189553D01*
X438292Y189583D01*
X438250Y189591D01*
X438222Y189603D01*
X438192Y189602D01*
X438150Y189610D01*
X411883Y189610D01*
X411833Y189599D01*
X411782Y189597D01*
X411750Y189579D01*
X411714Y189571D01*
X411675Y189538D01*
X411630Y189514D01*
X411609Y189484D01*
X411581Y189461D01*
X411560Y189414D01*
X411530Y189372D01*
X411522Y189330D01*
X411510Y189302D01*
X411511Y189272D01*
X411503Y189230D01*
X411503Y186548D01*
X411520Y186474D01*
X411533Y186399D01*
X411540Y186389D01*
X411542Y186379D01*
X411566Y186350D01*
X411614Y186279D01*
X413099Y184794D01*
X413979Y182670D01*
X413979Y180370D01*
X413099Y178246D01*
X411474Y176621D01*
X409350Y175741D01*
X407050Y175741D01*
X404926Y176621D01*
X403301Y178246D01*
X402421Y180370D01*
X402421Y182670D01*
X403301Y184794D01*
X404786Y186279D01*
X404826Y186344D01*
X404870Y186406D01*
X404872Y186418D01*
X404877Y186426D01*
X404881Y186463D01*
X404897Y186548D01*
X404897Y192271D01*
X406159Y193533D01*
X406173Y193555D01*
X406193Y193571D01*
X406218Y193628D01*
X406251Y193680D01*
X406253Y193706D01*
X406264Y193730D01*
X406261Y193791D01*
X406267Y193853D01*
X406258Y193877D01*
X406257Y193903D01*
X406228Y193957D01*
X406206Y194015D01*
X406187Y194032D01*
X406174Y194055D01*
X406124Y194090D01*
X406079Y194132D01*
X406054Y194140D01*
X406033Y194155D01*
X405948Y194171D01*
X405912Y194182D01*
X405903Y194180D01*
X405891Y194182D01*
X400633Y194182D01*
X400559Y194165D01*
X400484Y194152D01*
X400474Y194145D01*
X400464Y194143D01*
X400435Y194119D01*
X400364Y194071D01*
X398879Y192586D01*
X396755Y191706D01*
X394455Y191706D01*
X392331Y192586D01*
X390706Y194211D01*
X390051Y195792D01*
X390043Y195803D01*
X390040Y195815D01*
X389993Y195873D01*
X389950Y195933D01*
X389938Y195939D01*
X389930Y195949D01*
X389862Y195979D01*
X389797Y196014D01*
X389784Y196015D01*
X389772Y196020D01*
X389698Y196017D01*
X389624Y196019D01*
X389612Y196014D01*
X389599Y196013D01*
X389534Y195978D01*
X389466Y195947D01*
X389458Y195937D01*
X389447Y195931D01*
X389404Y195870D01*
X389357Y195812D01*
X389354Y195800D01*
X389347Y195789D01*
X389339Y195748D01*
X388439Y193576D01*
X386814Y191951D01*
X384690Y191071D01*
X382390Y191071D01*
X380266Y191951D01*
X378641Y193576D01*
X377761Y195700D01*
X377761Y198000D01*
X378641Y200124D01*
X380266Y201749D01*
X382390Y202629D01*
X384491Y202629D01*
X384565Y202647D01*
X384640Y202660D01*
X384650Y202666D01*
X384660Y202669D01*
X384688Y202692D01*
X384760Y202741D01*
X389919Y207900D01*
X391576Y207900D01*
X391601Y207906D01*
X391627Y207903D01*
X391685Y207925D01*
X391745Y207939D01*
X391765Y207956D01*
X391789Y207965D01*
X391831Y208010D01*
X391879Y208049D01*
X391889Y208073D01*
X391907Y208092D01*
X391924Y208151D01*
X391950Y208208D01*
X391949Y208233D01*
X391956Y208258D01*
X391945Y208319D01*
X391943Y208381D01*
X391931Y208403D01*
X391926Y208429D01*
X391878Y208500D01*
X391860Y208533D01*
X391852Y208539D01*
X391845Y208549D01*
X389327Y211067D01*
X387857Y214615D01*
X387857Y218455D01*
X389327Y222003D01*
X392042Y224718D01*
X393514Y225328D01*
X393524Y225335D01*
X393537Y225338D01*
X393594Y225385D01*
X393654Y225429D01*
X393661Y225440D01*
X393671Y225448D01*
X393701Y225516D01*
X393736Y225582D01*
X393736Y225595D01*
X393741Y225607D01*
X393739Y225681D01*
X393741Y225755D01*
X393735Y225767D01*
X393735Y225780D01*
X393699Y225845D01*
X393668Y225912D01*
X393658Y225921D01*
X393652Y225932D01*
X393592Y225974D01*
X393534Y226021D01*
X393521Y226024D01*
X393510Y226032D01*
X393368Y226059D01*
X376252Y226059D01*
X376239Y226056D01*
X376226Y226058D01*
X376155Y226037D01*
X376083Y226020D01*
X376073Y226012D01*
X376061Y226008D01*
X376007Y225957D01*
X375949Y225910D01*
X375944Y225898D01*
X375935Y225889D01*
X375909Y225819D01*
X375879Y225751D01*
X375879Y225738D01*
X375875Y225726D01*
X375882Y225653D01*
X375885Y225578D01*
X375891Y225567D01*
X375893Y225554D01*
X375932Y225491D01*
X375968Y225426D01*
X375978Y225419D01*
X375985Y225408D01*
X376106Y225328D01*
X377578Y224718D01*
X380293Y222003D01*
X381763Y218455D01*
X381763Y214615D01*
X380293Y211067D01*
X377578Y208352D01*
X374030Y206882D01*
X370190Y206882D01*
X366642Y208352D01*
X363927Y211067D01*
X362457Y214615D01*
X362457Y218455D01*
X363927Y222003D01*
X366642Y224718D01*
X368114Y225328D01*
X368124Y225335D01*
X368137Y225338D01*
X368194Y225385D01*
X368254Y225429D01*
X368261Y225440D01*
X368271Y225448D01*
X368301Y225516D01*
X368336Y225582D01*
X368336Y225595D01*
X368341Y225607D01*
X368339Y225681D01*
X368341Y225755D01*
X368335Y225767D01*
X368335Y225780D01*
X368299Y225845D01*
X368268Y225912D01*
X368258Y225921D01*
X368252Y225932D01*
X368192Y225974D01*
X368134Y226021D01*
X368121Y226024D01*
X368110Y226032D01*
X367968Y226059D01*
X350852Y226059D01*
X350839Y226056D01*
X350826Y226058D01*
X350755Y226037D01*
X350683Y226020D01*
X350673Y226012D01*
X350661Y226008D01*
X350607Y225957D01*
X350549Y225910D01*
X350544Y225898D01*
X350535Y225889D01*
X350509Y225819D01*
X350478Y225751D01*
X350479Y225738D01*
X350474Y225726D01*
X350482Y225653D01*
X350485Y225578D01*
X350491Y225567D01*
X350493Y225554D01*
X350532Y225491D01*
X350568Y225426D01*
X350578Y225419D01*
X350585Y225408D01*
X350706Y225328D01*
X352178Y224718D01*
X354893Y222003D01*
X356363Y218455D01*
X356363Y214615D01*
X354893Y211067D01*
X352178Y208352D01*
X348630Y206882D01*
X344790Y206882D01*
X341242Y208352D01*
X338527Y211067D01*
X337057Y214615D01*
X337057Y218455D01*
X338527Y222003D01*
X341242Y224718D01*
X342714Y225328D01*
X342724Y225335D01*
X342737Y225338D01*
X342794Y225385D01*
X342855Y225429D01*
X342861Y225440D01*
X342871Y225448D01*
X342901Y225516D01*
X342936Y225582D01*
X342936Y225595D01*
X342942Y225607D01*
X342939Y225681D01*
X342941Y225755D01*
X342935Y225767D01*
X342935Y225780D01*
X342900Y225845D01*
X342868Y225912D01*
X342858Y225921D01*
X342852Y225932D01*
X342792Y225974D01*
X342734Y226021D01*
X342721Y226024D01*
X342710Y226032D01*
X342568Y226059D01*
X325452Y226059D01*
X325439Y226056D01*
X325426Y226058D01*
X325355Y226037D01*
X325283Y226020D01*
X325273Y226012D01*
X325261Y226008D01*
X325207Y225957D01*
X325149Y225910D01*
X325144Y225898D01*
X325135Y225889D01*
X325109Y225819D01*
X325078Y225751D01*
X325079Y225738D01*
X325074Y225726D01*
X325082Y225653D01*
X325085Y225578D01*
X325091Y225567D01*
X325093Y225554D01*
X325132Y225491D01*
X325168Y225426D01*
X325178Y225419D01*
X325185Y225408D01*
X325306Y225328D01*
X326778Y224718D01*
X329493Y222003D01*
X330963Y218455D01*
X330963Y214615D01*
X329493Y211067D01*
X326778Y208352D01*
X323230Y206882D01*
X319390Y206882D01*
X315842Y208352D01*
X313127Y211067D01*
X311657Y214615D01*
X311657Y218455D01*
X313127Y222003D01*
X315842Y224718D01*
X317314Y225328D01*
X317324Y225335D01*
X317337Y225338D01*
X317394Y225385D01*
X317455Y225429D01*
X317461Y225440D01*
X317471Y225448D01*
X317501Y225516D01*
X317536Y225582D01*
X317536Y225595D01*
X317542Y225607D01*
X317539Y225681D01*
X317541Y225755D01*
X317535Y225767D01*
X317535Y225780D01*
X317500Y225845D01*
X317468Y225912D01*
X317458Y225921D01*
X317452Y225932D01*
X317392Y225974D01*
X317334Y226021D01*
X317321Y226024D01*
X317310Y226032D01*
X317168Y226059D01*
X300052Y226059D01*
X300039Y226056D01*
X300026Y226058D01*
X299955Y226037D01*
X299883Y226020D01*
X299873Y226012D01*
X299861Y226008D01*
X299807Y225957D01*
X299749Y225910D01*
X299744Y225898D01*
X299735Y225889D01*
X299709Y225819D01*
X299678Y225751D01*
X299679Y225738D01*
X299674Y225726D01*
X299682Y225653D01*
X299685Y225578D01*
X299691Y225567D01*
X299693Y225554D01*
X299732Y225491D01*
X299768Y225426D01*
X299778Y225419D01*
X299785Y225408D01*
X299906Y225328D01*
X301378Y224718D01*
X304093Y222003D01*
X305563Y218455D01*
X305563Y214615D01*
X304093Y211067D01*
X301378Y208352D01*
X297830Y206882D01*
X293990Y206882D01*
X290442Y208352D01*
X287727Y211067D01*
X286257Y214615D01*
X286257Y218455D01*
X287727Y222003D01*
X290442Y224718D01*
X291914Y225328D01*
X291924Y225335D01*
X291937Y225338D01*
X291994Y225385D01*
X292055Y225429D01*
X292061Y225440D01*
X292071Y225448D01*
X292101Y225516D01*
X292136Y225582D01*
X292136Y225595D01*
X292142Y225607D01*
X292139Y225681D01*
X292141Y225755D01*
X292135Y225767D01*
X292135Y225780D01*
X292100Y225845D01*
X292068Y225912D01*
X292058Y225921D01*
X292052Y225932D01*
X291992Y225974D01*
X291934Y226021D01*
X291921Y226024D01*
X291910Y226032D01*
X291768Y226059D01*
X274652Y226059D01*
X274639Y226056D01*
X274626Y226058D01*
X274555Y226037D01*
X274483Y226020D01*
X274473Y226012D01*
X274461Y226008D01*
X274407Y225957D01*
X274349Y225910D01*
X274344Y225898D01*
X274335Y225889D01*
X274309Y225819D01*
X274278Y225751D01*
X274279Y225738D01*
X274274Y225726D01*
X274282Y225653D01*
X274285Y225578D01*
X274291Y225567D01*
X274293Y225554D01*
X274332Y225491D01*
X274368Y225426D01*
X274378Y225419D01*
X274385Y225408D01*
X274506Y225328D01*
X275978Y224718D01*
X278693Y222003D01*
X280163Y218455D01*
X280163Y214615D01*
X278693Y211067D01*
X275978Y208352D01*
X272430Y206882D01*
X268590Y206882D01*
X265042Y208352D01*
X262327Y211067D01*
X260857Y214615D01*
X260857Y218455D01*
X262327Y222003D01*
X265042Y224718D01*
X266514Y225328D01*
X266524Y225335D01*
X266537Y225338D01*
X266594Y225385D01*
X266655Y225429D01*
X266661Y225440D01*
X266671Y225448D01*
X266701Y225516D01*
X266736Y225582D01*
X266736Y225595D01*
X266742Y225607D01*
X266739Y225681D01*
X266741Y225755D01*
X266735Y225767D01*
X266735Y225780D01*
X266700Y225845D01*
X266668Y225912D01*
X266658Y225921D01*
X266652Y225932D01*
X266592Y225974D01*
X266534Y226021D01*
X266521Y226024D01*
X266510Y226032D01*
X266368Y226059D01*
X249252Y226059D01*
X249239Y226056D01*
X249226Y226058D01*
X249155Y226037D01*
X249083Y226020D01*
X249073Y226012D01*
X249061Y226008D01*
X249007Y225957D01*
X248949Y225910D01*
X248944Y225898D01*
X248935Y225889D01*
X248909Y225819D01*
X248878Y225751D01*
X248879Y225738D01*
X248874Y225726D01*
X248882Y225653D01*
X248885Y225578D01*
X248891Y225567D01*
X248893Y225554D01*
X248932Y225491D01*
X248968Y225426D01*
X248978Y225419D01*
X248985Y225408D01*
X249106Y225328D01*
X250578Y224718D01*
X253293Y222003D01*
X254763Y218455D01*
X254763Y214615D01*
X253293Y211067D01*
X250578Y208352D01*
X247030Y206882D01*
X243190Y206882D01*
X239642Y208352D01*
X236927Y211067D01*
X235457Y214615D01*
X235457Y218455D01*
X236927Y222003D01*
X239642Y224718D01*
X241114Y225328D01*
X241124Y225335D01*
X241137Y225338D01*
X241194Y225385D01*
X241255Y225429D01*
X241261Y225440D01*
X241271Y225448D01*
X241301Y225516D01*
X241336Y225582D01*
X241336Y225595D01*
X241342Y225607D01*
X241339Y225681D01*
X241341Y225755D01*
X241335Y225767D01*
X241335Y225780D01*
X241300Y225845D01*
X241268Y225912D01*
X241258Y225921D01*
X241252Y225932D01*
X241192Y225974D01*
X241134Y226021D01*
X241121Y226024D01*
X241110Y226032D01*
X240968Y226059D01*
X223852Y226059D01*
X223839Y226056D01*
X223826Y226058D01*
X223755Y226037D01*
X223683Y226020D01*
X223673Y226012D01*
X223661Y226008D01*
X223607Y225957D01*
X223549Y225910D01*
X223544Y225898D01*
X223535Y225889D01*
X223509Y225819D01*
X223478Y225751D01*
X223479Y225738D01*
X223474Y225726D01*
X223482Y225653D01*
X223485Y225578D01*
X223491Y225567D01*
X223493Y225554D01*
X223532Y225491D01*
X223568Y225426D01*
X223578Y225419D01*
X223585Y225408D01*
X223706Y225328D01*
X225178Y224718D01*
X227893Y222003D01*
X229363Y218455D01*
X229363Y214615D01*
X227893Y211067D01*
X225178Y208352D01*
X221630Y206882D01*
X217790Y206882D01*
X214242Y208352D01*
X211527Y211067D01*
X210057Y214615D01*
X210057Y218455D01*
X211527Y222003D01*
X214242Y224718D01*
X215714Y225328D01*
X215724Y225335D01*
X215737Y225338D01*
X215794Y225385D01*
X215855Y225429D01*
X215861Y225440D01*
X215871Y225448D01*
X215901Y225516D01*
X215936Y225582D01*
X215936Y225595D01*
X215942Y225607D01*
X215939Y225681D01*
X215941Y225755D01*
X215935Y225767D01*
X215935Y225780D01*
X215900Y225845D01*
X215868Y225912D01*
X215858Y225921D01*
X215852Y225932D01*
X215792Y225974D01*
X215734Y226021D01*
X215721Y226024D01*
X215710Y226032D01*
X215568Y226059D01*
X198452Y226059D01*
X198439Y226056D01*
X198426Y226058D01*
X198355Y226037D01*
X198283Y226020D01*
X198273Y226012D01*
X198261Y226008D01*
X198207Y225957D01*
X198149Y225910D01*
X198144Y225898D01*
X198135Y225889D01*
X198109Y225819D01*
X198078Y225751D01*
X198079Y225738D01*
X198074Y225726D01*
X198082Y225653D01*
X198085Y225578D01*
X198091Y225567D01*
X198093Y225554D01*
X198132Y225491D01*
X198168Y225426D01*
X198178Y225419D01*
X198185Y225408D01*
X198306Y225328D01*
X199778Y224718D01*
X202493Y222003D01*
X203963Y218455D01*
X203963Y214615D01*
X202493Y211067D01*
X199778Y208352D01*
X196230Y206882D01*
X192390Y206882D01*
X188842Y208352D01*
X186127Y211067D01*
X184657Y214615D01*
X184657Y218455D01*
X186127Y222003D01*
X188842Y224718D01*
X190314Y225328D01*
X190324Y225335D01*
X190337Y225338D01*
X190394Y225385D01*
X190455Y225429D01*
X190461Y225440D01*
X190471Y225448D01*
X190501Y225516D01*
X190536Y225582D01*
X190536Y225595D01*
X190542Y225607D01*
X190539Y225681D01*
X190541Y225755D01*
X190535Y225767D01*
X190535Y225780D01*
X190500Y225845D01*
X190468Y225912D01*
X190458Y225921D01*
X190452Y225932D01*
X190392Y225974D01*
X190334Y226021D01*
X190321Y226024D01*
X190310Y226032D01*
X190168Y226059D01*
X173052Y226059D01*
X173039Y226056D01*
X173026Y226058D01*
X172955Y226037D01*
X172883Y226020D01*
X172873Y226012D01*
X172861Y226008D01*
X172807Y225957D01*
X172749Y225910D01*
X172744Y225898D01*
X172735Y225889D01*
X172709Y225819D01*
X172678Y225751D01*
X172679Y225738D01*
X172674Y225726D01*
X172682Y225653D01*
X172685Y225578D01*
X172691Y225567D01*
X172693Y225554D01*
X172732Y225491D01*
X172768Y225426D01*
X172778Y225419D01*
X172785Y225408D01*
X172906Y225328D01*
X174378Y224718D01*
X177093Y222003D01*
X178563Y218455D01*
X178563Y214615D01*
X177093Y211067D01*
X174378Y208352D01*
X170830Y206882D01*
X166990Y206882D01*
X163442Y208352D01*
X160727Y211067D01*
X159257Y214615D01*
X159257Y218455D01*
X160727Y222003D01*
X163442Y224718D01*
X164914Y225328D01*
X164924Y225335D01*
X164937Y225338D01*
X164994Y225385D01*
X165055Y225429D01*
X165061Y225440D01*
X165071Y225448D01*
X165101Y225516D01*
X165136Y225582D01*
X165136Y225595D01*
X165142Y225607D01*
X165139Y225681D01*
X165141Y225755D01*
X165135Y225767D01*
X165135Y225780D01*
X165100Y225845D01*
X165068Y225912D01*
X165058Y225921D01*
X165052Y225932D01*
X164992Y225974D01*
X164934Y226021D01*
X164921Y226024D01*
X164910Y226032D01*
X164768Y226059D01*
X147652Y226059D01*
X147639Y226056D01*
X147626Y226058D01*
X147555Y226037D01*
X147483Y226020D01*
X147473Y226012D01*
X147461Y226008D01*
X147407Y225957D01*
X147349Y225910D01*
X147344Y225898D01*
X147335Y225889D01*
X147309Y225819D01*
X147278Y225751D01*
X147279Y225738D01*
X147274Y225726D01*
X147282Y225653D01*
X147285Y225578D01*
X147291Y225567D01*
X147293Y225554D01*
X147332Y225491D01*
X147368Y225426D01*
X147378Y225419D01*
X147385Y225408D01*
X147506Y225328D01*
X148978Y224718D01*
X151693Y222003D01*
X153163Y218455D01*
X153163Y214615D01*
X151991Y211787D01*
X151981Y211724D01*
X151963Y211663D01*
X151967Y211639D01*
X151963Y211616D01*
X151982Y211555D01*
X151993Y211492D01*
X152008Y211470D01*
X152014Y211450D01*
X152040Y211423D01*
X152074Y211372D01*
X156197Y207249D01*
X156261Y207209D01*
X156323Y207165D01*
X156335Y207163D01*
X156344Y207158D01*
X156381Y207154D01*
X156466Y207138D01*
X157578Y207138D01*
X162688Y202028D01*
X162688Y189486D01*
X162701Y189428D01*
X162701Y189427D01*
X162705Y189412D01*
X162718Y189337D01*
X162725Y189327D01*
X162727Y189317D01*
X162751Y189288D01*
X162799Y189217D01*
X163817Y188199D01*
X163881Y188159D01*
X163943Y188115D01*
X163955Y188113D01*
X163964Y188108D01*
X164001Y188104D01*
X164086Y188088D01*
X182932Y188088D01*
X183006Y188105D01*
X183081Y188118D01*
X183091Y188125D01*
X183101Y188127D01*
X183130Y188151D01*
X183201Y188199D01*
X184686Y189684D01*
X186810Y190564D01*
X189110Y190564D01*
X191234Y189684D01*
X192859Y188059D01*
X193215Y187200D01*
X193238Y187168D01*
X193251Y187132D01*
X193288Y187099D01*
X193316Y187059D01*
X193350Y187041D01*
X193378Y187015D01*
X193426Y187001D01*
X193469Y186977D01*
X193508Y186976D01*
X193545Y186965D01*
X193593Y186974D01*
X193642Y186972D01*
X193677Y186989D01*
X193715Y186995D01*
X193766Y187029D01*
X193800Y187045D01*
X193813Y187061D01*
X193835Y187076D01*
X199482Y192723D01*
X236907Y192723D01*
X236981Y192741D01*
X237056Y192754D01*
X237066Y192760D01*
X237076Y192763D01*
X237105Y192786D01*
X237176Y192835D01*
X238661Y194320D01*
X240785Y195200D01*
X242886Y195200D01*
X242960Y195217D01*
X243035Y195230D01*
X243045Y195237D01*
X243055Y195239D01*
X243083Y195263D01*
X243155Y195311D01*
X250536Y202693D01*
X363953Y202693D01*
X401942Y164704D01*
X402006Y164664D01*
X402068Y164620D01*
X402080Y164618D01*
X402089Y164613D01*
X402126Y164609D01*
X402211Y164593D01*
X407087Y164593D01*
X407161Y164610D01*
X407236Y164623D01*
X407246Y164630D01*
X407256Y164632D01*
X407285Y164656D01*
X407356Y164704D01*
X408841Y166189D01*
X410965Y167069D01*
X413265Y167069D01*
X415389Y166189D01*
X417014Y164564D01*
X417894Y162440D01*
X417894Y160140D01*
X417014Y158016D01*
X415389Y156391D01*
X413265Y155511D01*
X410965Y155511D01*
X408841Y156391D01*
X407356Y157876D01*
X407291Y157916D01*
X407229Y157960D01*
X407217Y157962D01*
X407209Y157967D01*
X407172Y157971D01*
X407087Y157987D01*
X399317Y157987D01*
X361328Y195976D01*
X361264Y196016D01*
X361202Y196060D01*
X361190Y196062D01*
X361181Y196067D01*
X361144Y196071D01*
X361059Y196087D01*
X253430Y196087D01*
X253356Y196070D01*
X253281Y196057D01*
X253271Y196050D01*
X253261Y196048D01*
X253233Y196024D01*
X253161Y195976D01*
X247826Y190640D01*
X247786Y190576D01*
X247742Y190514D01*
X247740Y190502D01*
X247734Y190493D01*
X247731Y190456D01*
X247714Y190371D01*
X247714Y188271D01*
X246834Y186147D01*
X245209Y184521D01*
X243085Y183641D01*
X240785Y183641D01*
X238661Y184521D01*
X237176Y186006D01*
X237111Y186046D01*
X237049Y186090D01*
X237037Y186092D01*
X237029Y186098D01*
X236992Y186101D01*
X236907Y186118D01*
X202376Y186118D01*
X202302Y186100D01*
X202227Y186087D01*
X202217Y186081D01*
X202207Y186078D01*
X202179Y186055D01*
X202107Y186006D01*
X198994Y182893D01*
X198954Y182829D01*
X198910Y182767D01*
X198908Y182755D01*
X198903Y182746D01*
X198899Y182709D01*
X198883Y182624D01*
X198883Y137581D01*
X188682Y127380D01*
X183124Y127380D01*
X183050Y127363D01*
X182976Y127350D01*
X182965Y127343D01*
X182956Y127341D01*
X182927Y127317D01*
X182855Y127269D01*
X178357Y122770D01*
X178317Y122705D01*
X178273Y122643D01*
X178271Y122631D01*
X178265Y122623D01*
X178262Y122586D01*
X178245Y122501D01*
X178245Y82994D01*
X178257Y82945D01*
X178259Y82894D01*
X178276Y82862D01*
X178285Y82826D01*
X178317Y82786D01*
X178342Y82742D01*
X178372Y82720D01*
X178395Y82692D01*
X178442Y82671D01*
X178483Y82642D01*
X178518Y82635D01*
X180693Y81734D01*
X181504Y80923D01*
X181515Y80916D01*
X181523Y80906D01*
X181588Y80871D01*
X181651Y80832D01*
X181664Y80830D01*
X181676Y80824D01*
X181750Y80822D01*
X181824Y80815D01*
X181836Y80820D01*
X181849Y80819D01*
X181916Y80850D01*
X181986Y80877D01*
X181994Y80886D01*
X182006Y80892D01*
X182053Y80949D01*
X182103Y81004D01*
X182107Y81016D01*
X182115Y81026D01*
X182131Y81099D01*
X182153Y81170D01*
X182150Y81183D01*
X182153Y81195D01*
X182124Y81337D01*
X181546Y82734D01*
X181546Y85033D01*
X182426Y87157D01*
X184051Y88783D01*
X186175Y89663D01*
X188475Y89663D01*
X190599Y88783D01*
X192224Y87157D01*
X193104Y85033D01*
X193104Y82734D01*
X192224Y80610D01*
X190739Y79125D01*
X190730Y79110D01*
X190725Y79106D01*
X190719Y79092D01*
X190699Y79060D01*
X190655Y78998D01*
X190653Y78986D01*
X190648Y78977D01*
X190644Y78940D01*
X190628Y78856D01*
X190628Y75405D01*
X178357Y63134D01*
X178317Y63069D01*
X178273Y63007D01*
X178271Y62995D01*
X178265Y62986D01*
X178262Y62949D01*
X178245Y62865D01*
X178245Y51539D01*
X176199Y49493D01*
X166725Y40018D01*
X164679Y37972D01*
X160911Y37972D01*
X160837Y37955D01*
X160762Y37942D01*
X160752Y37935D01*
X160742Y37933D01*
X160713Y37909D01*
X160642Y37861D01*
X156449Y33668D01*
X156409Y33604D01*
X156365Y33542D01*
X156363Y33530D01*
X156358Y33521D01*
X156354Y33484D01*
X156338Y33399D01*
X156338Y20903D01*
X156355Y20829D01*
X156368Y20754D01*
X156375Y20744D01*
X156377Y20734D01*
X156401Y20705D01*
X156449Y20634D01*
X157159Y19924D01*
X157224Y19884D01*
X157286Y19840D01*
X157298Y19838D01*
X157306Y19833D01*
X157343Y19829D01*
X157428Y19813D01*
X163293Y19813D01*
X169038Y14068D01*
X169038Y-2094D01*
X169002Y-2145D01*
X169000Y-2157D01*
X168994Y-2166D01*
X168991Y-2203D01*
X168974Y-2288D01*
X168974Y-4388D01*
X168094Y-6512D01*
X166469Y-8138D01*
X164345Y-9018D01*
X162045Y-9018D01*
X159921Y-8138D01*
X158296Y-6512D01*
X157416Y-4388D01*
X157416Y-2089D01*
X158296Y35D01*
X159921Y1661D01*
X162045Y2541D01*
X162052Y2541D01*
X162102Y2552D01*
X162153Y2554D01*
X162185Y2572D01*
X162221Y2580D01*
X162260Y2613D01*
X162305Y2637D01*
X162326Y2667D01*
X162354Y2690D01*
X162375Y2737D01*
X162405Y2779D01*
X162413Y2821D01*
X162425Y2849D01*
X162424Y2879D01*
X162432Y2921D01*
X162432Y11174D01*
X162415Y11248D01*
X162402Y11323D01*
X162395Y11333D01*
X162393Y11343D01*
X162369Y11372D01*
X162321Y11443D01*
X160668Y13096D01*
X160604Y13136D01*
X160542Y13180D01*
X160530Y13182D01*
X160521Y13187D01*
X160484Y13191D01*
X160399Y13207D01*
X158439Y13207D01*
X158378Y13193D01*
X158314Y13186D01*
X158294Y13173D01*
X158271Y13168D01*
X158222Y13127D01*
X158168Y13093D01*
X158153Y13071D01*
X158137Y13058D01*
X158122Y13023D01*
X158088Y12973D01*
X157934Y12601D01*
X156309Y10976D01*
X154185Y10096D01*
X151885Y10096D01*
X149815Y10953D01*
X149777Y10960D01*
X149742Y10975D01*
X149693Y10973D01*
X149644Y10981D01*
X149607Y10970D01*
X149569Y10969D01*
X149525Y10945D01*
X149478Y10931D01*
X149450Y10904D01*
X149417Y10886D01*
X149388Y10846D01*
X149352Y10812D01*
X149339Y10776D01*
X149317Y10744D01*
X149305Y10685D01*
X149292Y10649D01*
X149294Y10629D01*
X149289Y10602D01*
X149289Y8921D01*
X128636Y-11732D01*
X128618Y-11762D01*
X128603Y-11774D01*
X128586Y-11811D01*
X128552Y-11859D01*
X128550Y-11871D01*
X128545Y-11879D01*
X128542Y-11910D01*
X128532Y-11932D01*
X128533Y-11960D01*
X128525Y-12001D01*
X128525Y-16382D01*
X128531Y-16407D01*
X128528Y-16432D01*
X128550Y-16490D01*
X128564Y-16550D01*
X128581Y-16570D01*
X128590Y-16594D01*
X128635Y-16636D01*
X128674Y-16684D01*
X128698Y-16694D01*
X128717Y-16712D01*
X128776Y-16730D01*
X128833Y-16755D01*
X128858Y-16754D01*
X128883Y-16761D01*
X128944Y-16751D01*
X129006Y-16748D01*
X129028Y-16736D01*
X129054Y-16731D01*
X129125Y-16683D01*
X129158Y-16665D01*
X129164Y-16657D01*
X129174Y-16650D01*
X134522Y-11302D01*
X169289Y-11302D01*
X169363Y-11285D01*
X169438Y-11272D01*
X169448Y-11265D01*
X169458Y-11263D01*
X169487Y-11239D01*
X169558Y-11191D01*
X186324Y5575D01*
X186364Y5639D01*
X186408Y5701D01*
X186410Y5713D01*
X186415Y5722D01*
X186419Y5759D01*
X186424Y5785D01*
X186428Y5795D01*
X186428Y5806D01*
X186435Y5844D01*
X186435Y18194D01*
X188481Y20240D01*
X191645Y23404D01*
X191678Y23457D01*
X191718Y23507D01*
X191723Y23530D01*
X191736Y23551D01*
X191742Y23614D01*
X191756Y23676D01*
X191751Y23702D01*
X191753Y23723D01*
X191739Y23758D01*
X191727Y23818D01*
X191706Y23869D01*
X191706Y26169D01*
X192586Y28293D01*
X194211Y29918D01*
X196335Y30798D01*
X198635Y30798D01*
X200759Y29918D01*
X202384Y28293D01*
X203264Y26169D01*
X203264Y23869D01*
X202384Y21745D01*
X201355Y20716D01*
X201328Y20673D01*
X201293Y20635D01*
X201283Y20600D01*
X201264Y20569D01*
X201259Y20518D01*
X201244Y20469D01*
X201250Y20433D01*
X201247Y20396D01*
X201265Y20349D01*
X201274Y20298D01*
X201298Y20263D01*
X201309Y20234D01*
X201331Y20213D01*
X201355Y20178D01*
X203019Y18514D01*
X203899Y16390D01*
X203899Y14574D01*
X203911Y14524D01*
X203913Y14473D01*
X203930Y14441D01*
X203939Y14405D01*
X203971Y14366D01*
X203996Y14321D01*
X204026Y14300D01*
X204049Y14272D01*
X204096Y14251D01*
X204137Y14221D01*
X204179Y14213D01*
X204207Y14201D01*
X204238Y14202D01*
X204279Y14194D01*
X249703Y14194D01*
X249777Y14211D01*
X249852Y14224D01*
X249862Y14231D01*
X249872Y14233D01*
X249901Y14257D01*
X249972Y14305D01*
X251361Y15694D01*
X253485Y16574D01*
X255785Y16574D01*
X257909Y15694D01*
X259534Y14069D01*
X260414Y11945D01*
X260414Y9645D01*
X259534Y7521D01*
X257909Y5896D01*
X255785Y5016D01*
X253485Y5016D01*
X251361Y5896D01*
X249780Y7477D01*
X249715Y7517D01*
X249653Y7561D01*
X249641Y7563D01*
X249633Y7568D01*
X249596Y7572D01*
X249511Y7588D01*
X205265Y7588D01*
X205191Y7571D01*
X205116Y7558D01*
X205106Y7551D01*
X205096Y7549D01*
X205067Y7525D01*
X204996Y7477D01*
X202296Y4777D01*
X202256Y4713D01*
X202212Y4651D01*
X202210Y4638D01*
X202205Y4630D01*
X202201Y4593D01*
X202185Y4508D01*
X202185Y-11209D01*
X200139Y-13255D01*
X193851Y-19543D01*
X193811Y-19608D01*
X193767Y-19670D01*
X193765Y-19682D01*
X193759Y-19691D01*
X193756Y-19728D01*
X193739Y-19812D01*
X193739Y-21724D01*
X192859Y-23848D01*
X191234Y-25473D01*
X189110Y-26353D01*
X186810Y-26353D01*
X184686Y-25473D01*
X183061Y-23848D01*
X182181Y-21724D01*
X182181Y-19424D01*
X183061Y-17300D01*
X184408Y-15953D01*
X184434Y-15910D01*
X184469Y-15873D01*
X184480Y-15837D01*
X184499Y-15806D01*
X184504Y-15755D01*
X184518Y-15706D01*
X184512Y-15670D01*
X184516Y-15634D01*
X184497Y-15586D01*
X184489Y-15536D01*
X184465Y-15500D01*
X184454Y-15472D01*
X184431Y-15451D01*
X184408Y-15416D01*
X183061Y-14069D01*
X182181Y-11945D01*
X182181Y-9645D01*
X182676Y-8449D01*
X182679Y-8436D01*
X182685Y-8425D01*
X182692Y-8351D01*
X182704Y-8278D01*
X182701Y-8266D01*
X182702Y-8253D01*
X182676Y-8183D01*
X182654Y-8112D01*
X182645Y-8103D01*
X182640Y-8091D01*
X182586Y-8040D01*
X182535Y-7986D01*
X182523Y-7982D01*
X182513Y-7973D01*
X182442Y-7952D01*
X182372Y-7926D01*
X182360Y-7928D01*
X182347Y-7924D01*
X182274Y-7937D01*
X182200Y-7944D01*
X182189Y-7951D01*
X182176Y-7954D01*
X182056Y-8035D01*
X172183Y-17908D01*
X137416Y-17908D01*
X137342Y-17925D01*
X137267Y-17938D01*
X137257Y-17945D01*
X137247Y-17947D01*
X137218Y-17971D01*
X137147Y-18019D01*
X135939Y-19227D01*
X135899Y-19292D01*
X135855Y-19354D01*
X135853Y-19366D01*
X135847Y-19374D01*
X135844Y-19411D01*
X135827Y-19496D01*
X135827Y-43175D01*
X135845Y-43249D01*
X135858Y-43323D01*
X135864Y-43334D01*
X135867Y-43343D01*
X135890Y-43372D01*
X135931Y-43432D01*
X135934Y-43438D01*
X135936Y-43439D01*
X135939Y-43444D01*
X137424Y-44929D01*
X138304Y-47053D01*
X138304Y-49352D01*
X137424Y-51476D01*
X135798Y-53102D01*
X133674Y-53982D01*
X131375Y-53982D01*
X129251Y-53102D01*
X129174Y-53025D01*
X129152Y-53011D01*
X129136Y-52991D01*
X129079Y-52966D01*
X129027Y-52934D01*
X129001Y-52931D01*
X128977Y-52921D01*
X128916Y-52923D01*
X128854Y-52917D01*
X128830Y-52926D01*
X128804Y-52927D01*
X128750Y-52957D01*
X128692Y-52979D01*
X128675Y-52998D01*
X128652Y-53010D01*
X128617Y-53060D01*
X128575Y-53106D01*
X128567Y-53131D01*
X128552Y-53152D01*
X128536Y-53236D01*
X128525Y-53272D01*
X128527Y-53282D01*
X128525Y-53294D01*
X128525Y-62219D01*
X128531Y-62244D01*
X128528Y-62270D01*
X128538Y-62296D01*
X128538Y-62298D01*
X128541Y-62304D01*
X128550Y-62327D01*
X128564Y-62387D01*
X128581Y-62407D01*
X128590Y-62431D01*
X128635Y-62473D01*
X128674Y-62521D01*
X128698Y-62532D01*
X128717Y-62549D01*
X128776Y-62567D01*
X128833Y-62592D01*
X128858Y-62591D01*
X128883Y-62598D01*
X128944Y-62588D01*
X129006Y-62585D01*
X129028Y-62573D01*
X129054Y-62569D01*
X129125Y-62520D01*
X129158Y-62503D01*
X129164Y-62494D01*
X129174Y-62488D01*
X129441Y-62220D01*
X131565Y-61340D01*
X133865Y-61340D01*
X135989Y-62220D01*
X137474Y-63705D01*
X137539Y-63745D01*
X137601Y-63789D01*
X137613Y-63791D01*
X137621Y-63797D01*
X137658Y-63800D01*
X137743Y-63817D01*
X178216Y-63817D01*
X179563Y-65164D01*
X179585Y-65178D01*
X179601Y-65198D01*
X179658Y-65223D01*
X179710Y-65256D01*
X179736Y-65258D01*
X179760Y-65269D01*
X179821Y-65266D01*
X179883Y-65272D01*
X179907Y-65263D01*
X179933Y-65262D01*
X179987Y-65233D01*
X180045Y-65211D01*
X180062Y-65192D01*
X180085Y-65179D01*
X180120Y-65129D01*
X180162Y-65084D01*
X180170Y-65059D01*
X180185Y-65038D01*
X180201Y-64953D01*
X180212Y-64917D01*
X180210Y-64908D01*
X180212Y-64896D01*
X180212Y-64037D01*
X188356Y-55893D01*
X188396Y-55829D01*
X188440Y-55767D01*
X188442Y-55755D01*
X188447Y-55746D01*
X188451Y-55709D01*
X188467Y-55624D01*
X188467Y-53884D01*
X188450Y-53810D01*
X188437Y-53736D01*
X188430Y-53725D01*
X188428Y-53716D01*
X188404Y-53687D01*
X188356Y-53615D01*
X186871Y-52130D01*
X185991Y-50006D01*
X185991Y-47707D01*
X186871Y-45583D01*
X188496Y-43957D01*
X190620Y-43077D01*
X192920Y-43077D01*
X195044Y-43957D01*
X196669Y-45583D01*
X197549Y-47707D01*
X197549Y-50006D01*
X196669Y-52130D01*
X195184Y-53615D01*
X195144Y-53680D01*
X195100Y-53742D01*
X195098Y-53754D01*
X195093Y-53763D01*
X195089Y-53800D01*
X195073Y-53884D01*
X195073Y-58518D01*
X186929Y-66662D01*
X186889Y-66726D01*
X186845Y-66788D01*
X186843Y-66800D01*
X186838Y-66809D01*
X186834Y-66846D01*
X186818Y-66931D01*
X186818Y-125147D01*
X186835Y-125221D01*
X186848Y-125296D01*
X186855Y-125306D01*
X186857Y-125316D01*
X186881Y-125345D01*
X186929Y-125416D01*
X188414Y-126901D01*
X189294Y-129025D01*
X189294Y-131325D01*
X188414Y-133449D01*
X186789Y-135074D01*
X184665Y-135954D01*
X182365Y-135954D01*
X180241Y-135074D01*
X178616Y-133449D01*
X178542Y-133270D01*
X178519Y-133239D01*
X178505Y-133203D01*
X178469Y-133169D01*
X178441Y-133129D01*
X178407Y-133111D01*
X178378Y-133085D01*
X178331Y-133071D01*
X178288Y-133048D01*
X178249Y-133047D01*
X178212Y-133036D01*
X178164Y-133044D01*
X178114Y-133043D01*
X178079Y-133059D01*
X178042Y-133066D01*
X177991Y-133100D01*
X177957Y-133115D01*
X177944Y-133132D01*
X177921Y-133147D01*
X176629Y-134439D01*
X174505Y-135319D01*
X172205Y-135319D01*
X170081Y-134439D01*
X168456Y-132814D01*
X167576Y-130690D01*
X167576Y-128390D01*
X168456Y-126266D01*
X170081Y-124641D01*
X172205Y-123761D01*
X174306Y-123761D01*
X174380Y-123743D01*
X174455Y-123730D01*
X174465Y-123724D01*
X174475Y-123721D01*
X174503Y-123698D01*
X174575Y-123649D01*
X175529Y-122695D01*
X175569Y-122631D01*
X175613Y-122569D01*
X175615Y-122557D01*
X175620Y-122548D01*
X175624Y-122511D01*
X175640Y-122426D01*
X175640Y-70802D01*
X175629Y-70753D01*
X175627Y-70702D01*
X175609Y-70670D01*
X175601Y-70634D01*
X175568Y-70594D01*
X175544Y-70550D01*
X175514Y-70528D01*
X175491Y-70500D01*
X175444Y-70479D01*
X175402Y-70450D01*
X175360Y-70442D01*
X175332Y-70429D01*
X175302Y-70430D01*
X175260Y-70422D01*
X137743Y-70422D01*
X137669Y-70440D01*
X137594Y-70453D01*
X137584Y-70459D01*
X137574Y-70462D01*
X137545Y-70485D01*
X137474Y-70534D01*
X135989Y-72019D01*
X133865Y-72899D01*
X131565Y-72899D01*
X129441Y-72019D01*
X129174Y-71751D01*
X129152Y-71738D01*
X129136Y-71718D01*
X129079Y-71693D01*
X129027Y-71660D01*
X129001Y-71658D01*
X128977Y-71647D01*
X128916Y-71649D01*
X128854Y-71643D01*
X128830Y-71653D01*
X128804Y-71654D01*
X128750Y-71683D01*
X128692Y-71705D01*
X128675Y-71724D01*
X128652Y-71736D01*
X128617Y-71787D01*
X128575Y-71832D01*
X128567Y-71857D01*
X128552Y-71878D01*
X128536Y-71963D01*
X128525Y-71998D01*
X128527Y-72008D01*
X128525Y-72020D01*
X128525Y-85789D01*
X128537Y-85842D01*
X128538Y-85874D01*
X128547Y-85889D01*
X128555Y-85938D01*
X128562Y-85948D01*
X128564Y-85958D01*
X128588Y-85986D01*
X128636Y-86058D01*
X140590Y-98011D01*
X140590Y-105589D01*
X140607Y-105663D01*
X140620Y-105738D01*
X140627Y-105748D01*
X140629Y-105758D01*
X140653Y-105787D01*
X140701Y-105858D01*
X141424Y-106581D01*
X142304Y-108705D01*
X142304Y-111005D01*
X141424Y-113129D01*
X139799Y-114754D01*
X137675Y-115634D01*
X135375Y-115634D01*
X133251Y-114754D01*
X131626Y-113129D01*
X130746Y-111005D01*
X130746Y-108705D01*
X131626Y-106581D01*
X132349Y-105858D01*
X132389Y-105793D01*
X132433Y-105731D01*
X132435Y-105719D01*
X132440Y-105711D01*
X132444Y-105674D01*
X132460Y-105589D01*
X132460Y-101536D01*
X132443Y-101462D01*
X132430Y-101387D01*
X132423Y-101377D01*
X132421Y-101367D01*
X132397Y-101339D01*
X132349Y-101267D01*
X120395Y-89314D01*
X120395Y-38671D01*
X120378Y-38597D01*
X120365Y-38522D01*
X120358Y-38512D01*
X120356Y-38502D01*
X120332Y-38474D01*
X120284Y-38402D01*
X117173Y-35291D01*
X117108Y-35251D01*
X117046Y-35207D01*
X117034Y-35205D01*
X117025Y-35200D01*
X116988Y-35196D01*
X116904Y-35180D01*
X91896Y-35180D01*
X91822Y-35197D01*
X91747Y-35210D01*
X91737Y-35217D01*
X91727Y-35219D01*
X91698Y-35243D01*
X91627Y-35291D01*
X90904Y-36014D01*
X88780Y-36894D01*
X86480Y-36894D01*
X84356Y-36014D01*
X82731Y-34389D01*
X81851Y-32265D01*
X81851Y-29965D01*
X82731Y-27841D01*
X84356Y-26216D01*
X86480Y-25336D01*
X88780Y-25336D01*
X90904Y-26216D01*
X91627Y-26939D01*
X91692Y-26979D01*
X91754Y-27023D01*
X91766Y-27025D01*
X91774Y-27030D01*
X91811Y-27034D01*
X91896Y-27050D01*
X120015Y-27050D01*
X120065Y-27039D01*
X120116Y-27037D01*
X120148Y-27019D01*
X120184Y-27011D01*
X120223Y-26978D01*
X120268Y-26954D01*
X120289Y-26924D01*
X120317Y-26901D01*
X120338Y-26854D01*
X120368Y-26812D01*
X120376Y-26770D01*
X120388Y-26742D01*
X120387Y-26712D01*
X120395Y-26670D01*
X120395Y-8476D01*
X141048Y12177D01*
X141089Y12241D01*
X141132Y12303D01*
X141134Y12315D01*
X141140Y12324D01*
X141143Y12361D01*
X141160Y12446D01*
X141160Y20794D01*
X143525Y23159D01*
X143565Y23224D01*
X143609Y23286D01*
X143611Y23298D01*
X143616Y23306D01*
X143620Y23343D01*
X143636Y23428D01*
X143636Y56675D01*
X146129Y59167D01*
X157368Y70407D01*
X157382Y70429D01*
X157402Y70445D01*
X157427Y70501D01*
X157460Y70554D01*
X157462Y70579D01*
X157473Y70603D01*
X157470Y70665D01*
X157476Y70726D01*
X157467Y70750D01*
X157466Y70776D01*
X157437Y70831D01*
X157415Y70888D01*
X157396Y70906D01*
X157383Y70928D01*
X157333Y70964D01*
X157287Y71006D01*
X157263Y71013D01*
X157242Y71028D01*
X157157Y71045D01*
X157121Y71055D01*
X157111Y71053D01*
X157099Y71056D01*
X157029Y71056D01*
X154905Y71936D01*
X153420Y73421D01*
X153355Y73461D01*
X153293Y73505D01*
X153281Y73507D01*
X153272Y73512D01*
X153235Y73516D01*
X153151Y73532D01*
X149109Y73532D01*
X149035Y73515D01*
X148961Y73502D01*
X148950Y73495D01*
X148941Y73493D01*
X148912Y73469D01*
X148840Y73421D01*
X147355Y71936D01*
X145231Y71056D01*
X142932Y71056D01*
X140808Y71936D01*
X139182Y73561D01*
X138302Y75685D01*
X138302Y77985D01*
X139182Y80109D01*
X140808Y81734D01*
X141009Y81818D01*
X141020Y81825D01*
X141032Y81828D01*
X141089Y81875D01*
X141150Y81919D01*
X141156Y81930D01*
X141166Y81938D01*
X141196Y82006D01*
X141231Y82072D01*
X141231Y82085D01*
X141237Y82097D01*
X141234Y82171D01*
X141236Y82245D01*
X141231Y82257D01*
X141230Y82270D01*
X141195Y82335D01*
X141164Y82402D01*
X141154Y82411D01*
X141147Y82422D01*
X141087Y82465D01*
X141029Y82511D01*
X141016Y82514D01*
X141006Y82522D01*
X140863Y82549D01*
X64960Y82549D01*
X64886Y82532D01*
X64811Y82519D01*
X64801Y82512D01*
X64791Y82510D01*
X64763Y82486D01*
X64691Y82438D01*
X56881Y74628D01*
X56841Y74563D01*
X56797Y74501D01*
X56795Y74489D01*
X56790Y74480D01*
X56786Y74443D01*
X56770Y74359D01*
X56770Y55734D01*
X56784Y55672D01*
X56791Y55609D01*
X56804Y55588D01*
X56809Y55565D01*
X56850Y55516D01*
X56884Y55462D01*
X56906Y55447D01*
X56919Y55431D01*
X56954Y55416D01*
X57004Y55382D01*
X58029Y54958D01*
X60673Y52314D01*
X62104Y48860D01*
X62104Y29880D01*
X60673Y26426D01*
X58029Y23782D01*
X56651Y23211D01*
X56640Y23204D01*
X56628Y23201D01*
X56570Y23154D01*
X56510Y23110D01*
X56504Y23099D01*
X56494Y23091D01*
X56464Y23023D01*
X56429Y22957D01*
X56428Y22944D01*
X56423Y22932D01*
X56426Y22858D01*
X56424Y22784D01*
X56429Y22772D01*
X56430Y22759D01*
X56465Y22694D01*
X56496Y22627D01*
X56506Y22618D01*
X56512Y22607D01*
X56573Y22565D01*
X56631Y22518D01*
X56643Y22515D01*
X56654Y22507D01*
X56796Y22480D01*
X67374Y22480D01*
X67448Y22497D01*
X67523Y22510D01*
X67533Y22517D01*
X67543Y22519D01*
X67571Y22543D01*
X67643Y22591D01*
X70539Y25487D01*
X70565Y25530D01*
X70600Y25568D01*
X70611Y25603D01*
X70630Y25634D01*
X70635Y25685D01*
X70649Y25734D01*
X70643Y25770D01*
X70646Y25807D01*
X70628Y25854D01*
X70620Y25905D01*
X70596Y25940D01*
X70585Y25968D01*
X70562Y25989D01*
X70539Y26025D01*
X70137Y26426D01*
X68706Y29880D01*
X68706Y48860D01*
X70137Y52314D01*
X72781Y54958D01*
X76235Y56389D01*
X79975Y56389D01*
X83429Y54958D01*
X86073Y52314D01*
X87504Y48860D01*
X87504Y29880D01*
X86073Y26426D01*
X83429Y23782D01*
X79975Y22351D01*
X79057Y22351D01*
X78983Y22334D01*
X78908Y22321D01*
X78898Y22314D01*
X78888Y22312D01*
X78860Y22288D01*
X78788Y22240D01*
X70899Y14350D01*
X44036Y14350D01*
X35305Y23081D01*
X35305Y57564D01*
X37798Y60056D01*
X42433Y64691D01*
X42473Y64756D01*
X42517Y64818D01*
X42519Y64830D01*
X42524Y64838D01*
X42528Y64875D01*
X42544Y64960D01*
X42544Y80409D01*
X58910Y96775D01*
X86232Y96775D01*
X86257Y96781D01*
X86282Y96778D01*
X86340Y96800D01*
X86400Y96814D01*
X86420Y96831D01*
X86444Y96840D01*
X86486Y96885D01*
X86534Y96924D01*
X86544Y96948D01*
X86562Y96967D01*
X86580Y97026D01*
X86605Y97083D01*
X86604Y97108D01*
X86611Y97133D01*
X86601Y97194D01*
X86598Y97256D01*
X86586Y97278D01*
X86581Y97304D01*
X86533Y97375D01*
X86515Y97408D01*
X86507Y97414D01*
X86500Y97424D01*
X80073Y103851D01*
X80073Y158316D01*
X80055Y158390D01*
X80042Y158464D01*
X80036Y158475D01*
X80033Y158484D01*
X80010Y158513D01*
X79961Y158584D01*
X78476Y160070D01*
X77596Y162194D01*
X77596Y164493D01*
X78476Y166617D01*
X78761Y166902D01*
X78782Y166935D01*
X78810Y166961D01*
X78827Y167008D01*
X78853Y167050D01*
X78856Y167088D01*
X78870Y167124D01*
X78865Y167173D01*
X78869Y167222D01*
X78856Y167258D01*
X78852Y167296D01*
X78825Y167338D01*
X78808Y167384D01*
X78779Y167410D01*
X78759Y167443D01*
X78708Y167476D01*
X78681Y167502D01*
X78660Y167508D01*
X78638Y167523D01*
X76947Y168223D01*
X75321Y169849D01*
X74441Y171973D01*
X74441Y174272D01*
X75321Y176396D01*
X76947Y178022D01*
X79071Y178902D01*
X81171Y178902D01*
X81245Y178919D01*
X81320Y178932D01*
X81330Y178939D01*
X81340Y178941D01*
X81369Y178965D01*
X81440Y179013D01*
X91150Y188723D01*
X109771Y188723D01*
X109845Y188740D01*
X109919Y188753D01*
X109930Y188760D01*
X109939Y188762D01*
X109968Y188786D01*
X110040Y188834D01*
X111525Y190319D01*
X112952Y190911D01*
X112963Y190918D01*
X112976Y190921D01*
X113033Y190968D01*
X113093Y191012D01*
X113099Y191023D01*
X113109Y191031D01*
X113140Y191099D01*
X113174Y191165D01*
X113175Y191178D01*
X113180Y191190D01*
X113177Y191264D01*
X113179Y191338D01*
X113174Y191350D01*
X113174Y191363D01*
X113138Y191428D01*
X113107Y191495D01*
X113097Y191504D01*
X113091Y191515D01*
X113030Y191557D01*
X112972Y191604D01*
X112960Y191607D01*
X112949Y191615D01*
X112807Y191642D01*
X80075Y191642D01*
X80001Y191625D01*
X79926Y191612D01*
X79916Y191605D01*
X79906Y191603D01*
X79878Y191579D01*
X79806Y191531D01*
X66025Y177750D01*
X65985Y177685D01*
X65941Y177623D01*
X65939Y177611D01*
X65934Y177603D01*
X65930Y177566D01*
X65914Y177481D01*
X65914Y175380D01*
X65034Y173256D01*
X63408Y171631D01*
X61284Y170751D01*
X58985Y170751D01*
X56861Y171631D01*
X55235Y173256D01*
X54355Y175380D01*
X54355Y177680D01*
X55235Y179804D01*
X56861Y181429D01*
X58985Y182309D01*
X61085Y182309D01*
X61159Y182327D01*
X61234Y182340D01*
X61244Y182346D01*
X61254Y182349D01*
X61283Y182372D01*
X61354Y182421D01*
X77181Y198248D01*
X118208Y198248D01*
X123875Y192581D01*
X123940Y192541D01*
X124002Y192497D01*
X124014Y192495D01*
X124022Y192489D01*
X124059Y192486D01*
X124144Y192469D01*
X125727Y192469D01*
X127851Y191589D01*
X129398Y190042D01*
X129420Y190029D01*
X129436Y190009D01*
X129493Y189984D01*
X129545Y189951D01*
X129571Y189949D01*
X129595Y189938D01*
X129656Y189940D01*
X129718Y189934D01*
X129742Y189944D01*
X129768Y189945D01*
X129822Y189974D01*
X129880Y189996D01*
X129897Y190015D01*
X129920Y190027D01*
X129955Y190078D01*
X129997Y190123D01*
X130005Y190148D01*
X130020Y190169D01*
X130036Y190254D01*
X130047Y190289D01*
X130045Y190299D01*
X130047Y190311D01*
X130047Y196594D01*
X130030Y196668D01*
X130017Y196743D01*
X130010Y196753D01*
X130008Y196763D01*
X129984Y196792D01*
X129936Y196863D01*
X120028Y206771D01*
X119964Y206811D01*
X119902Y206855D01*
X119890Y206857D01*
X119881Y206862D01*
X119844Y206866D01*
X119759Y206882D01*
X116190Y206882D01*
X112642Y208352D01*
X109927Y211067D01*
X108457Y214615D01*
X108457Y218455D01*
X109927Y222003D01*
X112642Y224718D01*
X114114Y225328D01*
X114124Y225335D01*
X114137Y225338D01*
X114194Y225385D01*
X114255Y225429D01*
X114261Y225440D01*
X114271Y225448D01*
X114301Y225516D01*
X114336Y225582D01*
X114336Y225595D01*
X114342Y225607D01*
X114339Y225681D01*
X114341Y225755D01*
X114335Y225767D01*
X114335Y225780D01*
X114300Y225845D01*
X114268Y225912D01*
X114258Y225921D01*
X114252Y225932D01*
X114192Y225974D01*
X114134Y226021D01*
X114121Y226024D01*
X114110Y226032D01*
X113968Y226059D01*
X98490Y226059D01*
X98436Y226047D01*
X98381Y226043D01*
X98353Y226027D01*
X98321Y226020D01*
X98278Y225985D01*
X98230Y225957D01*
X98212Y225930D01*
X98187Y225910D01*
X98165Y225859D01*
X98134Y225813D01*
X98130Y225781D01*
X98117Y225751D01*
X98119Y225696D01*
X98111Y225641D01*
X98122Y225611D01*
X98123Y225578D01*
X98150Y225530D01*
X98167Y225477D01*
X98193Y225450D01*
X98206Y225426D01*
X98233Y225407D01*
X98266Y225371D01*
X99495Y224479D01*
X100654Y223320D01*
X101617Y221994D01*
X102362Y220533D01*
X102868Y218974D01*
X103125Y217355D01*
X103125Y217296D01*
X93091Y217296D01*
X93041Y217285D01*
X92990Y217283D01*
X92958Y217265D01*
X92922Y217257D01*
X92883Y217224D01*
X92838Y217200D01*
X92817Y217170D01*
X92789Y217147D01*
X92768Y217100D01*
X92739Y217058D01*
X92730Y217016D01*
X92718Y216988D01*
X92718Y216979D01*
X92718Y216978D01*
X92719Y216956D01*
X92711Y216916D01*
X92711Y216534D01*
X92709Y216534D01*
X92709Y216916D01*
X92697Y216966D01*
X92696Y217017D01*
X92678Y217049D01*
X92670Y217085D01*
X92637Y217124D01*
X92613Y217169D01*
X92583Y217190D01*
X92559Y217218D01*
X92513Y217239D01*
X92471Y217269D01*
X92429Y217277D01*
X92401Y217289D01*
X92371Y217288D01*
X92329Y217296D01*
X82295Y217296D01*
X82295Y217355D01*
X82552Y218974D01*
X83058Y220533D01*
X83803Y221994D01*
X84766Y223320D01*
X85925Y224479D01*
X87154Y225371D01*
X87190Y225413D01*
X87233Y225448D01*
X87246Y225478D01*
X87267Y225502D01*
X87281Y225556D01*
X87303Y225607D01*
X87302Y225639D01*
X87310Y225670D01*
X87299Y225724D01*
X87297Y225780D01*
X87281Y225808D01*
X87275Y225840D01*
X87241Y225883D01*
X87214Y225932D01*
X87188Y225951D01*
X87168Y225976D01*
X87118Y226000D01*
X87072Y226032D01*
X87036Y226039D01*
X87011Y226051D01*
X86978Y226050D01*
X86930Y226059D01*
X51435Y226059D01*
X51422Y226056D01*
X51405Y226058D01*
X47889Y225781D01*
X47855Y225771D01*
X47801Y225764D01*
X41112Y223591D01*
X41079Y223571D01*
X41006Y223537D01*
X35316Y219403D01*
X35291Y219374D01*
X35232Y219319D01*
X31098Y213629D01*
X31083Y213593D01*
X31044Y213523D01*
X28871Y206834D01*
X28868Y206798D01*
X28854Y206746D01*
X28577Y203230D01*
X28579Y203217D01*
X28576Y203200D01*
X28576Y-216535D01*
X28579Y-216548D01*
X28577Y-216565D01*
X28854Y-220081D01*
X28864Y-220115D01*
X28871Y-220169D01*
X31044Y-226858D01*
X31064Y-226891D01*
X31098Y-226964D01*
X35232Y-232654D01*
X35261Y-232679D01*
X35316Y-232738D01*
X41006Y-236872D01*
X41042Y-236887D01*
X41112Y-236926D01*
X47801Y-239099D01*
X47837Y-239102D01*
X47889Y-239116D01*
X51405Y-239393D01*
X51418Y-239391D01*
X51435Y-239394D01*
X487045Y-239394D01*
X487095Y-239383D01*
G37*
%LPC*%
G36*
X142225Y-237618D02*
X142225Y-237618D01*
X138677Y-236148D01*
X135962Y-233433D01*
X134492Y-229885D01*
X134492Y-226045D01*
X135962Y-222497D01*
X138677Y-219782D01*
X140608Y-218982D01*
X140659Y-218945D01*
X140715Y-218915D01*
X140729Y-218895D01*
X140748Y-218881D01*
X140778Y-218825D01*
X140815Y-218773D01*
X140820Y-218747D01*
X140830Y-218728D01*
X140831Y-218690D01*
X140842Y-218631D01*
X140842Y-216437D01*
X144682Y-212597D01*
X163459Y-212597D01*
X163533Y-212580D01*
X163607Y-212567D01*
X163618Y-212560D01*
X163627Y-212558D01*
X163656Y-212534D01*
X163728Y-212486D01*
X170728Y-205485D01*
X209619Y-205485D01*
X209693Y-205468D01*
X209768Y-205455D01*
X209778Y-205448D01*
X209787Y-205446D01*
X209816Y-205422D01*
X209888Y-205374D01*
X210665Y-204596D01*
X217930Y-204596D01*
X218004Y-204579D01*
X218079Y-204566D01*
X218089Y-204559D01*
X218099Y-204557D01*
X218128Y-204533D01*
X218199Y-204485D01*
X234298Y-188386D01*
X234332Y-188332D01*
X234372Y-188283D01*
X234377Y-188259D01*
X234390Y-188239D01*
X234396Y-188176D01*
X234410Y-188114D01*
X234404Y-188087D01*
X234406Y-188066D01*
X234393Y-188031D01*
X234381Y-187972D01*
X233616Y-186125D01*
X233616Y-183826D01*
X234496Y-181702D01*
X235981Y-180217D01*
X236021Y-180152D01*
X236065Y-180090D01*
X236067Y-180078D01*
X236072Y-180069D01*
X236076Y-180032D01*
X236092Y-179948D01*
X236092Y-153364D01*
X236086Y-153339D01*
X236089Y-153313D01*
X236067Y-153255D01*
X236053Y-153195D01*
X236036Y-153175D01*
X236027Y-153151D01*
X235982Y-153109D01*
X235943Y-153061D01*
X235919Y-153051D01*
X235900Y-153033D01*
X235841Y-153016D01*
X235784Y-152991D01*
X235759Y-152991D01*
X235734Y-152984D01*
X235673Y-152995D01*
X235611Y-152997D01*
X235589Y-153009D01*
X235563Y-153014D01*
X235492Y-153062D01*
X235459Y-153080D01*
X235453Y-153088D01*
X235443Y-153095D01*
X233779Y-154759D01*
X231655Y-155639D01*
X229355Y-155639D01*
X227231Y-154759D01*
X225746Y-153274D01*
X225681Y-153234D01*
X225619Y-153190D01*
X225607Y-153188D01*
X225599Y-153183D01*
X225562Y-153179D01*
X225477Y-153163D01*
X223774Y-153163D01*
X223724Y-153174D01*
X223673Y-153176D01*
X223641Y-153194D01*
X223605Y-153202D01*
X223566Y-153235D01*
X223521Y-153259D01*
X223500Y-153289D01*
X223472Y-153312D01*
X223451Y-153359D01*
X223421Y-153401D01*
X223413Y-153443D01*
X223401Y-153471D01*
X223402Y-153501D01*
X223394Y-153543D01*
X223394Y-155087D01*
X220492Y-157989D01*
X197338Y-157989D01*
X194436Y-155087D01*
X194436Y-144633D01*
X197338Y-141731D01*
X220492Y-141731D01*
X223394Y-144633D01*
X223394Y-146177D01*
X223405Y-146227D01*
X223407Y-146278D01*
X223425Y-146310D01*
X223433Y-146346D01*
X223466Y-146385D01*
X223490Y-146430D01*
X223520Y-146451D01*
X223543Y-146479D01*
X223590Y-146500D01*
X223632Y-146530D01*
X223674Y-146538D01*
X223702Y-146550D01*
X223732Y-146549D01*
X223774Y-146557D01*
X225477Y-146557D01*
X225551Y-146540D01*
X225626Y-146527D01*
X225636Y-146520D01*
X225646Y-146518D01*
X225675Y-146494D01*
X225746Y-146446D01*
X226953Y-145239D01*
X226979Y-145196D01*
X227014Y-145159D01*
X227025Y-145123D01*
X227044Y-145092D01*
X227049Y-145041D01*
X227063Y-144992D01*
X227057Y-144956D01*
X227061Y-144920D01*
X227042Y-144872D01*
X227034Y-144822D01*
X227010Y-144786D01*
X226999Y-144758D01*
X226976Y-144737D01*
X226953Y-144702D01*
X225606Y-143355D01*
X224726Y-141231D01*
X224726Y-139384D01*
X224714Y-139334D01*
X224712Y-139288D01*
X224701Y-139267D01*
X224695Y-139235D01*
X224689Y-139225D01*
X224686Y-139215D01*
X224663Y-139187D01*
X224635Y-139145D01*
X224629Y-139136D01*
X224627Y-139134D01*
X224614Y-139115D01*
X223686Y-138187D01*
X223643Y-138160D01*
X223606Y-138125D01*
X223570Y-138115D01*
X223539Y-138096D01*
X223488Y-138091D01*
X223439Y-138076D01*
X223403Y-138083D01*
X223367Y-138079D01*
X223319Y-138097D01*
X223269Y-138106D01*
X223233Y-138130D01*
X223205Y-138141D01*
X223184Y-138163D01*
X223149Y-138187D01*
X220492Y-140844D01*
X197338Y-140844D01*
X194436Y-137942D01*
X194436Y-127488D01*
X197338Y-124586D01*
X220492Y-124586D01*
X223394Y-127488D01*
X223394Y-129032D01*
X223405Y-129082D01*
X223407Y-129133D01*
X223425Y-129165D01*
X223433Y-129201D01*
X223466Y-129240D01*
X223490Y-129285D01*
X223520Y-129306D01*
X223543Y-129334D01*
X223590Y-129355D01*
X223632Y-129385D01*
X223674Y-129393D01*
X223702Y-129405D01*
X223732Y-129404D01*
X223774Y-129412D01*
X224364Y-129412D01*
X224426Y-129398D01*
X224489Y-129391D01*
X224509Y-129378D01*
X224533Y-129373D01*
X224582Y-129332D01*
X224635Y-129298D01*
X224650Y-129276D01*
X224666Y-129263D01*
X224682Y-129228D01*
X224715Y-129178D01*
X225606Y-127028D01*
X227231Y-125403D01*
X227282Y-125382D01*
X227314Y-125359D01*
X227349Y-125345D01*
X227383Y-125309D01*
X227423Y-125280D01*
X227441Y-125246D01*
X227467Y-125218D01*
X227481Y-125171D01*
X227504Y-125127D01*
X227505Y-125089D01*
X227516Y-125052D01*
X227508Y-125004D01*
X227509Y-124954D01*
X227493Y-124919D01*
X227487Y-124881D01*
X227453Y-124831D01*
X227437Y-124797D01*
X227421Y-124784D01*
X227406Y-124761D01*
X223686Y-121042D01*
X223643Y-121015D01*
X223606Y-120980D01*
X223570Y-120970D01*
X223539Y-120951D01*
X223488Y-120946D01*
X223439Y-120931D01*
X223403Y-120938D01*
X223367Y-120934D01*
X223319Y-120952D01*
X223269Y-120961D01*
X223233Y-120985D01*
X223205Y-120996D01*
X223184Y-121018D01*
X223149Y-121042D01*
X220492Y-123699D01*
X197338Y-123699D01*
X194436Y-120797D01*
X194436Y-110343D01*
X197338Y-107441D01*
X220492Y-107441D01*
X223394Y-110343D01*
X223394Y-111887D01*
X223405Y-111937D01*
X223407Y-111988D01*
X223425Y-112020D01*
X223433Y-112056D01*
X223466Y-112095D01*
X223490Y-112140D01*
X223520Y-112161D01*
X223543Y-112189D01*
X223590Y-112210D01*
X223632Y-112240D01*
X223674Y-112248D01*
X223702Y-112260D01*
X223732Y-112259D01*
X223774Y-112267D01*
X224253Y-112267D01*
X231762Y-119776D01*
X231826Y-119816D01*
X231888Y-119860D01*
X231900Y-119862D01*
X231909Y-119867D01*
X231946Y-119871D01*
X232031Y-119887D01*
X244582Y-119887D01*
X244656Y-119870D01*
X244731Y-119857D01*
X244741Y-119850D01*
X244751Y-119848D01*
X244780Y-119824D01*
X244851Y-119776D01*
X246336Y-118291D01*
X248460Y-117411D01*
X250760Y-117411D01*
X252884Y-118291D01*
X254509Y-119916D01*
X255389Y-122040D01*
X255389Y-124340D01*
X254509Y-126464D01*
X252884Y-128089D01*
X250760Y-128969D01*
X248460Y-128969D01*
X246336Y-128089D01*
X244851Y-126604D01*
X244786Y-126564D01*
X244724Y-126520D01*
X244712Y-126518D01*
X244704Y-126513D01*
X244667Y-126509D01*
X244582Y-126493D01*
X235752Y-126493D01*
X235714Y-126502D01*
X235676Y-126500D01*
X235631Y-126521D01*
X235583Y-126532D01*
X235553Y-126557D01*
X235518Y-126573D01*
X235487Y-126611D01*
X235449Y-126642D01*
X235433Y-126678D01*
X235409Y-126707D01*
X235399Y-126755D01*
X235378Y-126801D01*
X235380Y-126839D01*
X235371Y-126877D01*
X235383Y-126936D01*
X235385Y-126974D01*
X235395Y-126992D01*
X235400Y-127019D01*
X236284Y-129152D01*
X236284Y-131064D01*
X236298Y-131121D01*
X236298Y-131124D01*
X236299Y-131125D01*
X236302Y-131138D01*
X236315Y-131213D01*
X236321Y-131223D01*
X236324Y-131233D01*
X236347Y-131261D01*
X236396Y-131333D01*
X242698Y-137635D01*
X242698Y-179948D01*
X242715Y-180022D01*
X242728Y-180096D01*
X242735Y-180107D01*
X242737Y-180116D01*
X242761Y-180145D01*
X242809Y-180217D01*
X244294Y-181702D01*
X245174Y-183826D01*
X245174Y-186125D01*
X244294Y-188249D01*
X242669Y-189875D01*
X241855Y-190212D01*
X241853Y-190213D01*
X241851Y-190213D01*
X241731Y-190295D01*
X238112Y-193914D01*
X238098Y-193936D01*
X238078Y-193952D01*
X238053Y-194009D01*
X238020Y-194061D01*
X238018Y-194087D01*
X238007Y-194111D01*
X238010Y-194172D01*
X238004Y-194234D01*
X238013Y-194258D01*
X238014Y-194284D01*
X238043Y-194338D01*
X238065Y-194396D01*
X238084Y-194413D01*
X238097Y-194436D01*
X238147Y-194471D01*
X238192Y-194513D01*
X238217Y-194521D01*
X238238Y-194536D01*
X238323Y-194552D01*
X238359Y-194563D01*
X238368Y-194561D01*
X238380Y-194563D01*
X259459Y-194563D01*
X259533Y-194546D01*
X259608Y-194533D01*
X259618Y-194526D01*
X259628Y-194524D01*
X259657Y-194500D01*
X259728Y-194452D01*
X269382Y-184798D01*
X269422Y-184734D01*
X269466Y-184672D01*
X269468Y-184660D01*
X269473Y-184651D01*
X269477Y-184614D01*
X269493Y-184529D01*
X269493Y-23497D01*
X269476Y-23423D01*
X269463Y-23348D01*
X269456Y-23338D01*
X269454Y-23328D01*
X269430Y-23299D01*
X269382Y-23228D01*
X267017Y-20863D01*
X267017Y12723D01*
X280583Y26290D01*
X318514Y26290D01*
X318588Y26307D01*
X318663Y26320D01*
X318673Y26327D01*
X318683Y26329D01*
X318712Y26353D01*
X318783Y26401D01*
X321484Y29102D01*
X321524Y29167D01*
X321568Y29229D01*
X321570Y29241D01*
X321576Y29249D01*
X321579Y29286D01*
X321596Y29371D01*
X321596Y31581D01*
X321578Y31655D01*
X321565Y31729D01*
X321559Y31740D01*
X321556Y31749D01*
X321532Y31778D01*
X321484Y31849D01*
X319999Y33335D01*
X319119Y35459D01*
X319119Y37758D01*
X319999Y39882D01*
X321625Y41508D01*
X322054Y41686D01*
X322065Y41693D01*
X322077Y41696D01*
X322135Y41744D01*
X322195Y41787D01*
X322201Y41798D01*
X322211Y41806D01*
X322241Y41874D01*
X322276Y41940D01*
X322277Y41953D01*
X322282Y41965D01*
X322279Y42039D01*
X322281Y42113D01*
X322276Y42125D01*
X322275Y42138D01*
X322240Y42203D01*
X322209Y42270D01*
X322199Y42279D01*
X322193Y42290D01*
X322132Y42333D01*
X322074Y42379D01*
X322062Y42382D01*
X322051Y42390D01*
X321909Y42417D01*
X289181Y42417D01*
X289107Y42400D01*
X289032Y42387D01*
X289022Y42380D01*
X289012Y42378D01*
X288983Y42354D01*
X288912Y42306D01*
X282038Y35432D01*
X279348Y35432D01*
X279274Y35415D01*
X279199Y35402D01*
X279189Y35395D01*
X279179Y35393D01*
X279150Y35369D01*
X279079Y35321D01*
X277594Y33836D01*
X275470Y32956D01*
X273170Y32956D01*
X271046Y33836D01*
X269421Y35461D01*
X268541Y37585D01*
X268541Y39885D01*
X269421Y42009D01*
X271046Y43634D01*
X273170Y44514D01*
X275470Y44514D01*
X277594Y43634D01*
X278977Y42251D01*
X279021Y42224D01*
X279058Y42189D01*
X279093Y42179D01*
X279124Y42159D01*
X279175Y42155D01*
X279224Y42140D01*
X279260Y42146D01*
X279297Y42143D01*
X279345Y42161D01*
X279395Y42170D01*
X279430Y42194D01*
X279459Y42204D01*
X279480Y42227D01*
X279515Y42251D01*
X286287Y49023D01*
X327123Y49023D01*
X339218Y36928D01*
X339218Y24032D01*
X337172Y21986D01*
X332344Y17158D01*
X330298Y15112D01*
X285371Y15112D01*
X285297Y15095D01*
X285222Y15082D01*
X285212Y15075D01*
X285202Y15073D01*
X285173Y15049D01*
X285102Y15001D01*
X278306Y8205D01*
X278266Y8140D01*
X278222Y8078D01*
X278220Y8066D01*
X278214Y8058D01*
X278211Y8021D01*
X278194Y7936D01*
X278194Y828D01*
X278203Y790D01*
X278202Y752D01*
X278222Y707D01*
X278234Y659D01*
X278258Y630D01*
X278274Y595D01*
X278313Y564D01*
X278344Y526D01*
X278379Y510D01*
X278409Y486D01*
X278457Y475D01*
X278502Y455D01*
X278541Y456D01*
X278578Y448D01*
X278637Y460D01*
X278675Y461D01*
X278694Y471D01*
X278720Y477D01*
X280790Y1334D01*
X283090Y1334D01*
X285214Y454D01*
X286839Y-1171D01*
X287748Y-3365D01*
X287759Y-3410D01*
X287767Y-3420D01*
X287771Y-3433D01*
X287822Y-3487D01*
X287869Y-3544D01*
X287881Y-3549D01*
X287890Y-3559D01*
X287959Y-3585D01*
X288027Y-3615D01*
X288040Y-3614D01*
X288052Y-3619D01*
X288126Y-3611D01*
X288200Y-3608D01*
X288212Y-3602D01*
X288224Y-3601D01*
X288287Y-3561D01*
X288352Y-3526D01*
X288360Y-3515D01*
X288371Y-3508D01*
X288451Y-3387D01*
X289106Y-1806D01*
X290731Y-181D01*
X292855Y699D01*
X295155Y699D01*
X297279Y-181D01*
X298904Y-1806D01*
X299784Y-3930D01*
X299784Y-6230D01*
X298904Y-8354D01*
X297419Y-9839D01*
X297406Y-9859D01*
X297390Y-9873D01*
X297371Y-9915D01*
X297335Y-9966D01*
X297333Y-9978D01*
X297328Y-9986D01*
X297325Y-10019D01*
X297319Y-10031D01*
X297320Y-10047D01*
X297308Y-10108D01*
X297308Y-12798D01*
X289926Y-20180D01*
X289886Y-20244D01*
X289842Y-20306D01*
X289840Y-20318D01*
X289835Y-20327D01*
X289831Y-20364D01*
X289815Y-20449D01*
X289815Y-20827D01*
X289821Y-20852D01*
X289818Y-20877D01*
X289840Y-20935D01*
X289854Y-20995D01*
X289871Y-21015D01*
X289880Y-21039D01*
X289925Y-21081D01*
X289964Y-21129D01*
X289988Y-21139D01*
X290007Y-21157D01*
X290066Y-21175D01*
X290123Y-21200D01*
X290148Y-21199D01*
X290173Y-21206D01*
X290234Y-21196D01*
X290296Y-21193D01*
X290318Y-21181D01*
X290344Y-21176D01*
X290415Y-21128D01*
X290448Y-21110D01*
X290454Y-21102D01*
X290464Y-21095D01*
X302237Y-9323D01*
X302264Y-9279D01*
X302298Y-9242D01*
X302309Y-9206D01*
X302328Y-9175D01*
X302333Y-9125D01*
X302347Y-9076D01*
X302341Y-9039D01*
X302345Y-9003D01*
X302327Y-8955D01*
X302318Y-8905D01*
X302294Y-8869D01*
X302283Y-8841D01*
X302261Y-8820D01*
X302237Y-8785D01*
X301806Y-8354D01*
X300926Y-6230D01*
X300926Y-3930D01*
X301806Y-1806D01*
X303431Y-181D01*
X305555Y699D01*
X307855Y699D01*
X309979Y-181D01*
X311604Y-1806D01*
X312484Y-3930D01*
X312484Y-6230D01*
X311604Y-8354D01*
X310119Y-9839D01*
X310106Y-9859D01*
X310090Y-9873D01*
X310071Y-9915D01*
X310035Y-9966D01*
X310033Y-9978D01*
X310028Y-9986D01*
X310025Y-10019D01*
X310019Y-10031D01*
X310020Y-10047D01*
X310008Y-10108D01*
X310008Y-10893D01*
X294498Y-26403D01*
X294458Y-26467D01*
X294414Y-26529D01*
X294412Y-26541D01*
X294407Y-26550D01*
X294403Y-26587D01*
X294387Y-26672D01*
X294387Y-63307D01*
X294396Y-63345D01*
X294394Y-63383D01*
X294415Y-63428D01*
X294426Y-63476D01*
X294451Y-63505D01*
X294467Y-63540D01*
X294505Y-63571D01*
X294536Y-63609D01*
X294572Y-63625D01*
X294601Y-63649D01*
X294649Y-63660D01*
X294695Y-63680D01*
X294733Y-63679D01*
X294771Y-63687D01*
X294830Y-63675D01*
X294868Y-63674D01*
X294886Y-63664D01*
X294913Y-63658D01*
X296983Y-62801D01*
X299282Y-62801D01*
X301225Y-63606D01*
X301263Y-63612D01*
X301299Y-63628D01*
X301348Y-63626D01*
X301396Y-63634D01*
X301433Y-63623D01*
X301472Y-63621D01*
X301515Y-63598D01*
X301562Y-63583D01*
X301590Y-63557D01*
X301624Y-63538D01*
X301652Y-63498D01*
X301688Y-63464D01*
X301701Y-63428D01*
X301724Y-63397D01*
X301735Y-63337D01*
X301748Y-63302D01*
X301746Y-63281D01*
X301751Y-63254D01*
X301751Y-61493D01*
X302793Y-60451D01*
X329667Y-60451D01*
X330595Y-61379D01*
X330638Y-61406D01*
X330676Y-61441D01*
X330711Y-61451D01*
X330742Y-61471D01*
X330793Y-61476D01*
X330842Y-61490D01*
X330878Y-61484D01*
X330915Y-61487D01*
X330962Y-61469D01*
X331012Y-61460D01*
X331048Y-61437D01*
X331076Y-61426D01*
X331097Y-61403D01*
X331133Y-61379D01*
X332641Y-59871D01*
X334765Y-58991D01*
X337065Y-58991D01*
X339189Y-59871D01*
X340814Y-61496D01*
X341694Y-63620D01*
X341694Y-65920D01*
X340814Y-68044D01*
X339189Y-69669D01*
X337065Y-70549D01*
X336234Y-70549D01*
X336160Y-70567D01*
X336085Y-70580D01*
X336075Y-70586D01*
X336065Y-70589D01*
X336037Y-70612D01*
X335965Y-70661D01*
X334743Y-71883D01*
X331089Y-71883D01*
X331039Y-71894D01*
X330988Y-71896D01*
X330956Y-71914D01*
X330920Y-71922D01*
X330881Y-71955D01*
X330836Y-71979D01*
X330815Y-72009D01*
X330787Y-72032D01*
X330766Y-72079D01*
X330736Y-72121D01*
X330728Y-72163D01*
X330716Y-72191D01*
X330717Y-72221D01*
X330709Y-72263D01*
X330709Y-75667D01*
X329667Y-76709D01*
X302793Y-76709D01*
X301751Y-75667D01*
X301751Y-73906D01*
X301742Y-73868D01*
X301744Y-73830D01*
X301723Y-73785D01*
X301712Y-73737D01*
X301687Y-73707D01*
X301671Y-73672D01*
X301633Y-73641D01*
X301602Y-73603D01*
X301566Y-73587D01*
X301537Y-73563D01*
X301489Y-73552D01*
X301443Y-73532D01*
X301405Y-73534D01*
X301367Y-73525D01*
X301308Y-73537D01*
X301270Y-73539D01*
X301252Y-73549D01*
X301225Y-73554D01*
X299282Y-74359D01*
X296983Y-74359D01*
X294913Y-73502D01*
X294875Y-73495D01*
X294839Y-73480D01*
X294790Y-73482D01*
X294742Y-73474D01*
X294705Y-73485D01*
X294666Y-73486D01*
X294623Y-73510D01*
X294576Y-73524D01*
X294548Y-73551D01*
X294514Y-73569D01*
X294486Y-73609D01*
X294450Y-73643D01*
X294437Y-73679D01*
X294414Y-73711D01*
X294403Y-73770D01*
X294390Y-73806D01*
X294392Y-73826D01*
X294387Y-73853D01*
X294387Y-81722D01*
X294396Y-81760D01*
X294394Y-81798D01*
X294415Y-81843D01*
X294426Y-81891D01*
X294451Y-81920D01*
X294467Y-81955D01*
X294505Y-81986D01*
X294536Y-82024D01*
X294572Y-82040D01*
X294601Y-82064D01*
X294649Y-82075D01*
X294695Y-82095D01*
X294733Y-82094D01*
X294771Y-82102D01*
X294830Y-82090D01*
X294868Y-82089D01*
X294886Y-82079D01*
X294913Y-82073D01*
X296983Y-81216D01*
X299282Y-81216D01*
X301226Y-82021D01*
X301263Y-82027D01*
X301299Y-82043D01*
X301348Y-82041D01*
X301396Y-82049D01*
X301433Y-82038D01*
X301472Y-82036D01*
X301515Y-82013D01*
X301562Y-81998D01*
X301590Y-81972D01*
X301624Y-81953D01*
X301652Y-81913D01*
X301688Y-81879D01*
X301702Y-81843D01*
X301724Y-81812D01*
X301735Y-81752D01*
X301748Y-81717D01*
X301746Y-81696D01*
X301751Y-81669D01*
X301751Y-79273D01*
X302793Y-78231D01*
X329667Y-78231D01*
X330709Y-79273D01*
X330709Y-93447D01*
X329667Y-94489D01*
X302793Y-94489D01*
X301751Y-93447D01*
X301751Y-92321D01*
X301742Y-92283D01*
X301744Y-92245D01*
X301723Y-92200D01*
X301712Y-92152D01*
X301687Y-92122D01*
X301671Y-92087D01*
X301633Y-92056D01*
X301602Y-92018D01*
X301566Y-92002D01*
X301537Y-91978D01*
X301489Y-91967D01*
X301443Y-91947D01*
X301405Y-91949D01*
X301367Y-91940D01*
X301308Y-91952D01*
X301270Y-91954D01*
X301252Y-91964D01*
X301226Y-91969D01*
X299282Y-92774D01*
X296983Y-92774D01*
X294913Y-91917D01*
X294875Y-91910D01*
X294839Y-91895D01*
X294790Y-91897D01*
X294742Y-91889D01*
X294705Y-91900D01*
X294666Y-91901D01*
X294623Y-91925D01*
X294576Y-91939D01*
X294548Y-91966D01*
X294514Y-91984D01*
X294486Y-92024D01*
X294450Y-92058D01*
X294437Y-92094D01*
X294414Y-92126D01*
X294403Y-92185D01*
X294390Y-92221D01*
X294392Y-92241D01*
X294387Y-92268D01*
X294387Y-98867D01*
X294396Y-98905D01*
X294394Y-98943D01*
X294415Y-98988D01*
X294426Y-99036D01*
X294451Y-99065D01*
X294467Y-99100D01*
X294505Y-99131D01*
X294536Y-99169D01*
X294572Y-99185D01*
X294601Y-99209D01*
X294649Y-99220D01*
X294695Y-99240D01*
X294733Y-99239D01*
X294771Y-99247D01*
X294830Y-99235D01*
X294868Y-99234D01*
X294886Y-99224D01*
X294913Y-99218D01*
X296983Y-98361D01*
X299282Y-98361D01*
X301226Y-99166D01*
X301263Y-99172D01*
X301299Y-99188D01*
X301348Y-99186D01*
X301396Y-99194D01*
X301433Y-99183D01*
X301472Y-99181D01*
X301515Y-99158D01*
X301562Y-99143D01*
X301590Y-99117D01*
X301624Y-99098D01*
X301652Y-99058D01*
X301688Y-99024D01*
X301702Y-98988D01*
X301724Y-98957D01*
X301735Y-98897D01*
X301748Y-98862D01*
X301746Y-98841D01*
X301751Y-98814D01*
X301751Y-97053D01*
X302793Y-96011D01*
X329667Y-96011D01*
X330709Y-97053D01*
X330709Y-111227D01*
X329667Y-112269D01*
X302793Y-112269D01*
X301751Y-111227D01*
X301751Y-109466D01*
X301742Y-109428D01*
X301744Y-109390D01*
X301723Y-109345D01*
X301712Y-109297D01*
X301687Y-109267D01*
X301671Y-109232D01*
X301633Y-109201D01*
X301602Y-109163D01*
X301566Y-109147D01*
X301537Y-109123D01*
X301489Y-109112D01*
X301443Y-109092D01*
X301405Y-109094D01*
X301367Y-109085D01*
X301308Y-109097D01*
X301270Y-109099D01*
X301252Y-109109D01*
X301226Y-109114D01*
X299282Y-109919D01*
X296983Y-109919D01*
X294913Y-109062D01*
X294875Y-109055D01*
X294839Y-109040D01*
X294790Y-109042D01*
X294742Y-109034D01*
X294705Y-109045D01*
X294666Y-109046D01*
X294623Y-109070D01*
X294576Y-109084D01*
X294548Y-109111D01*
X294514Y-109129D01*
X294486Y-109169D01*
X294450Y-109203D01*
X294437Y-109239D01*
X294414Y-109271D01*
X294403Y-109330D01*
X294390Y-109366D01*
X294392Y-109386D01*
X294387Y-109413D01*
X294387Y-155573D01*
X294404Y-155647D01*
X294417Y-155722D01*
X294424Y-155732D01*
X294426Y-155742D01*
X294450Y-155771D01*
X294498Y-155842D01*
X302945Y-164289D01*
X303010Y-164329D01*
X303072Y-164373D01*
X303084Y-164375D01*
X303092Y-164381D01*
X303129Y-164384D01*
X303214Y-164401D01*
X305315Y-164401D01*
X307439Y-165281D01*
X309064Y-166906D01*
X309944Y-169030D01*
X309944Y-171330D01*
X309064Y-173454D01*
X307439Y-175079D01*
X305315Y-175959D01*
X303015Y-175959D01*
X300891Y-175079D01*
X299266Y-173454D01*
X298386Y-171330D01*
X298386Y-169229D01*
X298368Y-169155D01*
X298355Y-169080D01*
X298349Y-169070D01*
X298346Y-169060D01*
X298323Y-169031D01*
X298274Y-168960D01*
X297183Y-167869D01*
X297172Y-167862D01*
X297164Y-167851D01*
X297098Y-167816D01*
X297036Y-167777D01*
X297023Y-167776D01*
X297011Y-167770D01*
X296937Y-167768D01*
X296863Y-167761D01*
X296851Y-167765D01*
X296838Y-167765D01*
X296771Y-167796D01*
X296701Y-167822D01*
X296692Y-167832D01*
X296681Y-167837D01*
X296634Y-167895D01*
X296583Y-167949D01*
X296580Y-167962D01*
X296572Y-167972D01*
X296555Y-168044D01*
X296534Y-168115D01*
X296537Y-168128D01*
X296534Y-168141D01*
X296563Y-168283D01*
X296609Y-168395D01*
X296609Y-170695D01*
X295729Y-172819D01*
X294104Y-174444D01*
X291980Y-175324D01*
X289680Y-175324D01*
X287556Y-174444D01*
X285892Y-172780D01*
X285870Y-172766D01*
X285854Y-172746D01*
X285797Y-172721D01*
X285745Y-172689D01*
X285719Y-172686D01*
X285695Y-172676D01*
X285634Y-172678D01*
X285572Y-172672D01*
X285548Y-172681D01*
X285522Y-172682D01*
X285468Y-172712D01*
X285410Y-172734D01*
X285393Y-172753D01*
X285370Y-172765D01*
X285335Y-172815D01*
X285293Y-172861D01*
X285285Y-172885D01*
X285270Y-172907D01*
X285254Y-172991D01*
X285243Y-173027D01*
X285245Y-173037D01*
X285243Y-173049D01*
X285243Y-196458D01*
X285249Y-196483D01*
X285246Y-196509D01*
X285268Y-196566D01*
X285282Y-196626D01*
X285299Y-196646D01*
X285308Y-196670D01*
X285353Y-196712D01*
X285392Y-196760D01*
X285416Y-196771D01*
X285435Y-196788D01*
X285494Y-196806D01*
X285551Y-196831D01*
X285576Y-196830D01*
X285601Y-196837D01*
X285662Y-196827D01*
X285724Y-196824D01*
X285746Y-196812D01*
X285772Y-196808D01*
X285843Y-196759D01*
X285876Y-196742D01*
X285882Y-196733D01*
X285892Y-196727D01*
X287556Y-195062D01*
X289680Y-194182D01*
X291980Y-194182D01*
X294104Y-195062D01*
X295729Y-196688D01*
X296609Y-198812D01*
X296609Y-201111D01*
X295729Y-203235D01*
X294244Y-204720D01*
X294204Y-204785D01*
X294160Y-204847D01*
X294158Y-204859D01*
X294153Y-204868D01*
X294149Y-204905D01*
X294133Y-204989D01*
X294133Y-206258D01*
X294139Y-206283D01*
X294136Y-206308D01*
X294158Y-206366D01*
X294172Y-206426D01*
X294189Y-206446D01*
X294198Y-206470D01*
X294243Y-206512D01*
X294282Y-206560D01*
X294306Y-206571D01*
X294325Y-206588D01*
X294384Y-206606D01*
X294441Y-206631D01*
X294466Y-206630D01*
X294491Y-206637D01*
X294552Y-206627D01*
X294614Y-206624D01*
X294636Y-206612D01*
X294662Y-206608D01*
X294733Y-206559D01*
X294766Y-206542D01*
X294772Y-206533D01*
X294782Y-206527D01*
X298904Y-202404D01*
X298927Y-202367D01*
X298935Y-202360D01*
X298942Y-202345D01*
X298978Y-202301D01*
X298983Y-202278D01*
X298995Y-202257D01*
X298999Y-202217D01*
X299006Y-202202D01*
X299005Y-202178D01*
X299015Y-202132D01*
X299010Y-202105D01*
X299012Y-202085D01*
X299001Y-202054D01*
X299000Y-202029D01*
X298992Y-202014D01*
X298987Y-201990D01*
X298386Y-200540D01*
X298386Y-198240D01*
X299266Y-196116D01*
X300891Y-194491D01*
X303015Y-193611D01*
X305315Y-193611D01*
X307439Y-194491D01*
X309064Y-196116D01*
X309944Y-198240D01*
X309944Y-200540D01*
X309064Y-202664D01*
X307579Y-204149D01*
X307567Y-204169D01*
X307552Y-204181D01*
X307535Y-204220D01*
X307495Y-204276D01*
X307493Y-204288D01*
X307488Y-204296D01*
X307484Y-204332D01*
X307481Y-204339D01*
X307482Y-204347D01*
X307468Y-204418D01*
X307468Y-205076D01*
X306311Y-206233D01*
X306297Y-206255D01*
X306277Y-206271D01*
X306252Y-206328D01*
X306219Y-206380D01*
X306217Y-206406D01*
X306206Y-206430D01*
X306209Y-206491D01*
X306203Y-206553D01*
X306212Y-206577D01*
X306213Y-206603D01*
X306242Y-206657D01*
X306264Y-206715D01*
X306283Y-206732D01*
X306296Y-206755D01*
X306346Y-206790D01*
X306391Y-206832D01*
X306416Y-206840D01*
X306437Y-206855D01*
X306522Y-206871D01*
X306558Y-206882D01*
X306567Y-206880D01*
X306579Y-206882D01*
X313954Y-206882D01*
X314028Y-206865D01*
X314102Y-206852D01*
X314113Y-206845D01*
X314122Y-206843D01*
X314151Y-206819D01*
X314223Y-206771D01*
X327129Y-193865D01*
X364363Y-193865D01*
X364413Y-193853D01*
X364464Y-193851D01*
X364496Y-193834D01*
X364532Y-193825D01*
X364571Y-193793D01*
X364616Y-193768D01*
X364637Y-193738D01*
X364665Y-193715D01*
X364686Y-193668D01*
X364716Y-193627D01*
X364724Y-193585D01*
X364736Y-193557D01*
X364735Y-193526D01*
X364743Y-193485D01*
X364743Y-74009D01*
X364726Y-73935D01*
X364713Y-73860D01*
X364706Y-73850D01*
X364704Y-73840D01*
X364680Y-73811D01*
X364632Y-73740D01*
X355232Y-64341D01*
X355232Y-64340D01*
X353186Y-62294D01*
X353186Y-42651D01*
X353169Y-42577D01*
X353156Y-42502D01*
X353149Y-42492D01*
X353147Y-42482D01*
X353123Y-42454D01*
X353075Y-42382D01*
X333157Y-22464D01*
X333092Y-22424D01*
X333030Y-22380D01*
X333018Y-22378D01*
X333009Y-22373D01*
X332972Y-22369D01*
X332888Y-22353D01*
X332007Y-22353D01*
X320625Y-10971D01*
X320560Y-10931D01*
X320498Y-10887D01*
X320486Y-10885D01*
X320478Y-10879D01*
X320441Y-10876D01*
X320356Y-10859D01*
X318255Y-10859D01*
X316131Y-9979D01*
X314506Y-8354D01*
X313626Y-6230D01*
X313626Y-3930D01*
X314506Y-1806D01*
X316131Y-181D01*
X318255Y699D01*
X320555Y699D01*
X322679Y-181D01*
X324304Y-1806D01*
X325184Y-3930D01*
X325184Y-6031D01*
X325202Y-6105D01*
X325215Y-6180D01*
X325221Y-6190D01*
X325224Y-6200D01*
X325248Y-6229D01*
X325296Y-6300D01*
X325752Y-6756D01*
X325763Y-6763D01*
X325771Y-6774D01*
X325837Y-6809D01*
X325899Y-6848D01*
X325912Y-6849D01*
X325924Y-6855D01*
X325998Y-6857D01*
X326072Y-6864D01*
X326084Y-6860D01*
X326097Y-6860D01*
X326164Y-6829D01*
X326234Y-6803D01*
X326243Y-6793D01*
X326254Y-6788D01*
X326301Y-6730D01*
X326352Y-6676D01*
X326355Y-6663D01*
X326363Y-6653D01*
X326380Y-6581D01*
X326401Y-6509D01*
X326398Y-6497D01*
X326401Y-6484D01*
X326372Y-6342D01*
X326326Y-6230D01*
X326326Y-3930D01*
X327206Y-1806D01*
X328831Y-181D01*
X330955Y699D01*
X333255Y699D01*
X335379Y-181D01*
X337004Y-1806D01*
X337884Y-3930D01*
X337884Y-6230D01*
X337004Y-8354D01*
X336256Y-9102D01*
X336229Y-9146D01*
X336194Y-9183D01*
X336184Y-9218D01*
X336164Y-9249D01*
X336160Y-9300D01*
X336145Y-9349D01*
X336151Y-9385D01*
X336148Y-9422D01*
X336166Y-9470D01*
X336175Y-9520D01*
X336199Y-9555D01*
X336209Y-9584D01*
X336232Y-9605D01*
X336256Y-9640D01*
X340853Y-14237D01*
X340875Y-14251D01*
X340891Y-14271D01*
X340948Y-14296D01*
X341000Y-14329D01*
X341026Y-14331D01*
X341050Y-14342D01*
X341111Y-14339D01*
X341173Y-14345D01*
X341197Y-14336D01*
X341223Y-14335D01*
X341277Y-14306D01*
X341335Y-14284D01*
X341352Y-14265D01*
X341375Y-14252D01*
X341410Y-14202D01*
X341452Y-14157D01*
X341460Y-14132D01*
X341475Y-14111D01*
X341491Y-14026D01*
X341502Y-13990D01*
X341500Y-13981D01*
X341502Y-13969D01*
X341502Y-9473D01*
X341485Y-9399D01*
X341472Y-9324D01*
X341465Y-9314D01*
X341463Y-9304D01*
X341439Y-9275D01*
X341391Y-9204D01*
X339906Y-7719D01*
X339026Y-5595D01*
X339026Y-3295D01*
X339906Y-1171D01*
X341531Y454D01*
X343655Y1334D01*
X345955Y1334D01*
X348079Y454D01*
X349704Y-1171D01*
X350584Y-3295D01*
X350584Y-5595D01*
X349704Y-7719D01*
X348219Y-9204D01*
X348179Y-9269D01*
X348135Y-9331D01*
X348133Y-9343D01*
X348128Y-9351D01*
X348124Y-9388D01*
X348108Y-9473D01*
X348108Y-14984D01*
X348125Y-15058D01*
X348138Y-15133D01*
X348145Y-15143D01*
X348147Y-15153D01*
X348171Y-15182D01*
X348219Y-15253D01*
X351142Y-18176D01*
X351206Y-18216D01*
X351268Y-18260D01*
X351280Y-18262D01*
X351289Y-18267D01*
X351326Y-18271D01*
X351411Y-18287D01*
X361314Y-18287D01*
X361339Y-18281D01*
X361364Y-18284D01*
X361422Y-18262D01*
X361482Y-18248D01*
X361502Y-18231D01*
X361526Y-18222D01*
X361568Y-18177D01*
X361616Y-18138D01*
X361626Y-18114D01*
X361644Y-18095D01*
X361662Y-18036D01*
X361687Y-17979D01*
X361686Y-17954D01*
X361693Y-17929D01*
X361683Y-17868D01*
X361680Y-17806D01*
X361668Y-17784D01*
X361663Y-17758D01*
X361615Y-17687D01*
X361597Y-17654D01*
X361589Y-17648D01*
X361582Y-17638D01*
X360552Y-16608D01*
X360552Y-10743D01*
X360535Y-10669D01*
X360522Y-10594D01*
X360515Y-10584D01*
X360513Y-10574D01*
X360489Y-10545D01*
X360441Y-10474D01*
X358956Y-8989D01*
X358076Y-6865D01*
X358076Y-4565D01*
X358956Y-2441D01*
X360581Y-816D01*
X362705Y64D01*
X365005Y64D01*
X367129Y-816D01*
X368754Y-2441D01*
X369634Y-4565D01*
X369634Y-6865D01*
X368754Y-8989D01*
X367269Y-10474D01*
X367229Y-10539D01*
X367185Y-10601D01*
X367183Y-10613D01*
X367178Y-10621D01*
X367174Y-10658D01*
X367158Y-10743D01*
X367158Y-13714D01*
X367175Y-13788D01*
X367188Y-13863D01*
X367195Y-13873D01*
X367197Y-13883D01*
X367221Y-13912D01*
X367269Y-13983D01*
X371460Y-18174D01*
X371482Y-18188D01*
X371498Y-18208D01*
X371555Y-18233D01*
X371607Y-18266D01*
X371633Y-18268D01*
X371657Y-18279D01*
X371718Y-18276D01*
X371780Y-18282D01*
X371804Y-18273D01*
X371830Y-18272D01*
X371884Y-18243D01*
X371942Y-18221D01*
X371959Y-18202D01*
X371982Y-18189D01*
X372017Y-18139D01*
X372059Y-18094D01*
X372067Y-18069D01*
X372082Y-18048D01*
X372098Y-17963D01*
X372109Y-17927D01*
X372107Y-17918D01*
X372109Y-17906D01*
X372109Y4670D01*
X378997Y11558D01*
X394433Y11558D01*
X399543Y6448D01*
X399543Y-687D01*
X399560Y-761D01*
X399573Y-836D01*
X399580Y-846D01*
X399582Y-856D01*
X399606Y-885D01*
X399654Y-956D01*
X401139Y-2441D01*
X401794Y-4022D01*
X401802Y-4033D01*
X401805Y-4045D01*
X401852Y-4103D01*
X401895Y-4163D01*
X401907Y-4169D01*
X401915Y-4179D01*
X401983Y-4209D01*
X402048Y-4244D01*
X402061Y-4245D01*
X402073Y-4250D01*
X402147Y-4247D01*
X402221Y-4249D01*
X402233Y-4244D01*
X402246Y-4243D01*
X402311Y-4208D01*
X402379Y-4177D01*
X402387Y-4167D01*
X402398Y-4161D01*
X402441Y-4100D01*
X402488Y-4042D01*
X402491Y-4030D01*
X402498Y-4019D01*
X402526Y-3877D01*
X402526Y-2660D01*
X403406Y-536D01*
X405031Y1089D01*
X407155Y1969D01*
X409455Y1969D01*
X411579Y1089D01*
X413204Y-536D01*
X414084Y-2660D01*
X414084Y-4960D01*
X413204Y-7084D01*
X411821Y-8467D01*
X411794Y-8511D01*
X411759Y-8548D01*
X411749Y-8583D01*
X411729Y-8614D01*
X411725Y-8665D01*
X411710Y-8714D01*
X411716Y-8750D01*
X411713Y-8787D01*
X411731Y-8835D01*
X411740Y-8885D01*
X411764Y-8920D01*
X411774Y-8949D01*
X411797Y-8970D01*
X411821Y-9005D01*
X417053Y-14237D01*
X417075Y-14251D01*
X417091Y-14271D01*
X417148Y-14296D01*
X417200Y-14329D01*
X417226Y-14331D01*
X417250Y-14342D01*
X417311Y-14339D01*
X417373Y-14345D01*
X417397Y-14336D01*
X417423Y-14335D01*
X417477Y-14306D01*
X417535Y-14284D01*
X417552Y-14265D01*
X417575Y-14252D01*
X417610Y-14202D01*
X417652Y-14157D01*
X417660Y-14132D01*
X417675Y-14111D01*
X417691Y-14026D01*
X417702Y-13990D01*
X417700Y-13981D01*
X417702Y-13969D01*
X417702Y-9473D01*
X417685Y-9399D01*
X417672Y-9324D01*
X417665Y-9314D01*
X417663Y-9304D01*
X417639Y-9275D01*
X417591Y-9204D01*
X416106Y-7719D01*
X415226Y-5595D01*
X415226Y-3295D01*
X416106Y-1171D01*
X417731Y454D01*
X419855Y1334D01*
X422155Y1334D01*
X424279Y454D01*
X425904Y-1171D01*
X426784Y-3295D01*
X426784Y-5595D01*
X425904Y-7719D01*
X424419Y-9204D01*
X424379Y-9269D01*
X424335Y-9331D01*
X424333Y-9343D01*
X424328Y-9351D01*
X424324Y-9388D01*
X424308Y-9473D01*
X424308Y-50229D01*
X423625Y-50912D01*
X423614Y-50930D01*
X423602Y-50940D01*
X423601Y-50943D01*
X423592Y-50950D01*
X423566Y-51007D01*
X423534Y-51059D01*
X423531Y-51085D01*
X423521Y-51109D01*
X423523Y-51170D01*
X423517Y-51232D01*
X423526Y-51256D01*
X423527Y-51282D01*
X423557Y-51336D01*
X423579Y-51394D01*
X423598Y-51411D01*
X423610Y-51434D01*
X423660Y-51469D01*
X423706Y-51511D01*
X423731Y-51519D01*
X423752Y-51534D01*
X423836Y-51550D01*
X423872Y-51561D01*
X423882Y-51559D01*
X423894Y-51561D01*
X445282Y-51561D01*
X448184Y-54463D01*
X448184Y-64917D01*
X445282Y-67819D01*
X422128Y-67819D01*
X419226Y-64917D01*
X419226Y-56229D01*
X419220Y-56204D01*
X419223Y-56178D01*
X419201Y-56120D01*
X419187Y-56060D01*
X419170Y-56040D01*
X419161Y-56016D01*
X419116Y-55974D01*
X419077Y-55927D01*
X419053Y-55916D01*
X419034Y-55898D01*
X418975Y-55881D01*
X418918Y-55856D01*
X418893Y-55857D01*
X418868Y-55849D01*
X418807Y-55860D01*
X418745Y-55862D01*
X418723Y-55875D01*
X418697Y-55879D01*
X418626Y-55927D01*
X418593Y-55945D01*
X418587Y-55953D01*
X418577Y-55960D01*
X403464Y-71073D01*
X403455Y-71088D01*
X403449Y-71093D01*
X403441Y-71110D01*
X403424Y-71138D01*
X403380Y-71200D01*
X403378Y-71212D01*
X403373Y-71220D01*
X403369Y-71257D01*
X403353Y-71342D01*
X403353Y-190532D01*
X403370Y-190606D01*
X403383Y-190681D01*
X403390Y-190691D01*
X403392Y-190701D01*
X403416Y-190730D01*
X403464Y-190801D01*
X412449Y-199786D01*
X412514Y-199826D01*
X412576Y-199870D01*
X412588Y-199872D01*
X412596Y-199877D01*
X412633Y-199881D01*
X412718Y-199897D01*
X471903Y-199897D01*
X477013Y-205007D01*
X477013Y-218368D01*
X477027Y-218430D01*
X477034Y-218493D01*
X477047Y-218513D01*
X477052Y-218537D01*
X477093Y-218586D01*
X477127Y-218639D01*
X477149Y-218654D01*
X477162Y-218670D01*
X477197Y-218686D01*
X477247Y-218719D01*
X479813Y-219782D01*
X482528Y-222497D01*
X483998Y-226045D01*
X483998Y-229885D01*
X482528Y-233433D01*
X479813Y-236148D01*
X476265Y-237618D01*
X472425Y-237618D01*
X468877Y-236148D01*
X466162Y-233433D01*
X464692Y-229885D01*
X464692Y-226045D01*
X466162Y-222497D01*
X468877Y-219782D01*
X470173Y-219245D01*
X470224Y-219208D01*
X470280Y-219178D01*
X470294Y-219158D01*
X470313Y-219144D01*
X470343Y-219088D01*
X470380Y-219036D01*
X470385Y-219010D01*
X470395Y-218991D01*
X470396Y-218954D01*
X470399Y-218936D01*
X470400Y-218933D01*
X470400Y-218930D01*
X470407Y-218894D01*
X470407Y-207901D01*
X470390Y-207827D01*
X470377Y-207752D01*
X470370Y-207742D01*
X470368Y-207732D01*
X470344Y-207703D01*
X470296Y-207632D01*
X469278Y-206614D01*
X469214Y-206574D01*
X469152Y-206530D01*
X469140Y-206528D01*
X469131Y-206523D01*
X469094Y-206519D01*
X469009Y-206503D01*
X447549Y-206503D01*
X447524Y-206509D01*
X447499Y-206506D01*
X447441Y-206528D01*
X447381Y-206542D01*
X447361Y-206559D01*
X447337Y-206568D01*
X447295Y-206613D01*
X447247Y-206652D01*
X447237Y-206676D01*
X447219Y-206695D01*
X447201Y-206754D01*
X447176Y-206811D01*
X447177Y-206836D01*
X447170Y-206861D01*
X447180Y-206922D01*
X447183Y-206984D01*
X447195Y-207006D01*
X447200Y-207032D01*
X447248Y-207103D01*
X447266Y-207136D01*
X447274Y-207142D01*
X447281Y-207152D01*
X450202Y-210073D01*
X452248Y-212119D01*
X452248Y-218631D01*
X452262Y-218693D01*
X452269Y-218756D01*
X452282Y-218776D01*
X452287Y-218800D01*
X452328Y-218849D01*
X452362Y-218902D01*
X452384Y-218917D01*
X452397Y-218933D01*
X452432Y-218949D01*
X452482Y-218982D01*
X454413Y-219782D01*
X457128Y-222497D01*
X458598Y-226045D01*
X458598Y-229885D01*
X457128Y-233433D01*
X454413Y-236148D01*
X450865Y-237618D01*
X447025Y-237618D01*
X443477Y-236148D01*
X440762Y-233433D01*
X439292Y-229885D01*
X439292Y-226045D01*
X440762Y-222497D01*
X443477Y-219782D01*
X445408Y-218982D01*
X445459Y-218945D01*
X445515Y-218915D01*
X445529Y-218895D01*
X445548Y-218881D01*
X445578Y-218825D01*
X445615Y-218773D01*
X445620Y-218747D01*
X445630Y-218728D01*
X445631Y-218690D01*
X445642Y-218631D01*
X445642Y-215013D01*
X445625Y-214939D01*
X445612Y-214864D01*
X445605Y-214854D01*
X445603Y-214844D01*
X445579Y-214815D01*
X445531Y-214744D01*
X441973Y-211186D01*
X441909Y-211146D01*
X441847Y-211102D01*
X441835Y-211100D01*
X441826Y-211095D01*
X441789Y-211091D01*
X441704Y-211075D01*
X424077Y-211075D01*
X424052Y-211081D01*
X424026Y-211078D01*
X423968Y-211100D01*
X423908Y-211114D01*
X423888Y-211131D01*
X423864Y-211140D01*
X423822Y-211185D01*
X423774Y-211224D01*
X423764Y-211248D01*
X423746Y-211267D01*
X423729Y-211326D01*
X423704Y-211383D01*
X423705Y-211408D01*
X423697Y-211433D01*
X423708Y-211494D01*
X423710Y-211556D01*
X423723Y-211578D01*
X423727Y-211604D01*
X423775Y-211675D01*
X423793Y-211708D01*
X423801Y-211714D01*
X423808Y-211724D01*
X426848Y-214764D01*
X426848Y-218631D01*
X426862Y-218693D01*
X426869Y-218756D01*
X426882Y-218776D01*
X426887Y-218800D01*
X426928Y-218849D01*
X426962Y-218902D01*
X426984Y-218917D01*
X426997Y-218933D01*
X427032Y-218949D01*
X427082Y-218982D01*
X429013Y-219782D01*
X431728Y-222497D01*
X433198Y-226045D01*
X433198Y-229885D01*
X431728Y-233433D01*
X429013Y-236148D01*
X425465Y-237618D01*
X421625Y-237618D01*
X418077Y-236148D01*
X415362Y-233433D01*
X413892Y-229885D01*
X413892Y-226045D01*
X415362Y-222497D01*
X418077Y-219782D01*
X420008Y-218982D01*
X420059Y-218945D01*
X420115Y-218915D01*
X420129Y-218895D01*
X420148Y-218881D01*
X420178Y-218825D01*
X420215Y-218773D01*
X420220Y-218747D01*
X420230Y-218728D01*
X420231Y-218690D01*
X420242Y-218631D01*
X420242Y-217678D01*
X420231Y-217628D01*
X420229Y-217577D01*
X420211Y-217545D01*
X420203Y-217509D01*
X420170Y-217470D01*
X420146Y-217425D01*
X420116Y-217404D01*
X420093Y-217376D01*
X420046Y-217355D01*
X420004Y-217325D01*
X419962Y-217317D01*
X419934Y-217305D01*
X419904Y-217306D01*
X419862Y-217298D01*
X406429Y-217298D01*
X402097Y-212966D01*
X402075Y-212952D01*
X402059Y-212932D01*
X402002Y-212907D01*
X401950Y-212874D01*
X401924Y-212872D01*
X401900Y-212861D01*
X401839Y-212864D01*
X401777Y-212858D01*
X401753Y-212867D01*
X401727Y-212868D01*
X401673Y-212897D01*
X401615Y-212919D01*
X401598Y-212938D01*
X401575Y-212951D01*
X401540Y-213001D01*
X401498Y-213046D01*
X401490Y-213071D01*
X401475Y-213092D01*
X401459Y-213177D01*
X401448Y-213213D01*
X401450Y-213222D01*
X401448Y-213234D01*
X401448Y-218631D01*
X401462Y-218693D01*
X401469Y-218756D01*
X401482Y-218776D01*
X401487Y-218800D01*
X401528Y-218849D01*
X401562Y-218902D01*
X401584Y-218917D01*
X401597Y-218933D01*
X401632Y-218949D01*
X401682Y-218982D01*
X403613Y-219782D01*
X406328Y-222497D01*
X407798Y-226045D01*
X407798Y-229885D01*
X406328Y-233433D01*
X403613Y-236148D01*
X400065Y-237618D01*
X396225Y-237618D01*
X392677Y-236148D01*
X389962Y-233433D01*
X388492Y-229885D01*
X388492Y-226045D01*
X389745Y-223020D01*
X389747Y-223007D01*
X389754Y-222996D01*
X389761Y-222923D01*
X389773Y-222849D01*
X389769Y-222837D01*
X389771Y-222824D01*
X389744Y-222755D01*
X389723Y-222683D01*
X389714Y-222674D01*
X389709Y-222662D01*
X389654Y-222611D01*
X389604Y-222557D01*
X389592Y-222553D01*
X389582Y-222544D01*
X389511Y-222523D01*
X389441Y-222497D01*
X389428Y-222499D01*
X389416Y-222495D01*
X389343Y-222508D01*
X389269Y-222515D01*
X389258Y-222522D01*
X389245Y-222525D01*
X389125Y-222606D01*
X382509Y-229222D01*
X382469Y-229286D01*
X382425Y-229348D01*
X382423Y-229360D01*
X382418Y-229369D01*
X382414Y-229406D01*
X382411Y-229421D01*
X382405Y-229435D01*
X382405Y-229451D01*
X382398Y-229491D01*
X382398Y-229885D01*
X380928Y-233433D01*
X378213Y-236148D01*
X374665Y-237618D01*
X370825Y-237618D01*
X367277Y-236148D01*
X364562Y-233433D01*
X363092Y-229885D01*
X363092Y-226045D01*
X364562Y-222497D01*
X367277Y-219782D01*
X370825Y-218312D01*
X374665Y-218312D01*
X376156Y-218930D01*
X376168Y-218932D01*
X376179Y-218939D01*
X376253Y-218946D01*
X376326Y-218958D01*
X376339Y-218954D01*
X376352Y-218955D01*
X376421Y-218929D01*
X376492Y-218907D01*
X376502Y-218898D01*
X376514Y-218894D01*
X376564Y-218839D01*
X376618Y-218788D01*
X376623Y-218776D01*
X376632Y-218766D01*
X376653Y-218695D01*
X376678Y-218626D01*
X376677Y-218613D01*
X376681Y-218600D01*
X376668Y-218527D01*
X376660Y-218453D01*
X376653Y-218442D01*
X376651Y-218430D01*
X376570Y-218309D01*
X375733Y-217473D01*
X375668Y-217433D01*
X375606Y-217389D01*
X375594Y-217387D01*
X375586Y-217381D01*
X375549Y-217378D01*
X375464Y-217361D01*
X368248Y-217361D01*
X368174Y-217379D01*
X368099Y-217392D01*
X368089Y-217398D01*
X368079Y-217401D01*
X368050Y-217424D01*
X367979Y-217473D01*
X366494Y-218958D01*
X364370Y-219838D01*
X362070Y-219838D01*
X359946Y-218958D01*
X358321Y-217332D01*
X357441Y-215208D01*
X357441Y-212909D01*
X358321Y-210785D01*
X358779Y-210327D01*
X358792Y-210305D01*
X358812Y-210289D01*
X358837Y-210232D01*
X358870Y-210180D01*
X358872Y-210154D01*
X358883Y-210130D01*
X358881Y-210069D01*
X358887Y-210007D01*
X358877Y-209983D01*
X358876Y-209957D01*
X358847Y-209903D01*
X358825Y-209845D01*
X358806Y-209828D01*
X358794Y-209805D01*
X358743Y-209770D01*
X358698Y-209728D01*
X358673Y-209720D01*
X358652Y-209705D01*
X358567Y-209689D01*
X358532Y-209678D01*
X358522Y-209680D01*
X358510Y-209678D01*
X352681Y-209678D01*
X352607Y-209695D01*
X352532Y-209708D01*
X352522Y-209715D01*
X352512Y-209717D01*
X352483Y-209741D01*
X352412Y-209789D01*
X350759Y-211442D01*
X350719Y-211506D01*
X350675Y-211568D01*
X350673Y-211580D01*
X350668Y-211589D01*
X350664Y-211626D01*
X350648Y-211711D01*
X350648Y-218631D01*
X350662Y-218693D01*
X350669Y-218756D01*
X350682Y-218776D01*
X350687Y-218800D01*
X350728Y-218849D01*
X350762Y-218902D01*
X350784Y-218917D01*
X350797Y-218933D01*
X350832Y-218949D01*
X350882Y-218982D01*
X352813Y-219782D01*
X355528Y-222497D01*
X356998Y-226045D01*
X356998Y-229885D01*
X355528Y-233433D01*
X352813Y-236148D01*
X349265Y-237618D01*
X345425Y-237618D01*
X341877Y-236148D01*
X339162Y-233433D01*
X337692Y-229885D01*
X337692Y-226045D01*
X339162Y-222497D01*
X341877Y-219782D01*
X343808Y-218982D01*
X343859Y-218945D01*
X343915Y-218915D01*
X343929Y-218895D01*
X343948Y-218881D01*
X343978Y-218825D01*
X344015Y-218773D01*
X344020Y-218747D01*
X344030Y-218728D01*
X344031Y-218690D01*
X344042Y-218631D01*
X344042Y-208817D01*
X347104Y-205755D01*
X347118Y-205733D01*
X347138Y-205717D01*
X347163Y-205660D01*
X347196Y-205608D01*
X347198Y-205582D01*
X347209Y-205558D01*
X347206Y-205497D01*
X347212Y-205435D01*
X347203Y-205411D01*
X347202Y-205385D01*
X347173Y-205331D01*
X347151Y-205273D01*
X347132Y-205256D01*
X347119Y-205233D01*
X347069Y-205198D01*
X347024Y-205156D01*
X346999Y-205148D01*
X346978Y-205133D01*
X346893Y-205117D01*
X346857Y-205106D01*
X346848Y-205108D01*
X346836Y-205106D01*
X331853Y-205106D01*
X331779Y-205123D01*
X331704Y-205136D01*
X331694Y-205143D01*
X331684Y-205145D01*
X331655Y-205169D01*
X331584Y-205217D01*
X325359Y-211442D01*
X325319Y-211506D01*
X325275Y-211568D01*
X325273Y-211580D01*
X325268Y-211589D01*
X325264Y-211626D01*
X325248Y-211711D01*
X325248Y-218631D01*
X325262Y-218693D01*
X325269Y-218756D01*
X325282Y-218776D01*
X325287Y-218800D01*
X325328Y-218849D01*
X325362Y-218902D01*
X325384Y-218917D01*
X325397Y-218933D01*
X325432Y-218949D01*
X325482Y-218982D01*
X327413Y-219782D01*
X330128Y-222497D01*
X331598Y-226045D01*
X331598Y-229885D01*
X330128Y-233433D01*
X327413Y-236148D01*
X323865Y-237618D01*
X320025Y-237618D01*
X316477Y-236148D01*
X313762Y-233433D01*
X312292Y-229885D01*
X312292Y-226045D01*
X313762Y-222497D01*
X316477Y-219782D01*
X318408Y-218982D01*
X318459Y-218945D01*
X318515Y-218915D01*
X318529Y-218895D01*
X318548Y-218881D01*
X318578Y-218825D01*
X318615Y-218773D01*
X318620Y-218747D01*
X318630Y-218728D01*
X318631Y-218690D01*
X318642Y-218631D01*
X318642Y-212611D01*
X318636Y-212586D01*
X318639Y-212560D01*
X318617Y-212502D01*
X318603Y-212442D01*
X318586Y-212422D01*
X318577Y-212398D01*
X318532Y-212356D01*
X318493Y-212308D01*
X318469Y-212298D01*
X318450Y-212280D01*
X318391Y-212263D01*
X318334Y-212237D01*
X318309Y-212238D01*
X318284Y-212231D01*
X318223Y-212242D01*
X318161Y-212244D01*
X318139Y-212256D01*
X318113Y-212261D01*
X318042Y-212309D01*
X318009Y-212327D01*
X318003Y-212335D01*
X317993Y-212342D01*
X316847Y-213488D01*
X303786Y-213488D01*
X303712Y-213505D01*
X303637Y-213518D01*
X303627Y-213525D01*
X303617Y-213527D01*
X303588Y-213551D01*
X303517Y-213599D01*
X299959Y-217157D01*
X299919Y-217221D01*
X299875Y-217283D01*
X299873Y-217295D01*
X299868Y-217304D01*
X299864Y-217341D01*
X299848Y-217426D01*
X299848Y-218631D01*
X299862Y-218693D01*
X299869Y-218756D01*
X299882Y-218776D01*
X299887Y-218800D01*
X299928Y-218849D01*
X299962Y-218902D01*
X299984Y-218917D01*
X299997Y-218933D01*
X300032Y-218949D01*
X300082Y-218982D01*
X302013Y-219782D01*
X304728Y-222497D01*
X306198Y-226045D01*
X306198Y-229885D01*
X304728Y-233433D01*
X302013Y-236148D01*
X298465Y-237618D01*
X294625Y-237618D01*
X291077Y-236148D01*
X288362Y-233433D01*
X286892Y-229885D01*
X286892Y-226045D01*
X288362Y-222497D01*
X289102Y-221757D01*
X289116Y-221735D01*
X289136Y-221719D01*
X289161Y-221662D01*
X289194Y-221610D01*
X289196Y-221584D01*
X289207Y-221560D01*
X289204Y-221499D01*
X289210Y-221437D01*
X289201Y-221413D01*
X289200Y-221387D01*
X289170Y-221333D01*
X289148Y-221275D01*
X289130Y-221258D01*
X289117Y-221235D01*
X289067Y-221200D01*
X289021Y-221158D01*
X288997Y-221150D01*
X288976Y-221135D01*
X288891Y-221119D01*
X288855Y-221108D01*
X288845Y-221110D01*
X288833Y-221108D01*
X279656Y-221108D01*
X279582Y-221125D01*
X279507Y-221138D01*
X279497Y-221145D01*
X279487Y-221147D01*
X279458Y-221171D01*
X279387Y-221219D01*
X278987Y-221619D01*
X278960Y-221662D01*
X278926Y-221699D01*
X278915Y-221735D01*
X278896Y-221766D01*
X278891Y-221816D01*
X278877Y-221865D01*
X278883Y-221902D01*
X278879Y-221938D01*
X278897Y-221986D01*
X278906Y-222036D01*
X278930Y-222072D01*
X278941Y-222100D01*
X278963Y-222121D01*
X278987Y-222156D01*
X279328Y-222497D01*
X280798Y-226045D01*
X280798Y-229885D01*
X279328Y-233433D01*
X276613Y-236148D01*
X273065Y-237618D01*
X269225Y-237618D01*
X265677Y-236148D01*
X262962Y-233433D01*
X261492Y-229885D01*
X261492Y-226045D01*
X262962Y-222497D01*
X265677Y-219782D01*
X269225Y-218312D01*
X272794Y-218312D01*
X272868Y-218295D01*
X272943Y-218282D01*
X272953Y-218275D01*
X272963Y-218273D01*
X272992Y-218249D01*
X273063Y-218201D01*
X274587Y-216677D01*
X274601Y-216655D01*
X274621Y-216639D01*
X274646Y-216582D01*
X274679Y-216530D01*
X274681Y-216504D01*
X274692Y-216480D01*
X274689Y-216419D01*
X274695Y-216357D01*
X274686Y-216333D01*
X274685Y-216307D01*
X274656Y-216253D01*
X274634Y-216195D01*
X274615Y-216178D01*
X274602Y-216155D01*
X274552Y-216120D01*
X274507Y-216078D01*
X274482Y-216070D01*
X274461Y-216055D01*
X274376Y-216039D01*
X274340Y-216028D01*
X274331Y-216030D01*
X274319Y-216028D01*
X252986Y-216028D01*
X252912Y-216045D01*
X252837Y-216058D01*
X252827Y-216065D01*
X252817Y-216067D01*
X252788Y-216091D01*
X252717Y-216139D01*
X250103Y-218753D01*
X250083Y-218786D01*
X250055Y-218812D01*
X250037Y-218858D01*
X250011Y-218900D01*
X250008Y-218938D01*
X249994Y-218975D01*
X250000Y-219024D01*
X249995Y-219073D01*
X250009Y-219109D01*
X250013Y-219147D01*
X250039Y-219188D01*
X250056Y-219235D01*
X250085Y-219261D01*
X250105Y-219293D01*
X250156Y-219327D01*
X250184Y-219352D01*
X250204Y-219358D01*
X250226Y-219373D01*
X251213Y-219782D01*
X253928Y-222497D01*
X255398Y-226045D01*
X255398Y-229885D01*
X253928Y-233433D01*
X251213Y-236148D01*
X247665Y-237618D01*
X243825Y-237618D01*
X240277Y-236148D01*
X237562Y-233433D01*
X236092Y-229885D01*
X236092Y-226045D01*
X237562Y-222497D01*
X240277Y-219782D01*
X242208Y-218982D01*
X242259Y-218945D01*
X242315Y-218915D01*
X242329Y-218895D01*
X242348Y-218881D01*
X242378Y-218825D01*
X242415Y-218773D01*
X242420Y-218747D01*
X242430Y-218728D01*
X242431Y-218690D01*
X242442Y-218631D01*
X242442Y-217072D01*
X248552Y-210962D01*
X248566Y-210940D01*
X248586Y-210924D01*
X248611Y-210867D01*
X248644Y-210815D01*
X248646Y-210789D01*
X248657Y-210765D01*
X248654Y-210704D01*
X248660Y-210642D01*
X248651Y-210618D01*
X248650Y-210592D01*
X248621Y-210538D01*
X248599Y-210480D01*
X248580Y-210463D01*
X248567Y-210440D01*
X248517Y-210405D01*
X248472Y-210363D01*
X248447Y-210355D01*
X248426Y-210340D01*
X248341Y-210324D01*
X248305Y-210313D01*
X248296Y-210315D01*
X248284Y-210313D01*
X242826Y-210313D01*
X242752Y-210330D01*
X242677Y-210343D01*
X242667Y-210350D01*
X242657Y-210352D01*
X242628Y-210376D01*
X242557Y-210424D01*
X229281Y-223700D01*
X229247Y-223754D01*
X229207Y-223804D01*
X229202Y-223827D01*
X229189Y-223847D01*
X229183Y-223911D01*
X229169Y-223973D01*
X229175Y-223999D01*
X229173Y-224020D01*
X229186Y-224055D01*
X229198Y-224115D01*
X229998Y-226045D01*
X229998Y-229885D01*
X228528Y-233433D01*
X225813Y-236148D01*
X222265Y-237618D01*
X218425Y-237618D01*
X214877Y-236148D01*
X212162Y-233433D01*
X210692Y-229885D01*
X210692Y-226045D01*
X212162Y-222497D01*
X212267Y-222392D01*
X212281Y-222370D01*
X212301Y-222354D01*
X212326Y-222297D01*
X212359Y-222245D01*
X212361Y-222219D01*
X212372Y-222195D01*
X212369Y-222134D01*
X212375Y-222072D01*
X212366Y-222048D01*
X212365Y-222022D01*
X212335Y-221968D01*
X212313Y-221910D01*
X212295Y-221893D01*
X212282Y-221870D01*
X212232Y-221835D01*
X212186Y-221793D01*
X212162Y-221785D01*
X212141Y-221770D01*
X212056Y-221754D01*
X212020Y-221743D01*
X212010Y-221745D01*
X211998Y-221743D01*
X205996Y-221743D01*
X205922Y-221760D01*
X205847Y-221773D01*
X205837Y-221780D01*
X205827Y-221782D01*
X205798Y-221806D01*
X205727Y-221854D01*
X203881Y-223700D01*
X203847Y-223754D01*
X203807Y-223804D01*
X203802Y-223827D01*
X203789Y-223847D01*
X203783Y-223911D01*
X203769Y-223973D01*
X203775Y-223999D01*
X203773Y-224020D01*
X203786Y-224055D01*
X203798Y-224115D01*
X204598Y-226045D01*
X204598Y-229885D01*
X203128Y-233433D01*
X200413Y-236148D01*
X196865Y-237618D01*
X193025Y-237618D01*
X189477Y-236148D01*
X186762Y-233433D01*
X185292Y-229885D01*
X185292Y-226045D01*
X186762Y-222497D01*
X189477Y-219782D01*
X193025Y-218312D01*
X196865Y-218312D01*
X198795Y-219112D01*
X198858Y-219122D01*
X198919Y-219140D01*
X198943Y-219136D01*
X198966Y-219140D01*
X199027Y-219121D01*
X199090Y-219111D01*
X199112Y-219095D01*
X199132Y-219089D01*
X199159Y-219063D01*
X199210Y-219029D01*
X200927Y-217312D01*
X200941Y-217290D01*
X200961Y-217274D01*
X200986Y-217217D01*
X201019Y-217165D01*
X201021Y-217139D01*
X201032Y-217115D01*
X201029Y-217054D01*
X201035Y-216992D01*
X201026Y-216968D01*
X201025Y-216942D01*
X200996Y-216888D01*
X200974Y-216830D01*
X200955Y-216813D01*
X200942Y-216790D01*
X200892Y-216755D01*
X200847Y-216713D01*
X200822Y-216705D01*
X200801Y-216690D01*
X200716Y-216674D01*
X200680Y-216663D01*
X200671Y-216665D01*
X200659Y-216663D01*
X175516Y-216663D01*
X175442Y-216680D01*
X175367Y-216693D01*
X175357Y-216700D01*
X175347Y-216702D01*
X175318Y-216726D01*
X175247Y-216774D01*
X173454Y-218567D01*
X173434Y-218600D01*
X173406Y-218626D01*
X173388Y-218672D01*
X173362Y-218714D01*
X173359Y-218752D01*
X173345Y-218789D01*
X173351Y-218838D01*
X173346Y-218887D01*
X173360Y-218923D01*
X173364Y-218961D01*
X173390Y-219002D01*
X173407Y-219049D01*
X173436Y-219075D01*
X173456Y-219107D01*
X173507Y-219141D01*
X173535Y-219166D01*
X173555Y-219172D01*
X173577Y-219187D01*
X175013Y-219782D01*
X177728Y-222497D01*
X179198Y-226045D01*
X179198Y-229885D01*
X177728Y-233433D01*
X175013Y-236148D01*
X171465Y-237618D01*
X167625Y-237618D01*
X164077Y-236148D01*
X161362Y-233433D01*
X159892Y-229885D01*
X159892Y-226045D01*
X161362Y-222497D01*
X164007Y-219852D01*
X164021Y-219830D01*
X164041Y-219814D01*
X164066Y-219757D01*
X164099Y-219705D01*
X164101Y-219679D01*
X164112Y-219655D01*
X164109Y-219594D01*
X164115Y-219532D01*
X164106Y-219508D01*
X164105Y-219482D01*
X164075Y-219428D01*
X164053Y-219370D01*
X164035Y-219353D01*
X164022Y-219330D01*
X163972Y-219295D01*
X163926Y-219253D01*
X163902Y-219245D01*
X163881Y-219230D01*
X163796Y-219214D01*
X163760Y-219203D01*
X163750Y-219205D01*
X163738Y-219203D01*
X149952Y-219203D01*
X149927Y-219209D01*
X149901Y-219206D01*
X149843Y-219228D01*
X149783Y-219242D01*
X149763Y-219259D01*
X149739Y-219268D01*
X149697Y-219313D01*
X149649Y-219352D01*
X149639Y-219376D01*
X149621Y-219395D01*
X149604Y-219454D01*
X149578Y-219511D01*
X149579Y-219536D01*
X149572Y-219561D01*
X149583Y-219622D01*
X149585Y-219684D01*
X149597Y-219706D01*
X149602Y-219732D01*
X149650Y-219803D01*
X149668Y-219836D01*
X149676Y-219842D01*
X149683Y-219852D01*
X152328Y-222497D01*
X153798Y-226045D01*
X153798Y-229885D01*
X152328Y-233433D01*
X149613Y-236148D01*
X146065Y-237618D01*
X142225Y-237618D01*
G37*
%LPD*%
G36*
X166762Y104853D02*
X166762Y104853D01*
X166788Y104854D01*
X166843Y104884D01*
X166900Y104906D01*
X166918Y104925D01*
X166940Y104937D01*
X166976Y104987D01*
X167018Y105033D01*
X167025Y105058D01*
X167040Y105079D01*
X167057Y105163D01*
X167067Y105199D01*
X167065Y105209D01*
X167068Y105221D01*
X167068Y127289D01*
X178337Y138558D01*
X183894Y138558D01*
X183968Y138575D01*
X184043Y138588D01*
X184053Y138595D01*
X184063Y138597D01*
X184092Y138621D01*
X184163Y138669D01*
X187086Y141592D01*
X187126Y141656D01*
X187170Y141718D01*
X187172Y141730D01*
X187177Y141739D01*
X187181Y141776D01*
X187197Y141861D01*
X187197Y143610D01*
X187183Y143672D01*
X187176Y143735D01*
X187163Y143756D01*
X187158Y143779D01*
X187117Y143828D01*
X187083Y143882D01*
X187061Y143896D01*
X187048Y143913D01*
X187013Y143928D01*
X186963Y143962D01*
X184782Y144865D01*
X183157Y146490D01*
X182277Y148614D01*
X182277Y150914D01*
X183157Y153038D01*
X184782Y154663D01*
X186906Y155543D01*
X189206Y155543D01*
X191330Y154663D01*
X191628Y154365D01*
X191650Y154351D01*
X191666Y154331D01*
X191723Y154306D01*
X191775Y154274D01*
X191801Y154271D01*
X191825Y154261D01*
X191886Y154263D01*
X191948Y154257D01*
X191972Y154266D01*
X191998Y154267D01*
X192052Y154297D01*
X192110Y154319D01*
X192127Y154338D01*
X192150Y154350D01*
X192185Y154400D01*
X192227Y154446D01*
X192235Y154470D01*
X192250Y154492D01*
X192266Y154576D01*
X192277Y154612D01*
X192275Y154622D01*
X192277Y154634D01*
X192277Y180011D01*
X192271Y180036D01*
X192274Y180062D01*
X192252Y180120D01*
X192238Y180180D01*
X192221Y180200D01*
X192212Y180224D01*
X192167Y180266D01*
X192128Y180314D01*
X192104Y180324D01*
X192085Y180342D01*
X192026Y180359D01*
X191969Y180384D01*
X191944Y180384D01*
X191919Y180391D01*
X191858Y180380D01*
X191796Y180378D01*
X191774Y180366D01*
X191748Y180361D01*
X191677Y180313D01*
X191644Y180295D01*
X191638Y180287D01*
X191628Y180280D01*
X191234Y179886D01*
X189110Y179006D01*
X186810Y179006D01*
X184686Y179886D01*
X183201Y181371D01*
X183136Y181411D01*
X183074Y181455D01*
X183062Y181457D01*
X183054Y181462D01*
X183017Y181466D01*
X182932Y181482D01*
X161192Y181482D01*
X156082Y186592D01*
X156082Y199134D01*
X156065Y199208D01*
X156052Y199283D01*
X156045Y199293D01*
X156043Y199303D01*
X156019Y199332D01*
X155971Y199403D01*
X154953Y200421D01*
X154889Y200461D01*
X154827Y200505D01*
X154815Y200507D01*
X154806Y200512D01*
X154769Y200516D01*
X154684Y200532D01*
X153572Y200532D01*
X146877Y207227D01*
X146823Y207261D01*
X146773Y207301D01*
X146750Y207306D01*
X146730Y207319D01*
X146666Y207325D01*
X146604Y207339D01*
X146578Y207333D01*
X146557Y207335D01*
X146522Y207322D01*
X146462Y207310D01*
X145430Y206882D01*
X141590Y206882D01*
X138042Y208352D01*
X135327Y211067D01*
X133857Y214615D01*
X133857Y218455D01*
X135327Y222003D01*
X138042Y224718D01*
X139514Y225328D01*
X139524Y225335D01*
X139537Y225338D01*
X139594Y225385D01*
X139655Y225429D01*
X139661Y225440D01*
X139671Y225448D01*
X139701Y225516D01*
X139736Y225582D01*
X139736Y225595D01*
X139742Y225607D01*
X139739Y225681D01*
X139741Y225755D01*
X139735Y225767D01*
X139735Y225780D01*
X139700Y225845D01*
X139668Y225912D01*
X139658Y225921D01*
X139652Y225932D01*
X139592Y225974D01*
X139534Y226021D01*
X139521Y226024D01*
X139510Y226032D01*
X139368Y226059D01*
X122252Y226059D01*
X122239Y226056D01*
X122226Y226058D01*
X122155Y226037D01*
X122083Y226020D01*
X122073Y226012D01*
X122061Y226008D01*
X122007Y225957D01*
X121949Y225910D01*
X121944Y225898D01*
X121935Y225889D01*
X121909Y225819D01*
X121878Y225751D01*
X121879Y225738D01*
X121874Y225726D01*
X121882Y225653D01*
X121885Y225578D01*
X121891Y225567D01*
X121893Y225554D01*
X121932Y225491D01*
X121968Y225426D01*
X121978Y225419D01*
X121985Y225408D01*
X122106Y225328D01*
X123578Y224718D01*
X126293Y222003D01*
X127763Y218455D01*
X127763Y214615D01*
X126293Y211067D01*
X125952Y210726D01*
X125925Y210683D01*
X125891Y210645D01*
X125880Y210610D01*
X125861Y210579D01*
X125856Y210528D01*
X125842Y210479D01*
X125848Y210443D01*
X125844Y210407D01*
X125862Y210359D01*
X125871Y210309D01*
X125895Y210273D01*
X125906Y210245D01*
X125928Y210224D01*
X125952Y210189D01*
X136653Y199488D01*
X136653Y182147D01*
X130845Y176339D01*
X120514Y176339D01*
X120440Y176321D01*
X120365Y176308D01*
X120355Y176302D01*
X120345Y176299D01*
X120316Y176276D01*
X120245Y176227D01*
X119086Y175069D01*
X102427Y175069D01*
X102353Y175051D01*
X102278Y175038D01*
X102268Y175032D01*
X102258Y175029D01*
X102230Y175006D01*
X102158Y174957D01*
X93838Y166637D01*
X93798Y166573D01*
X93754Y166511D01*
X93752Y166499D01*
X93747Y166490D01*
X93743Y166453D01*
X93734Y166405D01*
X93734Y166404D01*
X93727Y166368D01*
X93727Y159056D01*
X91681Y157010D01*
X91362Y156691D01*
X91353Y156677D01*
X91352Y156677D01*
X91351Y156673D01*
X91321Y156626D01*
X91278Y156564D01*
X91276Y156552D01*
X91270Y156543D01*
X91267Y156506D01*
X91250Y156422D01*
X91250Y108639D01*
X91268Y108565D01*
X91281Y108490D01*
X91287Y108480D01*
X91290Y108470D01*
X91313Y108441D01*
X91362Y108370D01*
X93701Y106030D01*
X93766Y105990D01*
X93828Y105946D01*
X93840Y105944D01*
X93849Y105939D01*
X93886Y105935D01*
X93970Y105919D01*
X134071Y105919D01*
X134145Y105936D01*
X134220Y105949D01*
X134230Y105956D01*
X134240Y105958D01*
X134269Y105982D01*
X134340Y106030D01*
X138053Y109743D01*
X138084Y109744D01*
X138103Y109754D01*
X138130Y109759D01*
X138140Y109766D01*
X138150Y109768D01*
X138179Y109792D01*
X138207Y109811D01*
X138236Y109827D01*
X138241Y109834D01*
X138250Y109840D01*
X138252Y109842D01*
X138265Y109863D01*
X138284Y109878D01*
X138304Y109923D01*
X138336Y109968D01*
X138338Y109980D01*
X138343Y109989D01*
X138346Y110017D01*
X138355Y110037D01*
X138354Y110062D01*
X138363Y110111D01*
X138363Y113190D01*
X144427Y119254D01*
X153002Y119254D01*
X155048Y117208D01*
X157020Y115236D01*
X159066Y113190D01*
X159066Y109093D01*
X159077Y109043D01*
X159079Y108992D01*
X159097Y108960D01*
X159105Y108924D01*
X159138Y108885D01*
X159162Y108840D01*
X159192Y108819D01*
X159215Y108791D01*
X159262Y108770D01*
X159304Y108740D01*
X159346Y108732D01*
X159374Y108720D01*
X159404Y108721D01*
X159446Y108713D01*
X162658Y108713D01*
X166419Y104952D01*
X166441Y104939D01*
X166457Y104919D01*
X166513Y104893D01*
X166566Y104861D01*
X166591Y104858D01*
X166615Y104848D01*
X166677Y104850D01*
X166738Y104844D01*
X166762Y104853D01*
G37*
%LPC*%
G36*
X97910Y-121984D02*
X97910Y-121984D01*
X96907Y-121569D01*
X96905Y-121568D01*
X96904Y-121567D01*
X96762Y-121540D01*
X64356Y-121540D01*
X56260Y-113444D01*
X56260Y-23081D01*
X60784Y-18557D01*
X60824Y-18493D01*
X60868Y-18431D01*
X60870Y-18418D01*
X60876Y-18410D01*
X60879Y-18373D01*
X60896Y-18288D01*
X60896Y-17265D01*
X61776Y-15141D01*
X63401Y-13516D01*
X65525Y-12636D01*
X67825Y-12636D01*
X69949Y-13516D01*
X70672Y-14239D01*
X70737Y-14279D01*
X70799Y-14323D01*
X70811Y-14325D01*
X70819Y-14330D01*
X70856Y-14334D01*
X70941Y-14350D01*
X91504Y-14350D01*
X91578Y-14333D01*
X91653Y-14320D01*
X91663Y-14313D01*
X91673Y-14311D01*
X91701Y-14287D01*
X91773Y-14239D01*
X97424Y-8588D01*
X97464Y-8523D01*
X97508Y-8461D01*
X97510Y-8449D01*
X97515Y-8441D01*
X97519Y-8404D01*
X97535Y-8319D01*
X97535Y16289D01*
X108171Y26925D01*
X115570Y26925D01*
X115620Y26936D01*
X115671Y26938D01*
X115703Y26956D01*
X115739Y26964D01*
X115778Y26997D01*
X115823Y27021D01*
X115844Y27051D01*
X115872Y27074D01*
X115893Y27121D01*
X115923Y27163D01*
X115931Y27205D01*
X115943Y27233D01*
X115942Y27263D01*
X115950Y27305D01*
X115950Y44058D01*
X115933Y44132D01*
X115920Y44206D01*
X115913Y44217D01*
X115911Y44226D01*
X115887Y44255D01*
X115839Y44327D01*
X115116Y45050D01*
X114236Y47174D01*
X114236Y49473D01*
X115116Y51597D01*
X116741Y53223D01*
X118865Y54103D01*
X121165Y54103D01*
X123289Y53223D01*
X124914Y51597D01*
X125794Y49473D01*
X125794Y47174D01*
X124914Y45050D01*
X124191Y44327D01*
X124151Y44262D01*
X124107Y44200D01*
X124105Y44188D01*
X124100Y44179D01*
X124096Y44142D01*
X124080Y44058D01*
X124080Y23081D01*
X119794Y18795D01*
X111696Y18795D01*
X111622Y18778D01*
X111547Y18765D01*
X111537Y18758D01*
X111527Y18756D01*
X111499Y18732D01*
X111427Y18684D01*
X105776Y13033D01*
X105736Y12968D01*
X105692Y12906D01*
X105690Y12894D01*
X105685Y12885D01*
X105681Y12848D01*
X105665Y12764D01*
X105665Y-11844D01*
X103172Y-14336D01*
X97521Y-19987D01*
X95029Y-22480D01*
X70941Y-22480D01*
X70867Y-22497D01*
X70792Y-22510D01*
X70782Y-22517D01*
X70772Y-22519D01*
X70743Y-22543D01*
X70672Y-22591D01*
X69949Y-23314D01*
X67825Y-24194D01*
X66802Y-24194D01*
X66728Y-24212D01*
X66653Y-24225D01*
X66643Y-24231D01*
X66633Y-24234D01*
X66604Y-24257D01*
X66533Y-24306D01*
X64501Y-26337D01*
X64461Y-26402D01*
X64417Y-26464D01*
X64415Y-26476D01*
X64410Y-26485D01*
X64406Y-26522D01*
X64390Y-26606D01*
X64390Y-109919D01*
X64407Y-109993D01*
X64420Y-110068D01*
X64427Y-110078D01*
X64429Y-110088D01*
X64453Y-110116D01*
X64501Y-110188D01*
X67612Y-113299D01*
X67677Y-113339D01*
X67739Y-113383D01*
X67751Y-113385D01*
X67760Y-113390D01*
X67797Y-113394D01*
X67881Y-113410D01*
X93708Y-113410D01*
X93770Y-113396D01*
X93833Y-113389D01*
X93853Y-113376D01*
X93877Y-113371D01*
X93926Y-113330D01*
X93980Y-113296D01*
X93994Y-113274D01*
X94011Y-113261D01*
X94026Y-113226D01*
X94059Y-113176D01*
X94161Y-112931D01*
X95786Y-111306D01*
X97910Y-110426D01*
X100210Y-110426D01*
X102334Y-111306D01*
X103959Y-112931D01*
X104839Y-115055D01*
X104839Y-117355D01*
X103959Y-119479D01*
X102334Y-121104D01*
X100210Y-121984D01*
X97910Y-121984D01*
G37*
%LPD*%
%LPC*%
G36*
X237708Y118617D02*
X237708Y118617D01*
X235662Y120663D01*
X234836Y121489D01*
X234772Y121529D01*
X234710Y121573D01*
X234698Y121575D01*
X234689Y121580D01*
X234652Y121584D01*
X234567Y121600D01*
X232467Y121600D01*
X230343Y122480D01*
X228717Y124106D01*
X227837Y126230D01*
X227837Y128529D01*
X228717Y130653D01*
X230343Y132279D01*
X232467Y133159D01*
X234766Y133159D01*
X236890Y132279D01*
X238516Y130653D01*
X239396Y128529D01*
X239396Y126429D01*
X239413Y126355D01*
X239426Y126280D01*
X239433Y126270D01*
X239435Y126260D01*
X239459Y126231D01*
X239507Y126160D01*
X240333Y125334D01*
X240397Y125294D01*
X240459Y125250D01*
X240471Y125248D01*
X240480Y125243D01*
X240517Y125239D01*
X240602Y125223D01*
X246124Y125223D01*
X246198Y125240D01*
X246273Y125253D01*
X246283Y125260D01*
X246293Y125262D01*
X246322Y125286D01*
X246393Y125334D01*
X249316Y128257D01*
X251362Y130303D01*
X308354Y130303D01*
X308428Y130320D01*
X308503Y130333D01*
X308513Y130340D01*
X308523Y130342D01*
X308552Y130366D01*
X308623Y130414D01*
X323117Y144908D01*
X364869Y144908D01*
X364943Y144925D01*
X365018Y144938D01*
X365028Y144945D01*
X365038Y144947D01*
X365067Y144971D01*
X365138Y145019D01*
X366791Y146672D01*
X366804Y146693D01*
X366824Y146709D01*
X366844Y146755D01*
X366875Y146798D01*
X366877Y146810D01*
X366882Y146819D01*
X366885Y146846D01*
X366895Y146867D01*
X366893Y146895D01*
X366902Y146941D01*
X366902Y156897D01*
X366885Y156971D01*
X366872Y157046D01*
X366865Y157056D01*
X366863Y157066D01*
X366839Y157095D01*
X366791Y157166D01*
X365306Y158651D01*
X364426Y160775D01*
X364426Y163075D01*
X365306Y165199D01*
X366931Y166824D01*
X369055Y167704D01*
X371355Y167704D01*
X373479Y166824D01*
X375104Y165199D01*
X375984Y163075D01*
X375984Y160775D01*
X375104Y158651D01*
X373619Y157166D01*
X373579Y157101D01*
X373535Y157039D01*
X373533Y157027D01*
X373528Y157019D01*
X373524Y156982D01*
X373508Y156897D01*
X373508Y144047D01*
X367763Y138302D01*
X326011Y138302D01*
X325937Y138285D01*
X325862Y138272D01*
X325852Y138265D01*
X325842Y138263D01*
X325813Y138239D01*
X325742Y138191D01*
X311248Y123697D01*
X254256Y123697D01*
X254182Y123680D01*
X254107Y123667D01*
X254097Y123660D01*
X254087Y123658D01*
X254058Y123634D01*
X253987Y123586D01*
X251064Y120663D01*
X249018Y118617D01*
X237708Y118617D01*
G37*
%LPD*%
%LPC*%
G36*
X256660Y21526D02*
X256660Y21526D01*
X254536Y22406D01*
X252911Y24031D01*
X252031Y26155D01*
X252031Y28455D01*
X252911Y30579D01*
X254396Y32064D01*
X254436Y32129D01*
X254480Y32191D01*
X254482Y32203D01*
X254487Y32211D01*
X254491Y32248D01*
X254507Y32333D01*
X254507Y100074D01*
X254490Y100148D01*
X254477Y100223D01*
X254470Y100233D01*
X254468Y100243D01*
X254444Y100272D01*
X254396Y100343D01*
X250838Y103901D01*
X250774Y103941D01*
X250712Y103985D01*
X250700Y103987D01*
X250691Y103992D01*
X250654Y103996D01*
X250569Y104012D01*
X245693Y104012D01*
X245619Y103995D01*
X245544Y103982D01*
X245534Y103975D01*
X245524Y103973D01*
X245495Y103949D01*
X245424Y103901D01*
X243939Y102416D01*
X241815Y101536D01*
X239515Y101536D01*
X237391Y102416D01*
X235766Y104041D01*
X234886Y106165D01*
X234886Y108465D01*
X235766Y110589D01*
X237391Y112214D01*
X239515Y113094D01*
X241815Y113094D01*
X243939Y112214D01*
X245424Y110729D01*
X245489Y110689D01*
X245551Y110645D01*
X245563Y110643D01*
X245571Y110638D01*
X245608Y110634D01*
X245693Y110618D01*
X253463Y110618D01*
X261113Y102968D01*
X261113Y32333D01*
X261130Y32259D01*
X261143Y32184D01*
X261150Y32174D01*
X261152Y32164D01*
X261176Y32135D01*
X261224Y32064D01*
X262709Y30579D01*
X263589Y28455D01*
X263589Y26155D01*
X262709Y24031D01*
X261084Y22406D01*
X258960Y21526D01*
X256660Y21526D01*
G37*
%LPD*%
%LPC*%
G36*
X248460Y-103569D02*
X248460Y-103569D01*
X246336Y-102689D01*
X244851Y-101204D01*
X244786Y-101164D01*
X244724Y-101120D01*
X244712Y-101118D01*
X244704Y-101113D01*
X244667Y-101109D01*
X244582Y-101093D01*
X237392Y-101093D01*
X222734Y-86435D01*
X222690Y-86408D01*
X222653Y-86373D01*
X222618Y-86363D01*
X222587Y-86343D01*
X222536Y-86338D01*
X222487Y-86324D01*
X222451Y-86330D01*
X222414Y-86327D01*
X222366Y-86345D01*
X222316Y-86354D01*
X222281Y-86377D01*
X222252Y-86388D01*
X222231Y-86411D01*
X222196Y-86435D01*
X219857Y-88774D01*
X196703Y-88774D01*
X193801Y-85872D01*
X193801Y-75418D01*
X196703Y-72516D01*
X219857Y-72516D01*
X222759Y-75418D01*
X222759Y-76962D01*
X222770Y-77012D01*
X222772Y-77063D01*
X222787Y-77090D01*
X222791Y-77111D01*
X222795Y-77117D01*
X222798Y-77131D01*
X222831Y-77170D01*
X222855Y-77215D01*
X222866Y-77223D01*
X222872Y-77231D01*
X240017Y-94376D01*
X240081Y-94416D01*
X240143Y-94460D01*
X240155Y-94462D01*
X240164Y-94467D01*
X240201Y-94471D01*
X240286Y-94487D01*
X244582Y-94487D01*
X244656Y-94470D01*
X244731Y-94457D01*
X244741Y-94450D01*
X244751Y-94448D01*
X244780Y-94424D01*
X244851Y-94376D01*
X246336Y-92891D01*
X248460Y-92011D01*
X250760Y-92011D01*
X252884Y-92891D01*
X254509Y-94516D01*
X255389Y-96640D01*
X255389Y-98940D01*
X254509Y-101064D01*
X252884Y-102689D01*
X250760Y-103569D01*
X248460Y-103569D01*
G37*
%LPD*%
%LPC*%
G36*
X248460Y-116269D02*
X248460Y-116269D01*
X246336Y-115389D01*
X244851Y-113904D01*
X244786Y-113864D01*
X244724Y-113820D01*
X244712Y-113818D01*
X244704Y-113813D01*
X244667Y-113809D01*
X244582Y-113793D01*
X234217Y-113793D01*
X224004Y-103580D01*
X223960Y-103553D01*
X223923Y-103518D01*
X223888Y-103508D01*
X223857Y-103488D01*
X223806Y-103483D01*
X223757Y-103469D01*
X223721Y-103475D01*
X223684Y-103472D01*
X223636Y-103490D01*
X223586Y-103499D01*
X223551Y-103522D01*
X223522Y-103533D01*
X223501Y-103556D01*
X223466Y-103580D01*
X220492Y-106554D01*
X197338Y-106554D01*
X194436Y-103652D01*
X194436Y-93198D01*
X197338Y-90296D01*
X220492Y-90296D01*
X223394Y-93198D01*
X223394Y-94742D01*
X223405Y-94792D01*
X223407Y-94843D01*
X223425Y-94875D01*
X223433Y-94911D01*
X223466Y-94950D01*
X223490Y-94995D01*
X223520Y-95016D01*
X223543Y-95044D01*
X223590Y-95065D01*
X223632Y-95095D01*
X223674Y-95103D01*
X223702Y-95115D01*
X223732Y-95114D01*
X223774Y-95122D01*
X224888Y-95122D01*
X236842Y-107076D01*
X236906Y-107116D01*
X236968Y-107160D01*
X236980Y-107162D01*
X236989Y-107167D01*
X237026Y-107171D01*
X237111Y-107187D01*
X244582Y-107187D01*
X244656Y-107170D01*
X244731Y-107157D01*
X244741Y-107150D01*
X244751Y-107148D01*
X244780Y-107124D01*
X244851Y-107076D01*
X246336Y-105591D01*
X248460Y-104711D01*
X250760Y-104711D01*
X252884Y-105591D01*
X254509Y-107216D01*
X255389Y-109340D01*
X255389Y-111640D01*
X254509Y-113764D01*
X252884Y-115389D01*
X250760Y-116269D01*
X248460Y-116269D01*
G37*
%LPD*%
%LPC*%
G36*
X238245Y29146D02*
X238245Y29146D01*
X236121Y30026D01*
X234496Y31651D01*
X233616Y33775D01*
X233616Y36075D01*
X234496Y38199D01*
X234609Y38312D01*
X234620Y38330D01*
X234630Y38338D01*
X234640Y38360D01*
X234671Y38393D01*
X234681Y38428D01*
X234701Y38459D01*
X234705Y38510D01*
X234720Y38559D01*
X234714Y38595D01*
X234717Y38632D01*
X234699Y38680D01*
X234690Y38730D01*
X234666Y38765D01*
X234656Y38794D01*
X234633Y38815D01*
X234609Y38850D01*
X234328Y39131D01*
X234264Y39171D01*
X234202Y39215D01*
X234190Y39217D01*
X234181Y39222D01*
X234144Y39226D01*
X234059Y39242D01*
X227586Y39242D01*
X227512Y39225D01*
X227437Y39212D01*
X227427Y39205D01*
X227417Y39203D01*
X227388Y39179D01*
X227317Y39131D01*
X223618Y35432D01*
X200562Y35432D01*
X194182Y41812D01*
X194182Y51487D01*
X194165Y51561D01*
X194159Y51596D01*
X194159Y51598D01*
X194158Y51598D01*
X194152Y51636D01*
X194145Y51646D01*
X194143Y51656D01*
X194119Y51685D01*
X194081Y51742D01*
X194076Y51750D01*
X194074Y51751D01*
X194071Y51756D01*
X192586Y53241D01*
X191706Y55365D01*
X191706Y57665D01*
X192586Y59789D01*
X194211Y61414D01*
X196335Y62294D01*
X198635Y62294D01*
X200759Y61414D01*
X202384Y59789D01*
X203264Y57665D01*
X203264Y55365D01*
X202384Y53241D01*
X200899Y51756D01*
X200888Y51738D01*
X200875Y51728D01*
X200860Y51693D01*
X200859Y51691D01*
X200815Y51629D01*
X200813Y51617D01*
X200808Y51609D01*
X200804Y51572D01*
X200788Y51487D01*
X200788Y44706D01*
X200805Y44632D01*
X200818Y44557D01*
X200825Y44547D01*
X200827Y44537D01*
X200851Y44508D01*
X200899Y44437D01*
X203187Y42149D01*
X203251Y42109D01*
X203313Y42065D01*
X203325Y42063D01*
X203334Y42058D01*
X203371Y42054D01*
X203456Y42038D01*
X220724Y42038D01*
X220798Y42055D01*
X220873Y42068D01*
X220883Y42075D01*
X220893Y42077D01*
X220922Y42101D01*
X220993Y42149D01*
X224692Y45848D01*
X236953Y45848D01*
X242698Y40103D01*
X242698Y39953D01*
X242715Y39879D01*
X242728Y39804D01*
X242735Y39794D01*
X242737Y39784D01*
X242761Y39755D01*
X242809Y39684D01*
X244294Y38199D01*
X245174Y36075D01*
X245174Y33775D01*
X244294Y31651D01*
X242669Y30026D01*
X240545Y29146D01*
X238245Y29146D01*
G37*
%LPD*%
%LPC*%
G36*
X217296Y43122D02*
X217296Y43122D01*
X215172Y44002D01*
X213547Y45627D01*
X212667Y47751D01*
X212667Y50051D01*
X213547Y52175D01*
X215032Y53660D01*
X215072Y53725D01*
X215116Y53787D01*
X215118Y53799D01*
X215123Y53807D01*
X215127Y53844D01*
X215143Y53929D01*
X215143Y86464D01*
X217189Y88510D01*
X219471Y90792D01*
X221517Y92838D01*
X229426Y92838D01*
X229475Y92849D01*
X229526Y92851D01*
X229558Y92869D01*
X229594Y92877D01*
X229634Y92910D01*
X229678Y92934D01*
X229700Y92964D01*
X229728Y92987D01*
X229749Y93034D01*
X229778Y93076D01*
X229786Y93118D01*
X229799Y93146D01*
X229798Y93176D01*
X229806Y93218D01*
X229806Y93860D01*
X230686Y95984D01*
X232311Y97609D01*
X234435Y98489D01*
X236735Y98489D01*
X238859Y97609D01*
X240484Y95984D01*
X241364Y93860D01*
X241364Y91560D01*
X240484Y89436D01*
X238859Y87811D01*
X236735Y86931D01*
X234634Y86931D01*
X234560Y86913D01*
X234485Y86900D01*
X234475Y86894D01*
X234465Y86891D01*
X234437Y86868D01*
X234365Y86819D01*
X233778Y86232D01*
X224411Y86232D01*
X224337Y86215D01*
X224262Y86202D01*
X224252Y86195D01*
X224242Y86193D01*
X224213Y86169D01*
X224142Y86121D01*
X221860Y83839D01*
X221820Y83775D01*
X221776Y83713D01*
X221774Y83701D01*
X221769Y83692D01*
X221765Y83655D01*
X221749Y83571D01*
X221749Y53929D01*
X221766Y53855D01*
X221779Y53780D01*
X221786Y53770D01*
X221788Y53760D01*
X221812Y53731D01*
X221860Y53660D01*
X223345Y52175D01*
X224225Y50051D01*
X224225Y47751D01*
X223345Y45627D01*
X221720Y44002D01*
X219596Y43122D01*
X217296Y43122D01*
G37*
%LPD*%
%LPC*%
G36*
X422128Y-119254D02*
X422128Y-119254D01*
X419226Y-116352D01*
X419226Y-105898D01*
X422128Y-102996D01*
X445282Y-102996D01*
X448184Y-105898D01*
X448184Y-116352D01*
X445282Y-119254D01*
X422128Y-119254D01*
G37*
%LPD*%
%LPC*%
G36*
X422128Y-136399D02*
X422128Y-136399D01*
X419226Y-133497D01*
X419226Y-123043D01*
X422128Y-120141D01*
X445282Y-120141D01*
X448184Y-123043D01*
X448184Y-133497D01*
X445282Y-136399D01*
X422128Y-136399D01*
G37*
%LPD*%
%LPC*%
G36*
X422128Y-170689D02*
X422128Y-170689D01*
X419226Y-167787D01*
X419226Y-157333D01*
X422128Y-154431D01*
X445282Y-154431D01*
X448184Y-157333D01*
X448184Y-167787D01*
X445282Y-170689D01*
X422128Y-170689D01*
G37*
%LPD*%
%LPC*%
G36*
X422128Y-153544D02*
X422128Y-153544D01*
X419226Y-150642D01*
X419226Y-140188D01*
X422128Y-137286D01*
X445282Y-137286D01*
X448184Y-140188D01*
X448184Y-150642D01*
X445282Y-153544D01*
X422128Y-153544D01*
G37*
%LPD*%
%LPC*%
G36*
X422128Y-102109D02*
X422128Y-102109D01*
X419226Y-99207D01*
X419226Y-88753D01*
X422128Y-85851D01*
X445282Y-85851D01*
X448184Y-88753D01*
X448184Y-99207D01*
X445282Y-102109D01*
X422128Y-102109D01*
G37*
%LPD*%
%LPC*%
G36*
X422128Y-84964D02*
X422128Y-84964D01*
X419226Y-82062D01*
X419226Y-71608D01*
X422128Y-68706D01*
X445282Y-68706D01*
X448184Y-71608D01*
X448184Y-82062D01*
X445282Y-84964D01*
X422128Y-84964D01*
G37*
%LPD*%
%LPC*%
G36*
X175779Y-199391D02*
X175779Y-199391D01*
X172044Y-197844D01*
X169186Y-194986D01*
X167639Y-191251D01*
X167639Y-187209D01*
X169186Y-183474D01*
X172044Y-180616D01*
X175779Y-179069D01*
X179821Y-179069D01*
X183556Y-180616D01*
X186414Y-183474D01*
X187961Y-187209D01*
X187961Y-191251D01*
X186414Y-194986D01*
X183556Y-197844D01*
X179821Y-199391D01*
X175779Y-199391D01*
G37*
%LPD*%
%LPC*%
G36*
X124979Y-199391D02*
X124979Y-199391D01*
X121244Y-197844D01*
X118386Y-194986D01*
X116839Y-191251D01*
X116839Y-187209D01*
X118386Y-183474D01*
X121244Y-180616D01*
X124979Y-179069D01*
X129021Y-179069D01*
X132756Y-180616D01*
X135614Y-183474D01*
X137161Y-187209D01*
X137161Y-191251D01*
X135614Y-194986D01*
X132756Y-197844D01*
X129021Y-199391D01*
X124979Y-199391D01*
G37*
%LPD*%
%LPC*%
G36*
X150379Y-199391D02*
X150379Y-199391D01*
X146644Y-197844D01*
X143786Y-194986D01*
X142239Y-191251D01*
X142239Y-187209D01*
X143786Y-183474D01*
X146644Y-180616D01*
X150379Y-179069D01*
X154421Y-179069D01*
X158156Y-180616D01*
X161014Y-183474D01*
X162561Y-187209D01*
X162561Y-191251D01*
X161014Y-194986D01*
X158156Y-197844D01*
X154421Y-199391D01*
X150379Y-199391D01*
G37*
%LPD*%
%LPC*%
G36*
X116825Y-237618D02*
X116825Y-237618D01*
X113277Y-236148D01*
X110562Y-233433D01*
X109092Y-229885D01*
X109092Y-226045D01*
X110562Y-222497D01*
X113277Y-219782D01*
X116825Y-218312D01*
X120665Y-218312D01*
X124213Y-219782D01*
X126928Y-222497D01*
X128398Y-226045D01*
X128398Y-229885D01*
X126928Y-233433D01*
X124213Y-236148D01*
X120665Y-237618D01*
X116825Y-237618D01*
G37*
%LPD*%
%LPC*%
G36*
X80249Y-95514D02*
X80249Y-95514D01*
X77929Y-94553D01*
X77927Y-94552D01*
X77926Y-94551D01*
X77784Y-94524D01*
X76978Y-94524D01*
X76924Y-94536D01*
X76869Y-94540D01*
X76836Y-94557D01*
X76809Y-94563D01*
X76784Y-94584D01*
X76758Y-94598D01*
X76123Y-94526D01*
X76105Y-94528D01*
X76081Y-94524D01*
X75474Y-94524D01*
X75461Y-94527D01*
X75449Y-94525D01*
X75317Y-94559D01*
X74835Y-94391D01*
X74800Y-94387D01*
X74752Y-94372D01*
X74231Y-94313D01*
X74227Y-94310D01*
X74192Y-94270D01*
X74159Y-94257D01*
X74132Y-94235D01*
X74080Y-94224D01*
X74031Y-94204D01*
X73991Y-94205D01*
X73963Y-94199D01*
X73932Y-94207D01*
X73931Y-94207D01*
X73490Y-93930D01*
X73458Y-93919D01*
X73414Y-93893D01*
X72919Y-93720D01*
X72916Y-93716D01*
X72890Y-93669D01*
X72862Y-93649D01*
X72840Y-93622D01*
X72792Y-93600D01*
X72749Y-93570D01*
X72709Y-93562D01*
X72683Y-93550D01*
X72651Y-93551D01*
X72650Y-93551D01*
X72282Y-93182D01*
X72253Y-93164D01*
X72216Y-93129D01*
X71772Y-92851D01*
X71770Y-92846D01*
X71755Y-92794D01*
X71732Y-92769D01*
X71717Y-92738D01*
X71675Y-92705D01*
X71639Y-92666D01*
X71603Y-92650D01*
X71580Y-92632D01*
X71548Y-92625D01*
X71271Y-92184D01*
X71246Y-92160D01*
X71218Y-92118D01*
X70847Y-91747D01*
X70846Y-91742D01*
X70843Y-91689D01*
X70826Y-91659D01*
X70819Y-91625D01*
X70785Y-91584D01*
X70759Y-91538D01*
X70727Y-91514D01*
X70708Y-91491D01*
X70679Y-91478D01*
X70507Y-90986D01*
X70488Y-90957D01*
X70470Y-90910D01*
X70191Y-90466D01*
X70191Y-90460D01*
X70200Y-90408D01*
X70191Y-90375D01*
X70190Y-90340D01*
X70167Y-90293D01*
X70152Y-90242D01*
X70126Y-90212D01*
X70113Y-90185D01*
X70087Y-90166D01*
X70028Y-89648D01*
X70017Y-89616D01*
X70009Y-89565D01*
X69836Y-89071D01*
X69838Y-89065D01*
X69858Y-89017D01*
X69856Y-88982D01*
X69864Y-88948D01*
X69851Y-88897D01*
X69848Y-88844D01*
X69829Y-88808D01*
X69822Y-88780D01*
X69802Y-88756D01*
X69802Y-88755D01*
X69860Y-88238D01*
X69856Y-88203D01*
X69860Y-88152D01*
X69801Y-87632D01*
X69804Y-87627D01*
X69835Y-87584D01*
X69840Y-87550D01*
X69855Y-87518D01*
X69854Y-87465D01*
X69863Y-87413D01*
X69853Y-87374D01*
X69852Y-87345D01*
X69838Y-87317D01*
X69838Y-87316D01*
X70009Y-86825D01*
X70013Y-86790D01*
X70028Y-86742D01*
X70087Y-86221D01*
X70091Y-86217D01*
X70130Y-86181D01*
X70144Y-86150D01*
X70165Y-86122D01*
X70176Y-86070D01*
X70196Y-86021D01*
X70195Y-85981D01*
X70201Y-85953D01*
X70193Y-85922D01*
X70193Y-85921D01*
X70470Y-85480D01*
X70481Y-85448D01*
X70507Y-85404D01*
X70680Y-84909D01*
X70684Y-84906D01*
X70731Y-84880D01*
X70751Y-84852D01*
X70778Y-84830D01*
X70800Y-84782D01*
X70830Y-84739D01*
X70838Y-84699D01*
X70850Y-84673D01*
X70849Y-84641D01*
X70849Y-84640D01*
X71218Y-84272D01*
X71236Y-84243D01*
X71271Y-84206D01*
X71549Y-83762D01*
X71554Y-83760D01*
X71606Y-83745D01*
X71631Y-83722D01*
X71662Y-83707D01*
X71695Y-83665D01*
X71734Y-83629D01*
X71750Y-83593D01*
X71768Y-83570D01*
X71775Y-83538D01*
X72216Y-83261D01*
X72240Y-83236D01*
X72282Y-83208D01*
X72653Y-82837D01*
X72658Y-82836D01*
X72711Y-82833D01*
X72741Y-82816D01*
X72775Y-82809D01*
X72816Y-82775D01*
X72862Y-82749D01*
X72886Y-82717D01*
X72909Y-82698D01*
X72922Y-82669D01*
X73414Y-82497D01*
X73443Y-82478D01*
X73490Y-82460D01*
X73934Y-82181D01*
X73940Y-82181D01*
X73992Y-82190D01*
X74025Y-82181D01*
X74060Y-82180D01*
X74107Y-82157D01*
X74158Y-82142D01*
X74188Y-82116D01*
X74215Y-82103D01*
X74234Y-82077D01*
X74752Y-82018D01*
X74784Y-82007D01*
X74835Y-81999D01*
X75317Y-81831D01*
X75321Y-81831D01*
X75331Y-81839D01*
X75474Y-81866D01*
X76081Y-81866D01*
X76099Y-81862D01*
X76123Y-81864D01*
X76760Y-81792D01*
X76791Y-81807D01*
X76836Y-81839D01*
X76872Y-81846D01*
X76897Y-81858D01*
X76931Y-81857D01*
X76978Y-81866D01*
X77783Y-81866D01*
X77785Y-81866D01*
X77787Y-81866D01*
X77929Y-81837D01*
X80249Y-80876D01*
X83161Y-80876D01*
X85481Y-81837D01*
X85483Y-81838D01*
X85484Y-81839D01*
X85627Y-81866D01*
X86432Y-81866D01*
X86486Y-81854D01*
X86541Y-81850D01*
X86574Y-81833D01*
X86601Y-81827D01*
X86626Y-81806D01*
X86652Y-81792D01*
X87287Y-81864D01*
X87305Y-81862D01*
X87329Y-81866D01*
X87936Y-81866D01*
X87949Y-81863D01*
X87961Y-81865D01*
X88093Y-81831D01*
X88575Y-81999D01*
X88610Y-82003D01*
X88658Y-82018D01*
X89179Y-82077D01*
X89183Y-82080D01*
X89218Y-82120D01*
X89251Y-82133D01*
X89278Y-82155D01*
X89330Y-82166D01*
X89379Y-82186D01*
X89419Y-82185D01*
X89447Y-82191D01*
X89478Y-82183D01*
X89479Y-82183D01*
X89920Y-82460D01*
X89952Y-82471D01*
X89996Y-82497D01*
X90491Y-82670D01*
X90494Y-82674D01*
X90520Y-82721D01*
X90548Y-82741D01*
X90570Y-82768D01*
X90618Y-82790D01*
X90661Y-82820D01*
X90701Y-82828D01*
X90727Y-82840D01*
X90759Y-82839D01*
X90760Y-82839D01*
X91128Y-83208D01*
X91157Y-83226D01*
X91194Y-83261D01*
X91638Y-83539D01*
X91640Y-83544D01*
X91655Y-83596D01*
X91678Y-83621D01*
X91693Y-83652D01*
X91735Y-83685D01*
X91771Y-83724D01*
X91807Y-83740D01*
X91830Y-83758D01*
X91862Y-83765D01*
X92139Y-84206D01*
X92164Y-84230D01*
X92192Y-84272D01*
X92563Y-84643D01*
X92564Y-84648D01*
X92567Y-84701D01*
X92584Y-84731D01*
X92591Y-84765D01*
X92625Y-84806D01*
X92651Y-84852D01*
X92683Y-84876D01*
X92702Y-84899D01*
X92731Y-84912D01*
X92903Y-85404D01*
X92922Y-85433D01*
X92940Y-85480D01*
X93219Y-85924D01*
X93219Y-85930D01*
X93210Y-85982D01*
X93219Y-86015D01*
X93220Y-86050D01*
X93243Y-86097D01*
X93258Y-86148D01*
X93284Y-86178D01*
X93297Y-86205D01*
X93323Y-86224D01*
X93382Y-86742D01*
X93393Y-86774D01*
X93401Y-86825D01*
X93574Y-87319D01*
X93572Y-87325D01*
X93552Y-87373D01*
X93554Y-87408D01*
X93546Y-87442D01*
X93559Y-87493D01*
X93562Y-87546D01*
X93581Y-87582D01*
X93588Y-87610D01*
X93608Y-87634D01*
X93608Y-87635D01*
X93550Y-88152D01*
X93554Y-88187D01*
X93550Y-88238D01*
X93609Y-88758D01*
X93606Y-88763D01*
X93575Y-88806D01*
X93570Y-88840D01*
X93555Y-88872D01*
X93556Y-88925D01*
X93547Y-88977D01*
X93557Y-89016D01*
X93558Y-89045D01*
X93572Y-89073D01*
X93572Y-89074D01*
X93401Y-89565D01*
X93397Y-89600D01*
X93382Y-89648D01*
X93323Y-90169D01*
X93320Y-90173D01*
X93280Y-90208D01*
X93267Y-90241D01*
X93245Y-90268D01*
X93234Y-90320D01*
X93214Y-90369D01*
X93215Y-90409D01*
X93209Y-90437D01*
X93217Y-90468D01*
X93217Y-90469D01*
X92940Y-90910D01*
X92929Y-90942D01*
X92903Y-90986D01*
X92730Y-91481D01*
X92726Y-91484D01*
X92679Y-91510D01*
X92659Y-91538D01*
X92632Y-91560D01*
X92610Y-91608D01*
X92580Y-91651D01*
X92572Y-91691D01*
X92560Y-91717D01*
X92561Y-91749D01*
X92561Y-91750D01*
X92192Y-92118D01*
X92174Y-92147D01*
X92139Y-92184D01*
X91861Y-92628D01*
X91856Y-92630D01*
X91804Y-92645D01*
X91779Y-92668D01*
X91748Y-92683D01*
X91715Y-92725D01*
X91676Y-92761D01*
X91660Y-92797D01*
X91642Y-92820D01*
X91635Y-92852D01*
X91194Y-93129D01*
X91170Y-93154D01*
X91128Y-93182D01*
X90757Y-93553D01*
X90752Y-93554D01*
X90699Y-93557D01*
X90669Y-93574D01*
X90635Y-93581D01*
X90594Y-93615D01*
X90548Y-93641D01*
X90524Y-93673D01*
X90501Y-93692D01*
X90488Y-93721D01*
X89996Y-93893D01*
X89967Y-93912D01*
X89920Y-93930D01*
X89476Y-94209D01*
X89470Y-94209D01*
X89418Y-94200D01*
X89385Y-94209D01*
X89350Y-94210D01*
X89303Y-94233D01*
X89252Y-94248D01*
X89222Y-94274D01*
X89195Y-94287D01*
X89176Y-94313D01*
X88658Y-94372D01*
X88626Y-94383D01*
X88575Y-94391D01*
X88093Y-94559D01*
X88089Y-94559D01*
X88079Y-94551D01*
X87936Y-94524D01*
X87329Y-94524D01*
X87311Y-94528D01*
X87287Y-94526D01*
X86650Y-94598D01*
X86619Y-94583D01*
X86574Y-94551D01*
X86538Y-94544D01*
X86513Y-94532D01*
X86479Y-94533D01*
X86432Y-94524D01*
X85626Y-94524D01*
X85625Y-94524D01*
X85623Y-94524D01*
X85481Y-94553D01*
X83161Y-95514D01*
X80249Y-95514D01*
G37*
%LPD*%
%LPC*%
G36*
X80249Y-182014D02*
X80249Y-182014D01*
X77929Y-181053D01*
X77927Y-181052D01*
X77926Y-181051D01*
X77784Y-181024D01*
X76978Y-181024D01*
X76924Y-181036D01*
X76869Y-181040D01*
X76836Y-181057D01*
X76809Y-181063D01*
X76784Y-181084D01*
X76758Y-181098D01*
X76123Y-181026D01*
X76105Y-181028D01*
X76081Y-181024D01*
X75474Y-181024D01*
X75461Y-181027D01*
X75449Y-181025D01*
X75317Y-181059D01*
X74835Y-180891D01*
X74800Y-180887D01*
X74752Y-180872D01*
X74231Y-180813D01*
X74227Y-180810D01*
X74192Y-180770D01*
X74159Y-180757D01*
X74132Y-180735D01*
X74080Y-180724D01*
X74031Y-180704D01*
X73991Y-180705D01*
X73963Y-180699D01*
X73932Y-180707D01*
X73931Y-180707D01*
X73490Y-180430D01*
X73458Y-180419D01*
X73414Y-180393D01*
X72919Y-180220D01*
X72916Y-180216D01*
X72890Y-180169D01*
X72862Y-180149D01*
X72840Y-180122D01*
X72792Y-180100D01*
X72749Y-180070D01*
X72709Y-180062D01*
X72683Y-180050D01*
X72651Y-180051D01*
X72650Y-180051D01*
X72282Y-179682D01*
X72253Y-179664D01*
X72216Y-179629D01*
X71772Y-179351D01*
X71770Y-179346D01*
X71755Y-179294D01*
X71732Y-179269D01*
X71717Y-179238D01*
X71675Y-179205D01*
X71639Y-179166D01*
X71603Y-179150D01*
X71580Y-179132D01*
X71548Y-179125D01*
X71271Y-178684D01*
X71246Y-178660D01*
X71218Y-178618D01*
X70847Y-178247D01*
X70846Y-178242D01*
X70843Y-178189D01*
X70826Y-178159D01*
X70819Y-178125D01*
X70785Y-178084D01*
X70759Y-178038D01*
X70727Y-178014D01*
X70708Y-177991D01*
X70679Y-177978D01*
X70507Y-177486D01*
X70488Y-177457D01*
X70470Y-177410D01*
X70191Y-176966D01*
X70191Y-176960D01*
X70200Y-176908D01*
X70191Y-176875D01*
X70190Y-176840D01*
X70167Y-176793D01*
X70152Y-176742D01*
X70126Y-176712D01*
X70113Y-176685D01*
X70087Y-176666D01*
X70028Y-176148D01*
X70017Y-176116D01*
X70009Y-176065D01*
X69836Y-175571D01*
X69838Y-175565D01*
X69858Y-175517D01*
X69856Y-175482D01*
X69864Y-175448D01*
X69851Y-175397D01*
X69848Y-175344D01*
X69829Y-175308D01*
X69822Y-175280D01*
X69802Y-175256D01*
X69802Y-175255D01*
X69860Y-174738D01*
X69856Y-174703D01*
X69860Y-174652D01*
X69801Y-174132D01*
X69804Y-174127D01*
X69835Y-174084D01*
X69840Y-174050D01*
X69855Y-174018D01*
X69854Y-173965D01*
X69863Y-173913D01*
X69853Y-173874D01*
X69852Y-173845D01*
X69838Y-173817D01*
X69838Y-173816D01*
X70009Y-173325D01*
X70011Y-173306D01*
X70013Y-173303D01*
X70013Y-173296D01*
X70013Y-173290D01*
X70028Y-173242D01*
X70087Y-172721D01*
X70111Y-172701D01*
X70113Y-172697D01*
X70130Y-172682D01*
X70143Y-172649D01*
X70165Y-172622D01*
X70176Y-172570D01*
X70196Y-172521D01*
X70195Y-172481D01*
X70201Y-172453D01*
X70193Y-172422D01*
X70193Y-172421D01*
X70470Y-171980D01*
X70481Y-171948D01*
X70507Y-171904D01*
X70680Y-171409D01*
X70684Y-171406D01*
X70731Y-171380D01*
X70751Y-171352D01*
X70778Y-171330D01*
X70800Y-171282D01*
X70830Y-171239D01*
X70838Y-171199D01*
X70850Y-171173D01*
X70849Y-171141D01*
X70849Y-171140D01*
X71218Y-170772D01*
X71236Y-170743D01*
X71271Y-170706D01*
X71549Y-170262D01*
X71554Y-170260D01*
X71606Y-170245D01*
X71631Y-170222D01*
X71662Y-170207D01*
X71695Y-170165D01*
X71734Y-170129D01*
X71750Y-170093D01*
X71768Y-170070D01*
X71775Y-170038D01*
X72216Y-169761D01*
X72240Y-169736D01*
X72282Y-169708D01*
X72653Y-169337D01*
X72658Y-169336D01*
X72711Y-169333D01*
X72741Y-169316D01*
X72775Y-169309D01*
X72816Y-169275D01*
X72862Y-169249D01*
X72886Y-169217D01*
X72909Y-169198D01*
X72922Y-169169D01*
X73414Y-168997D01*
X73443Y-168978D01*
X73490Y-168960D01*
X73934Y-168681D01*
X73940Y-168681D01*
X73992Y-168690D01*
X74025Y-168681D01*
X74060Y-168680D01*
X74107Y-168657D01*
X74158Y-168642D01*
X74188Y-168616D01*
X74215Y-168603D01*
X74234Y-168577D01*
X74752Y-168518D01*
X74784Y-168507D01*
X74835Y-168499D01*
X75317Y-168331D01*
X75321Y-168331D01*
X75331Y-168339D01*
X75474Y-168366D01*
X76081Y-168366D01*
X76099Y-168362D01*
X76123Y-168364D01*
X76760Y-168292D01*
X76791Y-168307D01*
X76836Y-168339D01*
X76872Y-168346D01*
X76897Y-168358D01*
X76931Y-168357D01*
X76978Y-168366D01*
X77783Y-168366D01*
X77785Y-168366D01*
X77787Y-168366D01*
X77929Y-168337D01*
X80249Y-167376D01*
X83161Y-167376D01*
X85481Y-168337D01*
X85483Y-168338D01*
X85484Y-168339D01*
X85627Y-168366D01*
X86432Y-168366D01*
X86486Y-168354D01*
X86541Y-168350D01*
X86574Y-168333D01*
X86601Y-168327D01*
X86626Y-168306D01*
X86652Y-168292D01*
X87287Y-168364D01*
X87305Y-168362D01*
X87329Y-168366D01*
X87936Y-168366D01*
X87949Y-168363D01*
X87961Y-168365D01*
X88093Y-168331D01*
X88575Y-168499D01*
X88610Y-168503D01*
X88658Y-168518D01*
X89179Y-168577D01*
X89183Y-168580D01*
X89218Y-168620D01*
X89251Y-168633D01*
X89278Y-168655D01*
X89330Y-168666D01*
X89379Y-168686D01*
X89419Y-168685D01*
X89447Y-168691D01*
X89478Y-168683D01*
X89479Y-168683D01*
X89920Y-168960D01*
X89952Y-168971D01*
X89996Y-168997D01*
X90491Y-169170D01*
X90494Y-169174D01*
X90520Y-169221D01*
X90548Y-169241D01*
X90570Y-169268D01*
X90618Y-169290D01*
X90661Y-169320D01*
X90701Y-169328D01*
X90727Y-169340D01*
X90759Y-169339D01*
X90760Y-169339D01*
X91128Y-169708D01*
X91157Y-169726D01*
X91194Y-169761D01*
X91638Y-170039D01*
X91640Y-170044D01*
X91655Y-170096D01*
X91678Y-170121D01*
X91693Y-170152D01*
X91735Y-170185D01*
X91771Y-170224D01*
X91807Y-170240D01*
X91830Y-170258D01*
X91862Y-170265D01*
X92139Y-170706D01*
X92164Y-170730D01*
X92192Y-170772D01*
X92563Y-171143D01*
X92564Y-171148D01*
X92567Y-171201D01*
X92584Y-171231D01*
X92591Y-171265D01*
X92625Y-171306D01*
X92651Y-171352D01*
X92683Y-171376D01*
X92702Y-171399D01*
X92731Y-171412D01*
X92903Y-171904D01*
X92922Y-171933D01*
X92940Y-171980D01*
X93219Y-172424D01*
X93219Y-172430D01*
X93210Y-172482D01*
X93219Y-172515D01*
X93220Y-172550D01*
X93243Y-172597D01*
X93258Y-172648D01*
X93284Y-172678D01*
X93297Y-172705D01*
X93314Y-172717D01*
X93317Y-172723D01*
X93324Y-172728D01*
X93382Y-173242D01*
X93393Y-173274D01*
X93401Y-173325D01*
X93574Y-173819D01*
X93572Y-173825D01*
X93552Y-173873D01*
X93554Y-173908D01*
X93546Y-173942D01*
X93559Y-173993D01*
X93562Y-174046D01*
X93581Y-174082D01*
X93588Y-174110D01*
X93608Y-174134D01*
X93608Y-174135D01*
X93550Y-174652D01*
X93554Y-174687D01*
X93550Y-174738D01*
X93609Y-175258D01*
X93606Y-175263D01*
X93575Y-175306D01*
X93570Y-175340D01*
X93555Y-175372D01*
X93556Y-175425D01*
X93547Y-175477D01*
X93557Y-175516D01*
X93558Y-175545D01*
X93572Y-175573D01*
X93572Y-175574D01*
X93401Y-176065D01*
X93397Y-176100D01*
X93382Y-176148D01*
X93323Y-176669D01*
X93320Y-176673D01*
X93280Y-176708D01*
X93267Y-176741D01*
X93245Y-176768D01*
X93234Y-176820D01*
X93214Y-176869D01*
X93215Y-176909D01*
X93209Y-176937D01*
X93217Y-176968D01*
X93217Y-176969D01*
X92940Y-177410D01*
X92929Y-177442D01*
X92903Y-177486D01*
X92730Y-177981D01*
X92726Y-177984D01*
X92679Y-178010D01*
X92659Y-178038D01*
X92632Y-178060D01*
X92610Y-178108D01*
X92580Y-178151D01*
X92572Y-178191D01*
X92560Y-178217D01*
X92561Y-178249D01*
X92561Y-178250D01*
X92192Y-178618D01*
X92174Y-178647D01*
X92139Y-178684D01*
X91861Y-179128D01*
X91856Y-179130D01*
X91804Y-179145D01*
X91779Y-179168D01*
X91748Y-179183D01*
X91715Y-179225D01*
X91676Y-179261D01*
X91660Y-179297D01*
X91642Y-179320D01*
X91635Y-179352D01*
X91194Y-179629D01*
X91170Y-179654D01*
X91128Y-179682D01*
X90757Y-180053D01*
X90752Y-180054D01*
X90699Y-180057D01*
X90669Y-180074D01*
X90635Y-180081D01*
X90594Y-180115D01*
X90548Y-180141D01*
X90524Y-180173D01*
X90501Y-180192D01*
X90488Y-180221D01*
X89996Y-180393D01*
X89967Y-180412D01*
X89920Y-180430D01*
X89476Y-180709D01*
X89470Y-180709D01*
X89418Y-180700D01*
X89385Y-180709D01*
X89350Y-180710D01*
X89303Y-180733D01*
X89252Y-180748D01*
X89222Y-180774D01*
X89195Y-180787D01*
X89176Y-180813D01*
X88658Y-180872D01*
X88626Y-180883D01*
X88575Y-180891D01*
X88093Y-181059D01*
X88089Y-181059D01*
X88079Y-181051D01*
X87936Y-181024D01*
X87329Y-181024D01*
X87311Y-181028D01*
X87287Y-181026D01*
X86650Y-181098D01*
X86619Y-181083D01*
X86574Y-181051D01*
X86538Y-181044D01*
X86513Y-181032D01*
X86479Y-181033D01*
X86432Y-181024D01*
X85626Y-181024D01*
X85625Y-181024D01*
X85623Y-181024D01*
X85481Y-181053D01*
X83161Y-182014D01*
X80249Y-182014D01*
G37*
%LPD*%
%LPC*%
G36*
X147319Y150431D02*
X147319Y150431D01*
X145195Y151311D01*
X143569Y152936D01*
X142689Y155060D01*
X142689Y157360D01*
X143569Y159484D01*
X145195Y161109D01*
X147319Y161989D01*
X149419Y161989D01*
X149493Y162007D01*
X149568Y162020D01*
X149578Y162026D01*
X149588Y162029D01*
X149617Y162052D01*
X149688Y162101D01*
X154037Y166449D01*
X156754Y166449D01*
X156828Y166467D01*
X156903Y166480D01*
X156913Y166486D01*
X156922Y166489D01*
X156951Y166512D01*
X157023Y166561D01*
X158508Y168046D01*
X160632Y168926D01*
X162931Y168926D01*
X165055Y168046D01*
X166681Y166420D01*
X167561Y164296D01*
X167561Y161997D01*
X166681Y159873D01*
X165055Y158247D01*
X162931Y157367D01*
X160632Y157367D01*
X158508Y158247D01*
X157111Y159644D01*
X157068Y159671D01*
X157030Y159706D01*
X156995Y159716D01*
X156964Y159735D01*
X156913Y159740D01*
X156864Y159755D01*
X156828Y159748D01*
X156791Y159752D01*
X156744Y159734D01*
X156693Y159725D01*
X156658Y159701D01*
X156629Y159690D01*
X156609Y159668D01*
X156573Y159644D01*
X154359Y157430D01*
X154319Y157365D01*
X154275Y157303D01*
X154273Y157291D01*
X154268Y157283D01*
X154264Y157246D01*
X154248Y157161D01*
X154248Y155060D01*
X153368Y152936D01*
X151742Y151311D01*
X149618Y150431D01*
X147319Y150431D01*
G37*
%LPD*%
%LPC*%
G36*
X38549Y-95514D02*
X38549Y-95514D01*
X36305Y-94584D01*
X36266Y-94578D01*
X36202Y-94557D01*
X35923Y-94526D01*
X35905Y-94528D01*
X35881Y-94524D01*
X35274Y-94524D01*
X35261Y-94527D01*
X35249Y-94525D01*
X35117Y-94559D01*
X34635Y-94391D01*
X34600Y-94387D01*
X34552Y-94372D01*
X34031Y-94313D01*
X34027Y-94310D01*
X33992Y-94270D01*
X33959Y-94257D01*
X33932Y-94235D01*
X33880Y-94224D01*
X33831Y-94204D01*
X33791Y-94205D01*
X33763Y-94199D01*
X33732Y-94207D01*
X33731Y-94207D01*
X33290Y-93930D01*
X33258Y-93919D01*
X33214Y-93893D01*
X32719Y-93720D01*
X32716Y-93716D01*
X32690Y-93669D01*
X32662Y-93649D01*
X32640Y-93622D01*
X32592Y-93600D01*
X32549Y-93570D01*
X32509Y-93562D01*
X32483Y-93550D01*
X32451Y-93551D01*
X32450Y-93551D01*
X32082Y-93182D01*
X32053Y-93164D01*
X32016Y-93129D01*
X31572Y-92851D01*
X31570Y-92846D01*
X31555Y-92794D01*
X31532Y-92769D01*
X31517Y-92738D01*
X31475Y-92705D01*
X31439Y-92666D01*
X31403Y-92650D01*
X31380Y-92632D01*
X31348Y-92625D01*
X31071Y-92184D01*
X31046Y-92160D01*
X31018Y-92118D01*
X30647Y-91747D01*
X30646Y-91742D01*
X30643Y-91689D01*
X30626Y-91659D01*
X30619Y-91625D01*
X30585Y-91584D01*
X30559Y-91538D01*
X30527Y-91514D01*
X30508Y-91491D01*
X30479Y-91478D01*
X30307Y-90986D01*
X30288Y-90957D01*
X30270Y-90910D01*
X29991Y-90466D01*
X29991Y-90460D01*
X30000Y-90408D01*
X29991Y-90375D01*
X29990Y-90340D01*
X29967Y-90293D01*
X29952Y-90242D01*
X29926Y-90212D01*
X29913Y-90185D01*
X29887Y-90166D01*
X29828Y-89648D01*
X29817Y-89616D01*
X29809Y-89565D01*
X29636Y-89071D01*
X29638Y-89065D01*
X29658Y-89017D01*
X29656Y-88982D01*
X29664Y-88948D01*
X29651Y-88897D01*
X29648Y-88844D01*
X29629Y-88808D01*
X29622Y-88780D01*
X29602Y-88756D01*
X29602Y-88755D01*
X29660Y-88238D01*
X29656Y-88203D01*
X29660Y-88152D01*
X29601Y-87632D01*
X29604Y-87627D01*
X29635Y-87584D01*
X29640Y-87550D01*
X29655Y-87518D01*
X29654Y-87465D01*
X29663Y-87413D01*
X29653Y-87374D01*
X29652Y-87345D01*
X29638Y-87317D01*
X29638Y-87316D01*
X29809Y-86825D01*
X29813Y-86790D01*
X29828Y-86742D01*
X29887Y-86221D01*
X29890Y-86217D01*
X29930Y-86182D01*
X29943Y-86149D01*
X29965Y-86122D01*
X29976Y-86070D01*
X29996Y-86021D01*
X29995Y-85981D01*
X30001Y-85953D01*
X29993Y-85922D01*
X29993Y-85921D01*
X30270Y-85480D01*
X30281Y-85448D01*
X30307Y-85404D01*
X30480Y-84909D01*
X30484Y-84906D01*
X30531Y-84880D01*
X30551Y-84852D01*
X30578Y-84830D01*
X30600Y-84782D01*
X30630Y-84739D01*
X30638Y-84699D01*
X30650Y-84673D01*
X30649Y-84641D01*
X30649Y-84640D01*
X31018Y-84272D01*
X31036Y-84243D01*
X31071Y-84206D01*
X31349Y-83762D01*
X31354Y-83760D01*
X31406Y-83745D01*
X31431Y-83722D01*
X31462Y-83707D01*
X31495Y-83665D01*
X31534Y-83629D01*
X31550Y-83593D01*
X31568Y-83570D01*
X31575Y-83538D01*
X32016Y-83261D01*
X32040Y-83236D01*
X32082Y-83208D01*
X32453Y-82837D01*
X32458Y-82836D01*
X32511Y-82833D01*
X32541Y-82816D01*
X32575Y-82809D01*
X32616Y-82775D01*
X32662Y-82749D01*
X32686Y-82717D01*
X32709Y-82698D01*
X32722Y-82669D01*
X33214Y-82497D01*
X33243Y-82478D01*
X33290Y-82460D01*
X33734Y-82181D01*
X33740Y-82181D01*
X33792Y-82190D01*
X33825Y-82181D01*
X33860Y-82180D01*
X33907Y-82157D01*
X33958Y-82142D01*
X33988Y-82116D01*
X34015Y-82103D01*
X34034Y-82077D01*
X34552Y-82018D01*
X34584Y-82007D01*
X34635Y-81999D01*
X35117Y-81831D01*
X35121Y-81831D01*
X35131Y-81839D01*
X35274Y-81866D01*
X35881Y-81866D01*
X35899Y-81862D01*
X35923Y-81864D01*
X36202Y-81833D01*
X36238Y-81819D01*
X36305Y-81806D01*
X38549Y-80876D01*
X41461Y-80876D01*
X43705Y-81806D01*
X43744Y-81812D01*
X43808Y-81833D01*
X44087Y-81864D01*
X44105Y-81862D01*
X44129Y-81866D01*
X44736Y-81866D01*
X44749Y-81863D01*
X44761Y-81865D01*
X44893Y-81831D01*
X45375Y-81999D01*
X45410Y-82003D01*
X45458Y-82018D01*
X45979Y-82077D01*
X45983Y-82080D01*
X46018Y-82120D01*
X46051Y-82133D01*
X46078Y-82155D01*
X46130Y-82166D01*
X46179Y-82186D01*
X46219Y-82185D01*
X46247Y-82191D01*
X46278Y-82183D01*
X46279Y-82183D01*
X46720Y-82460D01*
X46752Y-82471D01*
X46796Y-82497D01*
X47291Y-82670D01*
X47294Y-82674D01*
X47320Y-82721D01*
X47348Y-82741D01*
X47370Y-82768D01*
X47418Y-82790D01*
X47461Y-82820D01*
X47501Y-82828D01*
X47527Y-82840D01*
X47559Y-82839D01*
X47560Y-82839D01*
X47928Y-83208D01*
X47957Y-83226D01*
X47994Y-83261D01*
X48438Y-83539D01*
X48440Y-83544D01*
X48455Y-83596D01*
X48478Y-83621D01*
X48493Y-83652D01*
X48535Y-83685D01*
X48571Y-83724D01*
X48607Y-83740D01*
X48630Y-83758D01*
X48662Y-83765D01*
X48939Y-84206D01*
X48964Y-84230D01*
X48992Y-84272D01*
X49363Y-84643D01*
X49364Y-84648D01*
X49367Y-84701D01*
X49384Y-84731D01*
X49391Y-84765D01*
X49425Y-84806D01*
X49451Y-84852D01*
X49483Y-84876D01*
X49502Y-84899D01*
X49531Y-84912D01*
X49703Y-85404D01*
X49722Y-85433D01*
X49740Y-85480D01*
X50019Y-85924D01*
X50019Y-85930D01*
X50010Y-85982D01*
X50019Y-86015D01*
X50020Y-86050D01*
X50043Y-86097D01*
X50058Y-86148D01*
X50084Y-86178D01*
X50097Y-86205D01*
X50123Y-86224D01*
X50182Y-86742D01*
X50193Y-86774D01*
X50201Y-86825D01*
X50374Y-87319D01*
X50372Y-87325D01*
X50352Y-87373D01*
X50354Y-87408D01*
X50346Y-87442D01*
X50359Y-87493D01*
X50362Y-87546D01*
X50381Y-87582D01*
X50388Y-87610D01*
X50408Y-87634D01*
X50408Y-87635D01*
X50350Y-88152D01*
X50354Y-88187D01*
X50350Y-88238D01*
X50409Y-88758D01*
X50406Y-88763D01*
X50375Y-88806D01*
X50370Y-88840D01*
X50355Y-88872D01*
X50356Y-88925D01*
X50347Y-88977D01*
X50357Y-89016D01*
X50358Y-89045D01*
X50372Y-89073D01*
X50372Y-89074D01*
X50201Y-89565D01*
X50197Y-89600D01*
X50182Y-89648D01*
X50123Y-90169D01*
X50120Y-90173D01*
X50080Y-90208D01*
X50067Y-90241D01*
X50045Y-90268D01*
X50034Y-90320D01*
X50014Y-90369D01*
X50015Y-90409D01*
X50009Y-90437D01*
X50017Y-90468D01*
X50017Y-90469D01*
X49740Y-90910D01*
X49729Y-90942D01*
X49703Y-90986D01*
X49530Y-91481D01*
X49526Y-91484D01*
X49479Y-91510D01*
X49459Y-91538D01*
X49432Y-91560D01*
X49410Y-91608D01*
X49380Y-91651D01*
X49372Y-91691D01*
X49360Y-91717D01*
X49361Y-91749D01*
X49361Y-91750D01*
X48992Y-92118D01*
X48974Y-92147D01*
X48939Y-92184D01*
X48661Y-92628D01*
X48656Y-92630D01*
X48604Y-92645D01*
X48579Y-92668D01*
X48548Y-92683D01*
X48515Y-92725D01*
X48476Y-92761D01*
X48460Y-92797D01*
X48442Y-92820D01*
X48435Y-92852D01*
X47994Y-93129D01*
X47970Y-93154D01*
X47928Y-93182D01*
X47557Y-93553D01*
X47552Y-93554D01*
X47499Y-93557D01*
X47469Y-93574D01*
X47435Y-93581D01*
X47394Y-93615D01*
X47348Y-93641D01*
X47324Y-93673D01*
X47301Y-93692D01*
X47288Y-93721D01*
X46796Y-93893D01*
X46767Y-93912D01*
X46720Y-93930D01*
X46276Y-94209D01*
X46270Y-94209D01*
X46218Y-94200D01*
X46185Y-94209D01*
X46150Y-94210D01*
X46103Y-94233D01*
X46052Y-94248D01*
X46022Y-94274D01*
X45995Y-94287D01*
X45976Y-94313D01*
X45458Y-94372D01*
X45426Y-94383D01*
X45375Y-94391D01*
X44893Y-94559D01*
X44889Y-94559D01*
X44879Y-94551D01*
X44736Y-94524D01*
X44129Y-94524D01*
X44111Y-94528D01*
X44087Y-94526D01*
X43808Y-94557D01*
X43772Y-94571D01*
X43705Y-94584D01*
X41461Y-95514D01*
X38549Y-95514D01*
G37*
%LPD*%
%LPC*%
G36*
X38549Y-182014D02*
X38549Y-182014D01*
X36305Y-181084D01*
X36266Y-181078D01*
X36202Y-181057D01*
X35923Y-181026D01*
X35905Y-181028D01*
X35881Y-181024D01*
X35274Y-181024D01*
X35261Y-181027D01*
X35249Y-181025D01*
X35117Y-181059D01*
X34635Y-180891D01*
X34600Y-180887D01*
X34552Y-180872D01*
X34031Y-180813D01*
X34027Y-180810D01*
X33992Y-180770D01*
X33959Y-180757D01*
X33932Y-180735D01*
X33880Y-180724D01*
X33831Y-180704D01*
X33791Y-180705D01*
X33763Y-180699D01*
X33732Y-180707D01*
X33731Y-180707D01*
X33290Y-180430D01*
X33258Y-180419D01*
X33214Y-180393D01*
X32719Y-180220D01*
X32716Y-180216D01*
X32690Y-180169D01*
X32662Y-180149D01*
X32640Y-180122D01*
X32592Y-180100D01*
X32549Y-180070D01*
X32509Y-180062D01*
X32483Y-180050D01*
X32451Y-180051D01*
X32450Y-180051D01*
X32082Y-179682D01*
X32053Y-179664D01*
X32016Y-179629D01*
X31572Y-179351D01*
X31570Y-179346D01*
X31555Y-179294D01*
X31532Y-179269D01*
X31517Y-179238D01*
X31475Y-179205D01*
X31439Y-179166D01*
X31403Y-179150D01*
X31380Y-179132D01*
X31348Y-179125D01*
X31071Y-178684D01*
X31046Y-178660D01*
X31018Y-178618D01*
X30647Y-178247D01*
X30646Y-178242D01*
X30643Y-178189D01*
X30626Y-178159D01*
X30619Y-178125D01*
X30585Y-178084D01*
X30559Y-178038D01*
X30527Y-178014D01*
X30508Y-177991D01*
X30479Y-177978D01*
X30307Y-177486D01*
X30288Y-177457D01*
X30270Y-177410D01*
X29991Y-176966D01*
X29991Y-176960D01*
X30000Y-176908D01*
X29991Y-176875D01*
X29990Y-176840D01*
X29967Y-176793D01*
X29952Y-176742D01*
X29926Y-176712D01*
X29913Y-176685D01*
X29887Y-176666D01*
X29828Y-176148D01*
X29817Y-176116D01*
X29809Y-176065D01*
X29636Y-175571D01*
X29638Y-175565D01*
X29658Y-175517D01*
X29656Y-175482D01*
X29664Y-175448D01*
X29651Y-175397D01*
X29648Y-175344D01*
X29629Y-175308D01*
X29622Y-175280D01*
X29602Y-175256D01*
X29602Y-175255D01*
X29660Y-174738D01*
X29656Y-174703D01*
X29660Y-174652D01*
X29601Y-174132D01*
X29604Y-174127D01*
X29635Y-174084D01*
X29640Y-174050D01*
X29655Y-174018D01*
X29654Y-173965D01*
X29663Y-173913D01*
X29653Y-173874D01*
X29652Y-173845D01*
X29638Y-173817D01*
X29638Y-173816D01*
X29809Y-173325D01*
X29811Y-173306D01*
X29813Y-173303D01*
X29813Y-173296D01*
X29813Y-173290D01*
X29828Y-173242D01*
X29887Y-172721D01*
X29911Y-172701D01*
X29913Y-172697D01*
X29930Y-172682D01*
X29943Y-172649D01*
X29965Y-172622D01*
X29976Y-172570D01*
X29996Y-172521D01*
X29995Y-172481D01*
X30001Y-172453D01*
X29993Y-172422D01*
X29993Y-172421D01*
X30270Y-171980D01*
X30281Y-171948D01*
X30307Y-171904D01*
X30480Y-171409D01*
X30484Y-171406D01*
X30531Y-171380D01*
X30551Y-171352D01*
X30578Y-171330D01*
X30600Y-171282D01*
X30630Y-171239D01*
X30638Y-171199D01*
X30650Y-171173D01*
X30649Y-171141D01*
X30649Y-171140D01*
X31018Y-170772D01*
X31036Y-170743D01*
X31071Y-170706D01*
X31349Y-170262D01*
X31354Y-170260D01*
X31406Y-170245D01*
X31431Y-170222D01*
X31462Y-170207D01*
X31495Y-170165D01*
X31534Y-170129D01*
X31550Y-170093D01*
X31568Y-170070D01*
X31575Y-170038D01*
X32016Y-169761D01*
X32040Y-169736D01*
X32082Y-169708D01*
X32453Y-169337D01*
X32458Y-169336D01*
X32511Y-169333D01*
X32541Y-169316D01*
X32575Y-169309D01*
X32616Y-169275D01*
X32662Y-169249D01*
X32686Y-169217D01*
X32709Y-169198D01*
X32722Y-169169D01*
X33214Y-168997D01*
X33243Y-168978D01*
X33290Y-168960D01*
X33734Y-168681D01*
X33740Y-168681D01*
X33792Y-168690D01*
X33825Y-168681D01*
X33860Y-168680D01*
X33907Y-168657D01*
X33958Y-168642D01*
X33988Y-168616D01*
X34015Y-168603D01*
X34034Y-168577D01*
X34552Y-168518D01*
X34584Y-168507D01*
X34635Y-168499D01*
X35117Y-168331D01*
X35121Y-168331D01*
X35131Y-168339D01*
X35274Y-168366D01*
X35881Y-168366D01*
X35899Y-168362D01*
X35923Y-168364D01*
X36202Y-168333D01*
X36238Y-168319D01*
X36305Y-168306D01*
X38549Y-167376D01*
X41461Y-167376D01*
X43705Y-168306D01*
X43744Y-168312D01*
X43808Y-168333D01*
X44087Y-168364D01*
X44105Y-168362D01*
X44129Y-168366D01*
X44736Y-168366D01*
X44749Y-168363D01*
X44761Y-168365D01*
X44893Y-168331D01*
X45375Y-168499D01*
X45410Y-168503D01*
X45458Y-168518D01*
X45979Y-168577D01*
X45983Y-168580D01*
X46018Y-168620D01*
X46051Y-168633D01*
X46078Y-168655D01*
X46130Y-168666D01*
X46179Y-168686D01*
X46219Y-168685D01*
X46247Y-168691D01*
X46278Y-168683D01*
X46279Y-168683D01*
X46720Y-168960D01*
X46752Y-168971D01*
X46796Y-168997D01*
X47291Y-169170D01*
X47294Y-169174D01*
X47320Y-169221D01*
X47348Y-169241D01*
X47370Y-169268D01*
X47418Y-169290D01*
X47461Y-169320D01*
X47501Y-169328D01*
X47527Y-169340D01*
X47559Y-169339D01*
X47560Y-169339D01*
X47928Y-169708D01*
X47957Y-169726D01*
X47994Y-169761D01*
X48438Y-170039D01*
X48440Y-170044D01*
X48455Y-170096D01*
X48478Y-170121D01*
X48493Y-170152D01*
X48535Y-170185D01*
X48571Y-170224D01*
X48607Y-170240D01*
X48630Y-170258D01*
X48662Y-170265D01*
X48939Y-170706D01*
X48964Y-170730D01*
X48992Y-170772D01*
X49363Y-171143D01*
X49364Y-171148D01*
X49367Y-171201D01*
X49384Y-171231D01*
X49391Y-171265D01*
X49425Y-171306D01*
X49451Y-171352D01*
X49483Y-171376D01*
X49502Y-171399D01*
X49531Y-171412D01*
X49703Y-171904D01*
X49722Y-171933D01*
X49740Y-171980D01*
X50019Y-172424D01*
X50019Y-172430D01*
X50010Y-172482D01*
X50019Y-172515D01*
X50020Y-172550D01*
X50043Y-172597D01*
X50058Y-172648D01*
X50084Y-172678D01*
X50097Y-172705D01*
X50114Y-172717D01*
X50117Y-172723D01*
X50124Y-172728D01*
X50182Y-173242D01*
X50193Y-173274D01*
X50201Y-173325D01*
X50374Y-173819D01*
X50372Y-173825D01*
X50352Y-173873D01*
X50354Y-173908D01*
X50346Y-173942D01*
X50359Y-173993D01*
X50362Y-174046D01*
X50381Y-174082D01*
X50388Y-174110D01*
X50408Y-174134D01*
X50408Y-174135D01*
X50350Y-174652D01*
X50354Y-174687D01*
X50350Y-174738D01*
X50409Y-175258D01*
X50406Y-175263D01*
X50375Y-175306D01*
X50370Y-175340D01*
X50355Y-175372D01*
X50356Y-175425D01*
X50347Y-175477D01*
X50357Y-175516D01*
X50358Y-175545D01*
X50372Y-175573D01*
X50372Y-175574D01*
X50201Y-176065D01*
X50197Y-176100D01*
X50182Y-176148D01*
X50123Y-176669D01*
X50120Y-176673D01*
X50080Y-176708D01*
X50067Y-176741D01*
X50045Y-176768D01*
X50034Y-176820D01*
X50014Y-176869D01*
X50015Y-176909D01*
X50009Y-176937D01*
X50017Y-176968D01*
X50017Y-176969D01*
X49740Y-177410D01*
X49729Y-177442D01*
X49703Y-177486D01*
X49530Y-177981D01*
X49526Y-177984D01*
X49479Y-178010D01*
X49459Y-178038D01*
X49432Y-178060D01*
X49410Y-178108D01*
X49380Y-178151D01*
X49372Y-178191D01*
X49360Y-178217D01*
X49361Y-178249D01*
X49361Y-178250D01*
X48992Y-178618D01*
X48974Y-178647D01*
X48939Y-178684D01*
X48661Y-179128D01*
X48656Y-179130D01*
X48604Y-179145D01*
X48579Y-179168D01*
X48548Y-179183D01*
X48515Y-179225D01*
X48476Y-179261D01*
X48460Y-179297D01*
X48442Y-179320D01*
X48435Y-179352D01*
X47994Y-179629D01*
X47970Y-179654D01*
X47928Y-179682D01*
X47557Y-180053D01*
X47552Y-180054D01*
X47499Y-180057D01*
X47469Y-180074D01*
X47435Y-180081D01*
X47394Y-180115D01*
X47348Y-180141D01*
X47324Y-180173D01*
X47301Y-180192D01*
X47288Y-180221D01*
X46796Y-180393D01*
X46767Y-180412D01*
X46720Y-180430D01*
X46276Y-180709D01*
X46270Y-180709D01*
X46218Y-180700D01*
X46185Y-180709D01*
X46150Y-180710D01*
X46103Y-180733D01*
X46052Y-180748D01*
X46022Y-180774D01*
X45995Y-180787D01*
X45976Y-180813D01*
X45458Y-180872D01*
X45426Y-180883D01*
X45375Y-180891D01*
X44893Y-181059D01*
X44889Y-181059D01*
X44879Y-181051D01*
X44736Y-181024D01*
X44129Y-181024D01*
X44111Y-181028D01*
X44087Y-181026D01*
X43808Y-181057D01*
X43772Y-181071D01*
X43705Y-181084D01*
X41461Y-182014D01*
X38549Y-182014D01*
G37*
%LPD*%
%LPC*%
G36*
X38505Y-73291D02*
X38505Y-73291D01*
X35733Y-72143D01*
X33612Y-70022D01*
X32464Y-67250D01*
X32464Y-64250D01*
X33612Y-61478D01*
X35733Y-59357D01*
X38505Y-58209D01*
X41505Y-58209D01*
X44277Y-59357D01*
X46398Y-61478D01*
X47546Y-64250D01*
X47546Y-67250D01*
X46398Y-70022D01*
X44277Y-72143D01*
X41505Y-73291D01*
X38505Y-73291D01*
G37*
%LPD*%
%LPC*%
G36*
X38505Y-5291D02*
X38505Y-5291D01*
X35733Y-4143D01*
X33612Y-2022D01*
X32464Y750D01*
X32464Y3750D01*
X33612Y6522D01*
X35733Y8643D01*
X38505Y9791D01*
X41505Y9791D01*
X44277Y8643D01*
X46398Y6522D01*
X47546Y3750D01*
X47546Y750D01*
X46398Y-2022D01*
X44277Y-4143D01*
X41505Y-5291D01*
X38505Y-5291D01*
G37*
%LPD*%
G36*
X87208Y-179242D02*
X87208Y-179242D01*
X87211Y-179244D01*
X88212Y-179131D01*
X88218Y-179125D01*
X88223Y-179129D01*
X89174Y-178796D01*
X89178Y-178789D01*
X89184Y-178791D01*
X90037Y-178255D01*
X90040Y-178247D01*
X90046Y-178248D01*
X90758Y-177536D01*
X90759Y-177527D01*
X90765Y-177527D01*
X91301Y-176674D01*
X91300Y-176666D01*
X91306Y-176664D01*
X91639Y-175713D01*
X91638Y-175712D01*
X91639Y-175712D01*
X91638Y-175710D01*
X91636Y-175705D01*
X91641Y-175702D01*
X91754Y-174701D01*
X91750Y-174693D01*
X91754Y-174690D01*
X91641Y-173688D01*
X91635Y-173682D01*
X91639Y-173677D01*
X91306Y-172726D01*
X91299Y-172722D01*
X91301Y-172716D01*
X90765Y-171863D01*
X90757Y-171860D01*
X90758Y-171854D01*
X90046Y-171142D01*
X90037Y-171141D01*
X90037Y-171135D01*
X89184Y-170599D01*
X89176Y-170600D01*
X89174Y-170594D01*
X88223Y-170261D01*
X88215Y-170264D01*
X88212Y-170259D01*
X87211Y-170146D01*
X87207Y-170148D01*
X87205Y-170146D01*
X76205Y-170146D01*
X76202Y-170148D01*
X76200Y-170146D01*
X75198Y-170259D01*
X75192Y-170265D01*
X75187Y-170261D01*
X74236Y-170594D01*
X74232Y-170601D01*
X74226Y-170599D01*
X73373Y-171135D01*
X73370Y-171143D01*
X73364Y-171142D01*
X72652Y-171854D01*
X72651Y-171863D01*
X72645Y-171863D01*
X72109Y-172716D01*
X72110Y-172724D01*
X72104Y-172726D01*
X71771Y-173677D01*
X71774Y-173685D01*
X71769Y-173688D01*
X71656Y-174690D01*
X71660Y-174697D01*
X71656Y-174701D01*
X71769Y-175702D01*
X71775Y-175708D01*
X71771Y-175713D01*
X72104Y-176664D01*
X72111Y-176668D01*
X72109Y-176674D01*
X72645Y-177527D01*
X72653Y-177530D01*
X72652Y-177536D01*
X73364Y-178248D01*
X73373Y-178249D01*
X73373Y-178255D01*
X74226Y-178791D01*
X74234Y-178790D01*
X74236Y-178796D01*
X75187Y-179129D01*
X75195Y-179126D01*
X75198Y-179131D01*
X76200Y-179244D01*
X76203Y-179242D01*
X76205Y-179244D01*
X87205Y-179244D01*
X87208Y-179242D01*
G37*
G36*
X87208Y-92742D02*
X87208Y-92742D01*
X87211Y-92744D01*
X88212Y-92631D01*
X88218Y-92625D01*
X88223Y-92629D01*
X89174Y-92296D01*
X89178Y-92289D01*
X89184Y-92291D01*
X90037Y-91755D01*
X90040Y-91747D01*
X90046Y-91748D01*
X90758Y-91036D01*
X90759Y-91027D01*
X90765Y-91027D01*
X91301Y-90174D01*
X91300Y-90166D01*
X91306Y-90164D01*
X91639Y-89213D01*
X91638Y-89212D01*
X91639Y-89212D01*
X91638Y-89210D01*
X91636Y-89205D01*
X91641Y-89202D01*
X91754Y-88201D01*
X91750Y-88193D01*
X91754Y-88190D01*
X91641Y-87188D01*
X91635Y-87182D01*
X91639Y-87177D01*
X91306Y-86226D01*
X91299Y-86222D01*
X91301Y-86216D01*
X90765Y-85363D01*
X90757Y-85360D01*
X90758Y-85354D01*
X90046Y-84642D01*
X90037Y-84641D01*
X90037Y-84635D01*
X89184Y-84099D01*
X89176Y-84100D01*
X89174Y-84094D01*
X88223Y-83761D01*
X88215Y-83764D01*
X88212Y-83759D01*
X87211Y-83646D01*
X87207Y-83648D01*
X87205Y-83646D01*
X76205Y-83646D01*
X76202Y-83648D01*
X76200Y-83646D01*
X75198Y-83759D01*
X75192Y-83765D01*
X75187Y-83761D01*
X74236Y-84094D01*
X74232Y-84101D01*
X74226Y-84099D01*
X73373Y-84635D01*
X73370Y-84643D01*
X73364Y-84642D01*
X72652Y-85354D01*
X72651Y-85363D01*
X72645Y-85363D01*
X72109Y-86216D01*
X72110Y-86224D01*
X72104Y-86226D01*
X71771Y-87177D01*
X71774Y-87185D01*
X71769Y-87188D01*
X71656Y-88190D01*
X71660Y-88197D01*
X71656Y-88201D01*
X71769Y-89202D01*
X71775Y-89208D01*
X71771Y-89213D01*
X72104Y-90164D01*
X72111Y-90168D01*
X72109Y-90174D01*
X72645Y-91027D01*
X72653Y-91030D01*
X72652Y-91036D01*
X73364Y-91748D01*
X73373Y-91749D01*
X73373Y-91755D01*
X74226Y-92291D01*
X74234Y-92290D01*
X74236Y-92296D01*
X75187Y-92629D01*
X75195Y-92626D01*
X75198Y-92631D01*
X76200Y-92744D01*
X76203Y-92742D01*
X76205Y-92744D01*
X87205Y-92744D01*
X87208Y-92742D01*
G37*
G36*
X44008Y-179242D02*
X44008Y-179242D01*
X44011Y-179244D01*
X45012Y-179131D01*
X45018Y-179125D01*
X45023Y-179129D01*
X45974Y-178796D01*
X45978Y-178789D01*
X45984Y-178791D01*
X46837Y-178255D01*
X46840Y-178247D01*
X46846Y-178248D01*
X47558Y-177536D01*
X47559Y-177527D01*
X47565Y-177527D01*
X48101Y-176674D01*
X48100Y-176666D01*
X48106Y-176664D01*
X48439Y-175713D01*
X48438Y-175712D01*
X48439Y-175712D01*
X48438Y-175710D01*
X48436Y-175705D01*
X48441Y-175702D01*
X48554Y-174701D01*
X48550Y-174693D01*
X48554Y-174690D01*
X48441Y-173688D01*
X48435Y-173682D01*
X48439Y-173677D01*
X48106Y-172726D01*
X48099Y-172722D01*
X48101Y-172716D01*
X47565Y-171863D01*
X47557Y-171860D01*
X47558Y-171854D01*
X46846Y-171142D01*
X46837Y-171141D01*
X46837Y-171135D01*
X45984Y-170599D01*
X45976Y-170600D01*
X45974Y-170594D01*
X45023Y-170261D01*
X45015Y-170264D01*
X45012Y-170259D01*
X44011Y-170146D01*
X44007Y-170148D01*
X44005Y-170146D01*
X36005Y-170146D01*
X36002Y-170148D01*
X36000Y-170146D01*
X34998Y-170259D01*
X34992Y-170265D01*
X34987Y-170261D01*
X34036Y-170594D01*
X34032Y-170601D01*
X34026Y-170599D01*
X33173Y-171135D01*
X33170Y-171143D01*
X33164Y-171142D01*
X32452Y-171854D01*
X32451Y-171863D01*
X32445Y-171863D01*
X31909Y-172716D01*
X31910Y-172724D01*
X31904Y-172726D01*
X31571Y-173677D01*
X31574Y-173685D01*
X31569Y-173688D01*
X31456Y-174690D01*
X31460Y-174697D01*
X31456Y-174701D01*
X31569Y-175702D01*
X31575Y-175708D01*
X31571Y-175713D01*
X31904Y-176664D01*
X31911Y-176668D01*
X31909Y-176674D01*
X32445Y-177527D01*
X32453Y-177530D01*
X32452Y-177536D01*
X33164Y-178248D01*
X33173Y-178249D01*
X33173Y-178255D01*
X34026Y-178791D01*
X34034Y-178790D01*
X34036Y-178796D01*
X34987Y-179129D01*
X34995Y-179126D01*
X34998Y-179131D01*
X36000Y-179244D01*
X36003Y-179242D01*
X36005Y-179244D01*
X44005Y-179244D01*
X44008Y-179242D01*
G37*
G36*
X44008Y-92742D02*
X44008Y-92742D01*
X44011Y-92744D01*
X45012Y-92631D01*
X45018Y-92625D01*
X45023Y-92629D01*
X45974Y-92296D01*
X45978Y-92289D01*
X45984Y-92291D01*
X46837Y-91755D01*
X46840Y-91747D01*
X46846Y-91748D01*
X47558Y-91036D01*
X47559Y-91027D01*
X47565Y-91027D01*
X48101Y-90174D01*
X48100Y-90166D01*
X48106Y-90164D01*
X48439Y-89213D01*
X48438Y-89212D01*
X48439Y-89212D01*
X48438Y-89210D01*
X48436Y-89205D01*
X48441Y-89202D01*
X48554Y-88201D01*
X48550Y-88193D01*
X48554Y-88190D01*
X48441Y-87188D01*
X48435Y-87182D01*
X48439Y-87177D01*
X48106Y-86226D01*
X48099Y-86222D01*
X48101Y-86216D01*
X47565Y-85363D01*
X47557Y-85360D01*
X47558Y-85354D01*
X46846Y-84642D01*
X46837Y-84641D01*
X46837Y-84635D01*
X45984Y-84099D01*
X45976Y-84100D01*
X45974Y-84094D01*
X45023Y-83761D01*
X45015Y-83764D01*
X45012Y-83759D01*
X44011Y-83646D01*
X44007Y-83648D01*
X44005Y-83646D01*
X36005Y-83646D01*
X36002Y-83648D01*
X36000Y-83646D01*
X34998Y-83759D01*
X34992Y-83765D01*
X34987Y-83761D01*
X34036Y-84094D01*
X34032Y-84101D01*
X34026Y-84099D01*
X33173Y-84635D01*
X33170Y-84643D01*
X33164Y-84642D01*
X32452Y-85354D01*
X32451Y-85363D01*
X32445Y-85363D01*
X31909Y-86216D01*
X31910Y-86224D01*
X31904Y-86226D01*
X31571Y-87177D01*
X31574Y-87185D01*
X31569Y-87188D01*
X31456Y-88190D01*
X31460Y-88197D01*
X31456Y-88201D01*
X31569Y-89202D01*
X31575Y-89208D01*
X31571Y-89213D01*
X31904Y-90164D01*
X31911Y-90168D01*
X31909Y-90174D01*
X32445Y-91027D01*
X32453Y-91030D01*
X32452Y-91036D01*
X33164Y-91748D01*
X33173Y-91749D01*
X33173Y-91755D01*
X34026Y-92291D01*
X34034Y-92290D01*
X34036Y-92296D01*
X34987Y-92629D01*
X34995Y-92626D01*
X34998Y-92631D01*
X36000Y-92744D01*
X36003Y-92742D01*
X36005Y-92744D01*
X44005Y-92744D01*
X44008Y-92742D01*
G37*
%LPC*%
G36*
X316991Y-130811D02*
X316991Y-130811D01*
X316991Y-122681D01*
X331471Y-122681D01*
X331471Y-128605D01*
X331298Y-129251D01*
X330963Y-129830D01*
X330490Y-130303D01*
X329911Y-130638D01*
X329265Y-130811D01*
X316991Y-130811D01*
G37*
%LPD*%
%LPC*%
G36*
X303195Y-130811D02*
X303195Y-130811D01*
X302549Y-130638D01*
X301970Y-130303D01*
X301497Y-129830D01*
X301162Y-129251D01*
X301101Y-129021D01*
X300989Y-128605D01*
X300989Y-122681D01*
X315469Y-122681D01*
X315469Y-130811D01*
X303195Y-130811D01*
G37*
%LPD*%
%LPC*%
G36*
X316991Y-121159D02*
X316991Y-121159D01*
X316991Y-113029D01*
X329265Y-113029D01*
X329911Y-113202D01*
X330490Y-113537D01*
X330963Y-114010D01*
X331298Y-114589D01*
X331471Y-115235D01*
X331471Y-121159D01*
X316991Y-121159D01*
G37*
%LPD*%
%LPC*%
G36*
X300989Y-121159D02*
X300989Y-121159D01*
X300989Y-115235D01*
X301162Y-114589D01*
X301497Y-114010D01*
X301970Y-113537D01*
X302549Y-113202D01*
X303195Y-113029D01*
X315469Y-113029D01*
X315469Y-121159D01*
X300989Y-121159D01*
G37*
%LPD*%
%LPC*%
G36*
X74510Y-165886D02*
X74510Y-165886D01*
X71264Y-162640D01*
X71264Y-158050D01*
X74510Y-154804D01*
X79100Y-154804D01*
X82346Y-158050D01*
X82346Y-162640D01*
X79100Y-165886D01*
X74510Y-165886D01*
G37*
%LPD*%
%LPC*%
G36*
X74510Y-108086D02*
X74510Y-108086D01*
X71264Y-104840D01*
X71264Y-100250D01*
X74510Y-97004D01*
X79100Y-97004D01*
X82346Y-100250D01*
X82346Y-104840D01*
X79100Y-108086D01*
X74510Y-108086D01*
G37*
%LPD*%
%LPC*%
G36*
X203961Y-200153D02*
X203961Y-200153D01*
X203961Y-189991D01*
X214123Y-189991D01*
X214123Y-190090D01*
X213854Y-191788D01*
X213323Y-193423D01*
X212542Y-194955D01*
X211531Y-196346D01*
X210316Y-197561D01*
X208925Y-198572D01*
X207393Y-199353D01*
X205758Y-199884D01*
X204060Y-200153D01*
X203961Y-200153D01*
G37*
%LPD*%
%LPC*%
G36*
X203961Y-188469D02*
X203961Y-188469D01*
X203961Y-178307D01*
X204060Y-178307D01*
X205758Y-178576D01*
X207393Y-179107D01*
X208925Y-179888D01*
X210316Y-180899D01*
X211531Y-182114D01*
X212542Y-183505D01*
X213323Y-185037D01*
X213854Y-186672D01*
X214123Y-188370D01*
X214123Y-188469D01*
X203961Y-188469D01*
G37*
%LPD*%
%LPC*%
G36*
X202340Y-200153D02*
X202340Y-200153D01*
X200642Y-199884D01*
X199007Y-199353D01*
X197475Y-198572D01*
X196084Y-197561D01*
X194869Y-196346D01*
X193858Y-194955D01*
X193077Y-193423D01*
X192546Y-191788D01*
X192277Y-190090D01*
X192277Y-189991D01*
X202439Y-189991D01*
X202439Y-200153D01*
X202340Y-200153D01*
G37*
%LPD*%
%LPC*%
G36*
X192277Y-188469D02*
X192277Y-188469D01*
X192277Y-188370D01*
X192546Y-186672D01*
X193077Y-185037D01*
X193858Y-183505D01*
X194869Y-182114D01*
X196084Y-180899D01*
X197475Y-179888D01*
X199007Y-179107D01*
X200642Y-178576D01*
X202340Y-178307D01*
X202439Y-178307D01*
X202439Y-188469D01*
X192277Y-188469D01*
G37*
%LPD*%
%LPC*%
G36*
X94106Y-238380D02*
X94106Y-238380D01*
X94106Y-228726D01*
X103760Y-228726D01*
X103760Y-228785D01*
X103503Y-230404D01*
X102997Y-231963D01*
X102252Y-233424D01*
X101289Y-234750D01*
X100130Y-235909D01*
X98804Y-236872D01*
X97343Y-237617D01*
X95784Y-238123D01*
X94165Y-238380D01*
X94106Y-238380D01*
G37*
%LPD*%
%LPC*%
G36*
X93471Y206120D02*
X93471Y206120D01*
X93471Y215774D01*
X103125Y215774D01*
X103125Y215715D01*
X102868Y214096D01*
X102362Y212537D01*
X101617Y211076D01*
X100654Y209750D01*
X99495Y208591D01*
X98169Y207628D01*
X96708Y206883D01*
X95149Y206377D01*
X93530Y206120D01*
X93471Y206120D01*
G37*
%LPD*%
%LPC*%
G36*
X94106Y-227204D02*
X94106Y-227204D01*
X94106Y-217550D01*
X94165Y-217550D01*
X95784Y-217807D01*
X97343Y-218313D01*
X98804Y-219058D01*
X100130Y-220021D01*
X101289Y-221180D01*
X102252Y-222506D01*
X102997Y-223967D01*
X103503Y-225526D01*
X103760Y-227145D01*
X103760Y-227204D01*
X94106Y-227204D01*
G37*
%LPD*%
%LPC*%
G36*
X92525Y-238380D02*
X92525Y-238380D01*
X90906Y-238123D01*
X89347Y-237617D01*
X87886Y-236872D01*
X86560Y-235909D01*
X85401Y-234750D01*
X84438Y-233424D01*
X83693Y-231963D01*
X83187Y-230404D01*
X82930Y-228785D01*
X82930Y-228726D01*
X92584Y-228726D01*
X92584Y-238380D01*
X92525Y-238380D01*
G37*
%LPD*%
%LPC*%
G36*
X91890Y206120D02*
X91890Y206120D01*
X90271Y206377D01*
X88712Y206883D01*
X87251Y207628D01*
X85925Y208591D01*
X84766Y209750D01*
X83803Y211076D01*
X83058Y212537D01*
X82552Y214096D01*
X82295Y215715D01*
X82295Y215774D01*
X91949Y215774D01*
X91949Y206120D01*
X91890Y206120D01*
G37*
%LPD*%
%LPC*%
G36*
X82930Y-227204D02*
X82930Y-227204D01*
X82930Y-227145D01*
X83187Y-225526D01*
X83693Y-223967D01*
X84438Y-222506D01*
X85401Y-221180D01*
X86560Y-220021D01*
X87886Y-219058D01*
X89347Y-218313D01*
X90906Y-217807D01*
X92525Y-217550D01*
X92584Y-217550D01*
X92584Y-227204D01*
X82930Y-227204D01*
G37*
%LPD*%
%LPC*%
G36*
X340749Y97844D02*
X340749Y97844D01*
X340749Y103426D01*
X340849Y103426D01*
X342024Y103192D01*
X343130Y102734D01*
X344126Y102068D01*
X344973Y101221D01*
X345639Y100225D01*
X346097Y99119D01*
X346331Y97944D01*
X346331Y97844D01*
X340749Y97844D01*
G37*
%LPD*%
%LPC*%
G36*
X368274Y88669D02*
X368274Y88669D01*
X368274Y94251D01*
X368374Y94251D01*
X369549Y94017D01*
X370655Y93559D01*
X371651Y92893D01*
X372498Y92046D01*
X373164Y91050D01*
X373622Y89944D01*
X373856Y88769D01*
X373856Y88669D01*
X368274Y88669D01*
G37*
%LPD*%
%LPC*%
G36*
X377449Y97844D02*
X377449Y97844D01*
X377449Y103426D01*
X377549Y103426D01*
X378724Y103192D01*
X379830Y102734D01*
X380826Y102068D01*
X381673Y101221D01*
X382339Y100225D01*
X382797Y99119D01*
X383031Y97944D01*
X383031Y97844D01*
X377449Y97844D01*
G37*
%LPD*%
%LPC*%
G36*
X349924Y88669D02*
X349924Y88669D01*
X349924Y94251D01*
X350024Y94251D01*
X351199Y94017D01*
X352305Y93559D01*
X353301Y92893D01*
X354148Y92046D01*
X354814Y91050D01*
X355272Y89944D01*
X355506Y88769D01*
X355506Y88669D01*
X349924Y88669D01*
G37*
%LPD*%
%LPC*%
G36*
X349924Y125369D02*
X349924Y125369D01*
X349924Y130951D01*
X350024Y130951D01*
X351199Y130717D01*
X352305Y130259D01*
X353301Y129593D01*
X354148Y128746D01*
X354814Y127750D01*
X355272Y126644D01*
X355506Y125469D01*
X355506Y125369D01*
X349924Y125369D01*
G37*
%LPD*%
%LPC*%
G36*
X368274Y125369D02*
X368274Y125369D01*
X368274Y130951D01*
X368374Y130951D01*
X369549Y130717D01*
X370655Y130259D01*
X371651Y129593D01*
X372498Y128746D01*
X373164Y127750D01*
X373622Y126644D01*
X373856Y125469D01*
X373856Y125369D01*
X368274Y125369D01*
G37*
%LPD*%
%LPC*%
G36*
X377449Y116194D02*
X377449Y116194D01*
X377449Y121776D01*
X377549Y121776D01*
X378724Y121542D01*
X379830Y121084D01*
X380826Y120418D01*
X381673Y119571D01*
X382339Y118575D01*
X382797Y117469D01*
X383031Y116294D01*
X383031Y116194D01*
X377449Y116194D01*
G37*
%LPD*%
%LPC*%
G36*
X359099Y116194D02*
X359099Y116194D01*
X359099Y121776D01*
X359199Y121776D01*
X360374Y121542D01*
X361480Y121084D01*
X362476Y120418D01*
X363323Y119571D01*
X363989Y118575D01*
X364447Y117469D01*
X364681Y116294D01*
X364681Y116194D01*
X359099Y116194D01*
G37*
%LPD*%
%LPC*%
G36*
X340749Y116194D02*
X340749Y116194D01*
X340749Y121776D01*
X340849Y121776D01*
X342024Y121542D01*
X343130Y121084D01*
X344126Y120418D01*
X344973Y119571D01*
X345639Y118575D01*
X346097Y117469D01*
X346331Y116294D01*
X346331Y116194D01*
X340749Y116194D01*
G37*
%LPD*%
%LPC*%
G36*
X349924Y107019D02*
X349924Y107019D01*
X349924Y112601D01*
X350024Y112601D01*
X351199Y112367D01*
X352305Y111909D01*
X353301Y111243D01*
X354148Y110396D01*
X354814Y109400D01*
X355272Y108294D01*
X355506Y107119D01*
X355506Y107019D01*
X349924Y107019D01*
G37*
%LPD*%
%LPC*%
G36*
X368274Y107019D02*
X368274Y107019D01*
X368274Y112601D01*
X368374Y112601D01*
X369549Y112367D01*
X370655Y111909D01*
X371651Y111243D01*
X372498Y110396D01*
X373164Y109400D01*
X373622Y108294D01*
X373856Y107119D01*
X373856Y107019D01*
X368274Y107019D01*
G37*
%LPD*%
%LPC*%
G36*
X359099Y97844D02*
X359099Y97844D01*
X359099Y103426D01*
X359199Y103426D01*
X360374Y103192D01*
X361480Y102734D01*
X362476Y102068D01*
X363323Y101221D01*
X363989Y100225D01*
X364447Y99119D01*
X364681Y97944D01*
X364681Y97844D01*
X359099Y97844D01*
G37*
%LPD*%
%LPC*%
G36*
X370869Y97844D02*
X370869Y97844D01*
X370869Y97944D01*
X370995Y98575D01*
X370995Y98576D01*
X371071Y98956D01*
X371103Y99119D01*
X371561Y100225D01*
X372227Y101221D01*
X373074Y102068D01*
X374070Y102734D01*
X375176Y103192D01*
X376351Y103426D01*
X376451Y103426D01*
X376451Y97844D01*
X370869Y97844D01*
G37*
%LPD*%
%LPC*%
G36*
X352519Y97844D02*
X352519Y97844D01*
X352519Y97944D01*
X352645Y98575D01*
X352645Y98576D01*
X352721Y98956D01*
X352753Y99119D01*
X353211Y100225D01*
X353877Y101221D01*
X354724Y102068D01*
X355720Y102734D01*
X356826Y103192D01*
X358001Y103426D01*
X358101Y103426D01*
X358101Y97844D01*
X352519Y97844D01*
G37*
%LPD*%
%LPC*%
G36*
X334169Y97844D02*
X334169Y97844D01*
X334169Y97944D01*
X334295Y98575D01*
X334295Y98576D01*
X334371Y98956D01*
X334403Y99119D01*
X334861Y100225D01*
X335527Y101221D01*
X336374Y102068D01*
X337370Y102734D01*
X338476Y103192D01*
X339651Y103426D01*
X339751Y103426D01*
X339751Y97844D01*
X334169Y97844D01*
G37*
%LPD*%
%LPC*%
G36*
X359099Y91264D02*
X359099Y91264D01*
X359099Y96846D01*
X364681Y96846D01*
X364681Y96746D01*
X364468Y95679D01*
X364468Y95678D01*
X364447Y95571D01*
X363989Y94465D01*
X363323Y93469D01*
X362476Y92622D01*
X361480Y91956D01*
X360374Y91498D01*
X359199Y91264D01*
X359099Y91264D01*
G37*
%LPD*%
%LPC*%
G36*
X340749Y91264D02*
X340749Y91264D01*
X340749Y96846D01*
X346331Y96846D01*
X346331Y96746D01*
X346118Y95679D01*
X346118Y95678D01*
X346097Y95571D01*
X345639Y94465D01*
X344973Y93469D01*
X344126Y92622D01*
X343130Y91956D01*
X342024Y91498D01*
X340849Y91264D01*
X340749Y91264D01*
G37*
%LPD*%
%LPC*%
G36*
X377449Y91264D02*
X377449Y91264D01*
X377449Y96846D01*
X383031Y96846D01*
X383031Y96746D01*
X382818Y95679D01*
X382818Y95678D01*
X382797Y95571D01*
X382339Y94465D01*
X381673Y93469D01*
X380826Y92622D01*
X379830Y91956D01*
X378724Y91498D01*
X377549Y91264D01*
X377449Y91264D01*
G37*
%LPD*%
%LPC*%
G36*
X343344Y88669D02*
X343344Y88669D01*
X343344Y88769D01*
X343480Y89449D01*
X343480Y89450D01*
X343555Y89830D01*
X343578Y89944D01*
X344036Y91050D01*
X344702Y92046D01*
X345549Y92893D01*
X346545Y93559D01*
X347651Y94017D01*
X348826Y94251D01*
X348926Y94251D01*
X348926Y88669D01*
X343344Y88669D01*
G37*
%LPD*%
%LPC*%
G36*
X361694Y88669D02*
X361694Y88669D01*
X361694Y88769D01*
X361830Y89449D01*
X361830Y89450D01*
X361905Y89830D01*
X361928Y89944D01*
X362386Y91050D01*
X363052Y92046D01*
X363899Y92893D01*
X364895Y93559D01*
X366001Y94017D01*
X367176Y94251D01*
X367276Y94251D01*
X367276Y88669D01*
X361694Y88669D01*
G37*
%LPD*%
%LPC*%
G36*
X370869Y116194D02*
X370869Y116194D01*
X370869Y116294D01*
X370900Y116447D01*
X370975Y116827D01*
X370975Y116828D01*
X371103Y117469D01*
X371561Y118575D01*
X372227Y119571D01*
X373074Y120418D01*
X374070Y121084D01*
X375176Y121542D01*
X376351Y121776D01*
X376451Y121776D01*
X376451Y116194D01*
X370869Y116194D01*
G37*
%LPD*%
%LPC*%
G36*
X352519Y116194D02*
X352519Y116194D01*
X352519Y116294D01*
X352550Y116447D01*
X352625Y116827D01*
X352625Y116828D01*
X352753Y117469D01*
X353211Y118575D01*
X353877Y119571D01*
X354724Y120418D01*
X355720Y121084D01*
X356826Y121542D01*
X358001Y121776D01*
X358101Y121776D01*
X358101Y116194D01*
X352519Y116194D01*
G37*
%LPD*%
%LPC*%
G36*
X334169Y116194D02*
X334169Y116194D01*
X334169Y116294D01*
X334200Y116447D01*
X334275Y116827D01*
X334275Y116828D01*
X334403Y117469D01*
X334861Y118575D01*
X335527Y119571D01*
X336374Y120418D01*
X337370Y121084D01*
X338476Y121542D01*
X339651Y121776D01*
X339751Y121776D01*
X339751Y116194D01*
X334169Y116194D01*
G37*
%LPD*%
%LPC*%
G36*
X368274Y100439D02*
X368274Y100439D01*
X368274Y106021D01*
X373856Y106021D01*
X373856Y105921D01*
X373785Y105565D01*
X373622Y104746D01*
X373164Y103640D01*
X372498Y102644D01*
X371651Y101797D01*
X370655Y101131D01*
X369549Y100673D01*
X368374Y100439D01*
X368274Y100439D01*
G37*
%LPD*%
%LPC*%
G36*
X349924Y100439D02*
X349924Y100439D01*
X349924Y106021D01*
X355506Y106021D01*
X355506Y105921D01*
X355435Y105565D01*
X355272Y104746D01*
X354814Y103640D01*
X354148Y102644D01*
X353301Y101797D01*
X352305Y101131D01*
X351199Y100673D01*
X350024Y100439D01*
X349924Y100439D01*
G37*
%LPD*%
%LPC*%
G36*
X343344Y107019D02*
X343344Y107019D01*
X343344Y107119D01*
X343384Y107321D01*
X343385Y107321D01*
X343460Y107701D01*
X343460Y107702D01*
X343578Y108294D01*
X344036Y109400D01*
X344702Y110396D01*
X345549Y111243D01*
X346545Y111909D01*
X347651Y112367D01*
X348826Y112601D01*
X348926Y112601D01*
X348926Y107019D01*
X343344Y107019D01*
G37*
%LPD*%
%LPC*%
G36*
X361694Y107019D02*
X361694Y107019D01*
X361694Y107119D01*
X361734Y107321D01*
X361735Y107321D01*
X361810Y107701D01*
X361810Y107702D01*
X361928Y108294D01*
X362386Y109400D01*
X363052Y110396D01*
X363899Y111243D01*
X364895Y111909D01*
X366001Y112367D01*
X367176Y112601D01*
X367276Y112601D01*
X367276Y107019D01*
X361694Y107019D01*
G37*
%LPD*%
%LPC*%
G36*
X349924Y118789D02*
X349924Y118789D01*
X349924Y124371D01*
X355506Y124371D01*
X355506Y124271D01*
X355415Y123817D01*
X355340Y123437D01*
X355272Y123096D01*
X354814Y121990D01*
X354148Y120994D01*
X353301Y120147D01*
X352305Y119481D01*
X351199Y119023D01*
X350024Y118789D01*
X349924Y118789D01*
G37*
%LPD*%
%LPC*%
G36*
X368274Y118789D02*
X368274Y118789D01*
X368274Y124371D01*
X373856Y124371D01*
X373856Y124271D01*
X373765Y123817D01*
X373690Y123437D01*
X373622Y123096D01*
X373164Y121990D01*
X372498Y120994D01*
X371651Y120147D01*
X370655Y119481D01*
X369549Y119023D01*
X368374Y118789D01*
X368274Y118789D01*
G37*
%LPD*%
%LPC*%
G36*
X340749Y109614D02*
X340749Y109614D01*
X340749Y115196D01*
X346331Y115196D01*
X346331Y115096D01*
X346326Y115071D01*
X346250Y114691D01*
X346097Y113921D01*
X345639Y112815D01*
X344973Y111819D01*
X344126Y110972D01*
X343130Y110306D01*
X342024Y109848D01*
X340849Y109614D01*
X340749Y109614D01*
G37*
%LPD*%
%LPC*%
G36*
X377449Y109614D02*
X377449Y109614D01*
X377449Y115196D01*
X383031Y115196D01*
X383031Y115096D01*
X383026Y115071D01*
X382950Y114691D01*
X382797Y113921D01*
X382339Y112815D01*
X381673Y111819D01*
X380826Y110972D01*
X379830Y110306D01*
X378724Y109848D01*
X377549Y109614D01*
X377449Y109614D01*
G37*
%LPD*%
%LPC*%
G36*
X359099Y109614D02*
X359099Y109614D01*
X359099Y115196D01*
X364681Y115196D01*
X364681Y115096D01*
X364676Y115071D01*
X364600Y114691D01*
X364447Y113921D01*
X363989Y112815D01*
X363323Y111819D01*
X362476Y110972D01*
X361480Y110306D01*
X360374Y109848D01*
X359199Y109614D01*
X359099Y109614D01*
G37*
%LPD*%
%LPC*%
G36*
X361694Y125369D02*
X361694Y125369D01*
X361694Y125469D01*
X361715Y125573D01*
X361928Y126644D01*
X362386Y127750D01*
X363052Y128746D01*
X363899Y129593D01*
X364895Y130259D01*
X366001Y130717D01*
X367176Y130951D01*
X367276Y130951D01*
X367276Y125369D01*
X361694Y125369D01*
G37*
%LPD*%
%LPC*%
G36*
X343344Y125369D02*
X343344Y125369D01*
X343344Y125469D01*
X343365Y125573D01*
X343578Y126644D01*
X344036Y127750D01*
X344702Y128746D01*
X345549Y129593D01*
X346545Y130259D01*
X347651Y130717D01*
X348826Y130951D01*
X348926Y130951D01*
X348926Y125369D01*
X343344Y125369D01*
G37*
%LPD*%
%LPC*%
G36*
X349924Y82089D02*
X349924Y82089D01*
X349924Y87671D01*
X355506Y87671D01*
X355506Y87571D01*
X355303Y86553D01*
X355303Y86552D01*
X355272Y86396D01*
X354814Y85290D01*
X354148Y84294D01*
X353301Y83447D01*
X352305Y82781D01*
X351199Y82323D01*
X350024Y82089D01*
X349924Y82089D01*
G37*
%LPD*%
%LPC*%
G36*
X368274Y82089D02*
X368274Y82089D01*
X368274Y87671D01*
X373856Y87671D01*
X373856Y87571D01*
X373653Y86553D01*
X373653Y86552D01*
X373622Y86396D01*
X373164Y85290D01*
X372498Y84294D01*
X371651Y83447D01*
X370655Y82781D01*
X369549Y82323D01*
X368374Y82089D01*
X368274Y82089D01*
G37*
%LPD*%
%LPC*%
G36*
X367176Y118789D02*
X367176Y118789D01*
X366001Y119023D01*
X364895Y119481D01*
X363899Y120147D01*
X363052Y120994D01*
X362386Y121990D01*
X361928Y123096D01*
X361694Y124271D01*
X361694Y124371D01*
X367276Y124371D01*
X367276Y118789D01*
X367176Y118789D01*
G37*
%LPD*%
%LPC*%
G36*
X367176Y100439D02*
X367176Y100439D01*
X366001Y100673D01*
X364895Y101131D01*
X363899Y101797D01*
X363052Y102644D01*
X362386Y103640D01*
X361928Y104746D01*
X361694Y105921D01*
X361694Y106021D01*
X367276Y106021D01*
X367276Y100439D01*
X367176Y100439D01*
G37*
%LPD*%
%LPC*%
G36*
X348826Y100439D02*
X348826Y100439D01*
X347651Y100673D01*
X346545Y101131D01*
X345549Y101797D01*
X344702Y102644D01*
X344036Y103640D01*
X343578Y104746D01*
X343344Y105921D01*
X343344Y106021D01*
X348926Y106021D01*
X348926Y100439D01*
X348826Y100439D01*
G37*
%LPD*%
%LPC*%
G36*
X348826Y118789D02*
X348826Y118789D01*
X347651Y119023D01*
X346545Y119481D01*
X345549Y120147D01*
X344702Y120994D01*
X344036Y121990D01*
X343578Y123096D01*
X343344Y124271D01*
X343344Y124371D01*
X348926Y124371D01*
X348926Y118789D01*
X348826Y118789D01*
G37*
%LPD*%
%LPC*%
G36*
X358001Y109614D02*
X358001Y109614D01*
X356826Y109848D01*
X355720Y110306D01*
X354724Y110972D01*
X353877Y111819D01*
X353211Y112815D01*
X352753Y113921D01*
X352519Y115096D01*
X352519Y115196D01*
X358101Y115196D01*
X358101Y109614D01*
X358001Y109614D01*
G37*
%LPD*%
%LPC*%
G36*
X348826Y82089D02*
X348826Y82089D01*
X347651Y82323D01*
X346545Y82781D01*
X345549Y83447D01*
X344702Y84294D01*
X344036Y85290D01*
X343578Y86396D01*
X343344Y87571D01*
X343344Y87671D01*
X348926Y87671D01*
X348926Y82089D01*
X348826Y82089D01*
G37*
%LPD*%
%LPC*%
G36*
X367176Y82089D02*
X367176Y82089D01*
X366001Y82323D01*
X364895Y82781D01*
X363899Y83447D01*
X363052Y84294D01*
X362386Y85290D01*
X361928Y86396D01*
X361694Y87571D01*
X361694Y87671D01*
X367276Y87671D01*
X367276Y82089D01*
X367176Y82089D01*
G37*
%LPD*%
%LPC*%
G36*
X339651Y109614D02*
X339651Y109614D01*
X338476Y109848D01*
X337370Y110306D01*
X336374Y110972D01*
X335527Y111819D01*
X334861Y112815D01*
X334403Y113921D01*
X334169Y115096D01*
X334169Y115196D01*
X339751Y115196D01*
X339751Y109614D01*
X339651Y109614D01*
G37*
%LPD*%
%LPC*%
G36*
X358001Y91264D02*
X358001Y91264D01*
X356826Y91498D01*
X355720Y91956D01*
X354724Y92622D01*
X353877Y93469D01*
X353211Y94465D01*
X352753Y95571D01*
X352519Y96746D01*
X352519Y96846D01*
X358101Y96846D01*
X358101Y91264D01*
X358001Y91264D01*
G37*
%LPD*%
%LPC*%
G36*
X376351Y91264D02*
X376351Y91264D01*
X375176Y91498D01*
X374070Y91956D01*
X373074Y92622D01*
X372227Y93469D01*
X371561Y94465D01*
X371103Y95571D01*
X370869Y96746D01*
X370869Y96846D01*
X376451Y96846D01*
X376451Y91264D01*
X376351Y91264D01*
G37*
%LPD*%
%LPC*%
G36*
X339651Y91264D02*
X339651Y91264D01*
X338476Y91498D01*
X337370Y91956D01*
X336374Y92622D01*
X335527Y93469D01*
X334861Y94465D01*
X334403Y95571D01*
X334169Y96746D01*
X334169Y96846D01*
X339751Y96846D01*
X339751Y91264D01*
X339651Y91264D01*
G37*
%LPD*%
%LPC*%
G36*
X376351Y109614D02*
X376351Y109614D01*
X375176Y109848D01*
X374070Y110306D01*
X373074Y110972D01*
X372227Y111819D01*
X371561Y112815D01*
X371103Y113921D01*
X370869Y115096D01*
X370869Y115196D01*
X376451Y115196D01*
X376451Y109614D01*
X376351Y109614D01*
G37*
%LPD*%
%LPC*%
G36*
X93344Y-227966D02*
X93344Y-227966D01*
X93344Y-227964D01*
X93346Y-227964D01*
X93346Y-227966D01*
X93344Y-227966D01*
G37*
%LPD*%
%LPC*%
G36*
X203199Y-189231D02*
X203199Y-189231D01*
X203199Y-189229D01*
X203201Y-189229D01*
X203201Y-189231D01*
X203199Y-189231D01*
G37*
%LPD*%
%LPC*%
G36*
X316229Y-121921D02*
X316229Y-121921D01*
X316229Y-121919D01*
X316231Y-121919D01*
X316231Y-121921D01*
X316229Y-121921D01*
G37*
%LPD*%
D10*
X93345Y-227965D03*
X118745Y-227965D03*
X144145Y-227965D03*
X169545Y-227965D03*
X194945Y-227965D03*
X220345Y-227965D03*
X245745Y-227965D03*
X271145Y-227965D03*
X296545Y-227965D03*
X321945Y-227965D03*
X347345Y-227965D03*
X372745Y-227965D03*
X398145Y-227965D03*
X423545Y-227965D03*
X448945Y-227965D03*
X474345Y-227965D03*
D11*
X376950Y115695D03*
X376950Y97345D03*
X367775Y124870D03*
X367775Y106520D03*
X367775Y88170D03*
X358600Y115695D03*
X358600Y97345D03*
X349425Y124870D03*
X349425Y106520D03*
X349425Y88170D03*
X340250Y115695D03*
X340250Y97345D03*
D12*
X81705Y-88195D03*
X81705Y-174695D03*
X40005Y-88195D03*
X40005Y-174695D03*
D13*
X78105Y31750D02*
X78105Y46990D01*
X52705Y46990D02*
X52705Y31750D01*
D10*
X473710Y216535D03*
X448310Y216535D03*
X422910Y216535D03*
X397510Y216535D03*
X372110Y216535D03*
X346710Y216535D03*
X321310Y216535D03*
X295910Y216535D03*
X270510Y216535D03*
X245110Y216535D03*
X219710Y216535D03*
X194310Y216535D03*
X168910Y216535D03*
X143510Y216535D03*
X118110Y216535D03*
X92710Y216535D03*
D14*
X127000Y-189230D03*
X152400Y-189230D03*
X177800Y-189230D03*
X203200Y-189230D03*
D15*
X316230Y-68580D03*
X316230Y-86360D03*
X316230Y-104140D03*
X316230Y-121920D03*
D16*
X443230Y-159385D02*
X443230Y-165735D01*
X424180Y-165735D01*
X424180Y-159385D01*
X443230Y-159385D01*
X443230Y-159703D02*
X424180Y-159703D01*
X424180Y-148590D02*
X424180Y-142240D01*
X443230Y-142240D01*
X443230Y-148590D01*
X424180Y-148590D01*
X424180Y-142558D02*
X443230Y-142558D01*
X424180Y-131445D02*
X424180Y-125095D01*
X443230Y-125095D01*
X443230Y-131445D01*
X424180Y-131445D01*
X424180Y-125413D02*
X443230Y-125413D01*
X424180Y-114300D02*
X424180Y-107950D01*
X443230Y-107950D01*
X443230Y-114300D01*
X424180Y-114300D01*
X424180Y-108268D02*
X443230Y-108268D01*
X424180Y-97155D02*
X424180Y-90805D01*
X443230Y-90805D01*
X443230Y-97155D01*
X424180Y-97155D01*
X424180Y-91123D02*
X443230Y-91123D01*
X443230Y-80010D02*
X443230Y-73660D01*
X443230Y-80010D02*
X424180Y-80010D01*
X424180Y-73660D01*
X443230Y-73660D01*
X443230Y-73978D02*
X424180Y-73978D01*
X424180Y-62865D02*
X424180Y-56515D01*
X443230Y-56515D01*
X443230Y-62865D01*
X424180Y-62865D01*
X424180Y-56833D02*
X443230Y-56833D01*
X199390Y-146685D02*
X199390Y-153035D01*
X199390Y-146685D02*
X218440Y-146685D01*
X218440Y-153035D01*
X199390Y-153035D01*
X199390Y-147003D02*
X218440Y-147003D01*
X199390Y-135890D02*
X199390Y-129540D01*
X218440Y-129540D01*
X218440Y-135890D01*
X199390Y-135890D01*
X199390Y-129858D02*
X218440Y-129858D01*
X199390Y-118745D02*
X199390Y-112395D01*
X218440Y-112395D01*
X218440Y-118745D01*
X199390Y-118745D01*
X199390Y-112713D02*
X218440Y-112713D01*
X199390Y-101600D02*
X199390Y-95250D01*
X218440Y-95250D01*
X218440Y-101600D01*
X199390Y-101600D01*
X199390Y-95568D02*
X218440Y-95568D01*
X198755Y-83820D02*
X198755Y-77470D01*
X217805Y-77470D01*
X217805Y-83820D01*
X198755Y-83820D01*
X198755Y-77788D02*
X217805Y-77788D01*
D17*
X145415Y195580D03*
X180340Y161925D03*
X252730Y164465D03*
X187960Y47625D03*
X203200Y-43180D03*
X104775Y-54610D03*
X86360Y-43815D03*
X117475Y635D03*
X96520Y27305D03*
X85090Y5080D03*
X104140Y58420D03*
X69850Y109220D03*
X38735Y93345D03*
X297815Y85725D03*
X299085Y32385D03*
X318770Y-51435D03*
X262890Y-29845D03*
X344805Y-120650D03*
X322580Y-162560D03*
X219710Y-189865D03*
X231140Y-164465D03*
X168275Y-166370D03*
X154305Y-88265D03*
X158115Y-79375D03*
X301625Y146050D03*
X396875Y142875D03*
X250825Y-187960D03*
X226695Y139700D03*
X203200Y162560D03*
X139065Y-138430D03*
X148715Y108903D03*
D18*
X148715Y103249D01*
X147320Y101854D01*
X141301Y101854D01*
X137491Y98044D01*
X83376Y105220D02*
X83376Y163343D01*
D17*
X83376Y163343D03*
D18*
X90551Y98044D02*
X137491Y98044D01*
X90551Y98044D02*
X83376Y105220D01*
D17*
X144082Y76835D03*
D18*
X158179Y76835D01*
D17*
X158179Y76835D03*
D18*
X144145Y-217805D02*
X144145Y-227965D01*
D17*
X239395Y34925D03*
D18*
X239395Y38735D01*
X235585Y42545D01*
X226060Y42545D01*
X222250Y38735D02*
X201930Y38735D01*
X197485Y43180D01*
X197485Y56515D01*
D17*
X197485Y56515D03*
D18*
X222250Y38735D02*
X226060Y42545D01*
D17*
X241935Y189421D03*
D18*
X251905Y199390D01*
X400685Y161290D02*
X412115Y161290D01*
D17*
X412115Y161290D03*
D18*
X362585Y199390D02*
X251905Y199390D01*
X362585Y199390D02*
X400685Y161290D01*
D17*
X177419Y76835D03*
D18*
X174943Y79312D01*
X181599Y130683D02*
X187314Y130683D01*
X200851Y189421D02*
X241935Y189421D01*
X174943Y124027D02*
X174943Y79312D01*
X174943Y124027D02*
X181599Y130683D01*
X187314Y130683D02*
X195580Y138949D01*
X195580Y184150D01*
X200851Y189421D01*
D17*
X335915Y-64770D03*
D18*
X335915Y-66040D01*
X333375Y-68580D01*
X316230Y-68580D01*
X298133Y-68580D01*
D17*
X298133Y-68580D03*
X230505Y-130302D03*
D18*
X233236Y-133033D01*
X233425Y-133033D01*
X239395Y-139003D01*
X219456Y-207899D02*
X212033Y-207899D01*
X211144Y-208788D01*
X146050Y-215900D02*
X144145Y-217805D01*
X239395Y-184976D02*
X239395Y-139003D01*
X239395Y-184976D02*
X239395Y-187960D01*
X219456Y-207899D01*
X211144Y-208788D02*
X172096Y-208788D01*
X164984Y-215900D01*
X146050Y-215900D01*
D17*
X239395Y-184976D03*
X408200Y181520D03*
D18*
X408200Y190903D01*
X410210Y192913D01*
X442584Y192913D01*
X447791Y198120D01*
X473710Y204470D02*
X473710Y216535D01*
X467360Y198120D02*
X447791Y198120D01*
X467360Y198120D02*
X473710Y204470D01*
D17*
X187325Y83884D03*
D18*
X187325Y76773D01*
X174943Y52907D02*
X163311Y41275D01*
X159385Y41275D01*
X153035Y34925D01*
X153035Y16510D01*
D17*
X153035Y15875D03*
D18*
X153035Y16510D01*
X174943Y64390D02*
X187325Y76773D01*
X174943Y64390D02*
X174943Y52907D01*
D17*
X163195Y-3239D03*
D18*
X165735Y-699D01*
X161925Y16510D02*
X153035Y16510D01*
X165735Y12700D02*
X165735Y-699D01*
X165735Y12700D02*
X161925Y16510D01*
X423545Y-216132D02*
X423545Y-227965D01*
X397394Y-5715D02*
X396240Y-5715D01*
D17*
X396240Y-5715D03*
D18*
X397394Y-5715D02*
X411861Y-20182D01*
X396240Y-5715D02*
X396240Y5080D01*
X393065Y8255D01*
X380365Y8255D01*
X375412Y-48959D02*
X377889Y-51435D01*
D17*
X377889Y-51435D03*
X183515Y-130175D03*
D18*
X183515Y-65405D01*
X191770Y-57150D02*
X191770Y-48857D01*
D17*
X191770Y-48857D03*
D18*
X375412Y3302D02*
X380365Y8255D01*
X375412Y3302D02*
X375412Y-48959D01*
X191770Y-57150D02*
X183515Y-65405D01*
X421408Y-213995D02*
X423545Y-216132D01*
X407797Y-213995D02*
X402717Y-208915D01*
X402717Y-207656D01*
X390906Y-195845D01*
X390906Y-60960D02*
X393700Y-58166D01*
X398769Y-58166D01*
X411861Y-45074D02*
X411861Y-20182D01*
X407797Y-213995D02*
X421408Y-213995D01*
X390906Y-195845D02*
X390906Y-60960D01*
X398769Y-58166D02*
X411861Y-45074D01*
D17*
X187960Y-20574D03*
D18*
X190691Y-17844D01*
X190880Y-17844D01*
X198882Y-9841D01*
X198882Y6034D02*
X203739Y10891D01*
X254539Y10891D01*
X254635Y10795D01*
D17*
X254635Y10795D03*
D18*
X198882Y6034D02*
X198882Y-9841D01*
D17*
X384175Y-5080D03*
D18*
X399415Y-20320D01*
X405533Y-20320D01*
X407289Y-22076D01*
X407289Y-43180D01*
D17*
X391795Y-51118D03*
X173355Y-129540D03*
X132715Y-67120D03*
D18*
X176848Y-67120D01*
X178943Y-69215D01*
X391795Y-51118D02*
X399352Y-51118D01*
X407289Y-43180D01*
X391795Y-51118D02*
X386334Y-56579D01*
X398145Y-209550D02*
X398145Y-227965D01*
X386334Y-197739D02*
X386334Y-56579D01*
X386334Y-197739D02*
X398145Y-209550D01*
X178943Y-123952D02*
X173355Y-129540D01*
X178943Y-123952D02*
X178943Y-69215D01*
D17*
X218446Y48901D03*
D18*
X218446Y85096D01*
X232410Y89535D02*
X235585Y92710D01*
D17*
X235585Y92710D03*
D18*
X222885Y89535D02*
X218446Y85096D01*
X222885Y89535D02*
X232410Y89535D01*
D17*
X257810Y27305D03*
D18*
X257810Y101600D01*
X252095Y107315D02*
X240665Y107315D01*
D17*
X240665Y107315D03*
D18*
X252095Y107315D02*
X257810Y101600D01*
D17*
X197485Y25019D03*
D18*
X197485Y24573D01*
X189738Y16826D01*
X189738Y4318D01*
X132525Y-17971D02*
X132525Y-48203D01*
D17*
X132525Y-48203D03*
D18*
X170815Y-14605D02*
X189738Y4318D01*
X170815Y-14605D02*
X135890Y-14605D01*
X132525Y-17971D01*
D17*
X198120Y15240D03*
D18*
X194310Y11430D01*
X189865Y-10795D02*
X187960Y-10795D01*
D17*
X187960Y-10795D03*
D18*
X194310Y-6350D02*
X194310Y11430D01*
X194310Y-6350D02*
X189865Y-10795D01*
D17*
X60135Y176530D03*
D18*
X78550Y194945D01*
X116840Y194945D01*
X124578Y187208D01*
X124578Y186690D01*
D17*
X124578Y186690D03*
X80221Y173122D03*
D18*
X92518Y185420D01*
X114799Y185420D01*
D17*
X114799Y185420D03*
X158179Y97155D03*
D19*
X157544Y96520D01*
X143510Y96520D02*
X139700Y92710D01*
X60594Y92710D02*
X46609Y78725D01*
X46609Y63119D02*
X39370Y55880D01*
X39370Y24765D01*
X143510Y96520D02*
X157544Y96520D01*
X139700Y92710D02*
X60594Y92710D01*
X46609Y78725D02*
X46609Y63119D01*
X39370Y24765D02*
X45720Y18415D01*
X69215Y18415D01*
X78105Y27305D01*
X78105Y39370D01*
D17*
X148469Y156210D03*
D18*
X155405Y163147D01*
X161782Y163147D01*
D17*
X161782Y163147D03*
X188056Y149764D03*
D18*
X190500Y147320D01*
X190500Y140335D01*
X185420Y135255D01*
X179705Y135255D01*
X170371Y125921D01*
X163971Y48401D02*
X158179Y48401D01*
D17*
X158179Y48401D03*
D18*
X170371Y54801D02*
X170371Y125921D01*
X170371Y54801D02*
X163971Y48401D01*
D17*
X158750Y86614D03*
D19*
X63119Y86614D01*
X52705Y76200D02*
X52705Y39370D01*
X52705Y76200D02*
X63119Y86614D01*
D17*
X304165Y-199390D03*
D18*
X304165Y-203708D01*
X302260Y-205613D01*
X300366Y-205613D01*
X288174Y-217805D01*
X271145Y-224790D02*
X271145Y-227965D01*
X278130Y-217805D02*
X288174Y-217805D01*
X278130Y-217805D02*
X271145Y-224790D01*
D17*
X304165Y-170180D03*
D18*
X291084Y-157099D01*
X306705Y-9525D02*
X306705Y-5080D01*
D17*
X306705Y-5080D03*
D18*
X291084Y-25146D02*
X291084Y-157099D01*
X291084Y-25146D02*
X306705Y-9525D01*
D17*
X290830Y-199962D03*
D18*
X290830Y-208683D01*
X286788Y-212725D02*
X251460Y-212725D01*
X286788Y-212725D02*
X290830Y-208683D01*
X245745Y-218440D02*
X245745Y-227965D01*
X245745Y-218440D02*
X251460Y-212725D01*
D17*
X294005Y-5080D03*
D18*
X294005Y-11430D01*
X286512Y-18923D01*
X290830Y-167640D02*
X290830Y-169545D01*
D17*
X290830Y-169545D03*
D18*
X286512Y-163322D02*
X286512Y-18923D01*
X286512Y-163322D02*
X290830Y-167640D01*
D17*
X395605Y197485D03*
D18*
X448310Y205105D02*
X448310Y216535D01*
X440690Y197485D02*
X395605Y197485D01*
X440690Y197485D02*
X448310Y205105D01*
D17*
X383540Y196850D03*
D18*
X391287Y204597D01*
X422910Y207645D02*
X422910Y216535D01*
X399288Y204597D02*
X391287Y204597D01*
X399288Y204597D02*
X401828Y202057D01*
X417322Y202057D01*
X422910Y207645D01*
X370205Y161925D02*
X370205Y145415D01*
D17*
X370205Y161925D03*
D18*
X324485Y141605D02*
X309880Y127000D01*
X324485Y141605D02*
X366395Y141605D01*
X370205Y145415D01*
D17*
X233617Y127380D03*
D18*
X252730Y127000D02*
X309880Y127000D01*
X239076Y121920D02*
X233617Y127380D01*
X247650Y121920D02*
X252730Y127000D01*
X247650Y121920D02*
X239076Y121920D01*
D17*
X136525Y-109855D03*
D18*
X165799Y73089D02*
X165799Y100902D01*
X161290Y105410D02*
X156845Y105410D01*
X155763Y111822D02*
X151634Y115951D01*
X145795Y115951D01*
X141666Y111822D01*
X141666Y108585D01*
X155763Y106492D02*
X156845Y105410D01*
X155763Y106492D02*
X155763Y111822D01*
X141666Y108585D02*
X139507Y106426D01*
X139407Y106426D01*
X135597Y102616D01*
X92445Y102616D02*
X87948Y107113D01*
X87948Y157947D02*
X90424Y160424D01*
X90424Y167894D01*
X117718Y178372D02*
X119052Y179705D01*
X117718Y178372D02*
X100902Y178372D01*
X121594Y179705D02*
X121658Y179642D01*
X129477Y179642D01*
X133350Y183515D01*
X133350Y198120D01*
X118110Y213360D02*
X118110Y216535D01*
X161290Y105410D02*
X165799Y100902D01*
X135597Y102616D02*
X92445Y102616D01*
X87948Y107113D02*
X87948Y157947D01*
X90424Y167894D02*
X100902Y178372D01*
X119052Y179705D02*
X121594Y179705D01*
X133350Y198120D02*
X118110Y213360D01*
X165799Y73089D02*
X160655Y67945D01*
X148463Y55753D01*
X148463Y21271D01*
X124460Y-20955D02*
X124460Y-28575D01*
X124460Y-38735D01*
D17*
X187960Y184785D03*
D18*
X162560Y184785D01*
X159385Y187960D02*
X159385Y200660D01*
X156210Y203835D01*
X154940Y203835D01*
X143510Y215265D01*
X143510Y216535D01*
X159385Y187960D02*
X162560Y184785D01*
D17*
X87630Y-31115D03*
D19*
X118745Y-31115D01*
X121920Y-31115D01*
X124460Y-28575D01*
X118745Y-31115D02*
X124460Y-36830D01*
X124460Y-38735D01*
X124460Y-87630D02*
X136525Y-99695D01*
X124460Y-87630D02*
X124460Y-38735D01*
X136525Y-99695D02*
X136525Y-109855D01*
X124460Y-36830D02*
X124460Y-20955D01*
X124460Y-10160D01*
X145225Y19110D02*
X147701Y21587D01*
X145225Y19110D02*
X145225Y10605D01*
X147701Y54991D02*
X160655Y67945D01*
X145225Y10605D02*
X124460Y-10160D01*
X147701Y21587D02*
X147701Y54991D01*
D17*
X421005Y-4445D03*
D18*
X423545Y-203200D02*
X426720Y-203200D01*
X470535Y-203200D01*
X473710Y-206375D01*
X473710Y-227330D02*
X474345Y-227965D01*
X473710Y-227330D02*
X473710Y-206375D01*
X423545Y-203200D02*
X411192Y-203200D01*
X400050Y-69816D02*
X421005Y-48861D01*
X400050Y-192058D02*
X411192Y-203200D01*
X400050Y-192058D02*
X400050Y-69816D01*
X421005Y-48861D02*
X421005Y-4445D01*
D17*
X363220Y-214059D03*
D18*
X379095Y-214059D01*
X379794Y-213360D01*
D17*
X379794Y-213360D03*
X408305Y-3810D03*
D18*
X408305Y-10160D01*
X443230Y-207772D02*
X448945Y-213487D01*
X448945Y-227965D01*
X416433Y-18288D02*
X408305Y-10160D01*
X416433Y-18288D02*
X416433Y-46968D01*
X395478Y-67923D01*
X395478Y-186055D01*
X395478Y-193951D01*
X409299Y-207772D01*
X443230Y-207772D01*
D17*
X363855Y-5715D03*
D18*
X363855Y-15240D02*
X370840Y-22225D01*
X363855Y-15240D02*
X363855Y-5715D01*
X370840Y-22225D02*
X370840Y-55880D01*
X381762Y-66802D01*
X381762Y-201422D01*
X386842Y-206502D01*
X386842Y-220218D01*
X379095Y-227965D01*
X372745Y-227965D01*
D17*
X344805Y-4445D03*
D18*
X344805Y-16510D01*
X349885Y-21590D02*
X362585Y-21590D01*
X365633Y-24638D01*
X365633Y-57139D02*
X377190Y-68696D01*
X377190Y-200280D01*
X347345Y-210185D02*
X347345Y-227965D01*
X349885Y-21590D02*
X344805Y-16510D01*
X365633Y-24638D02*
X365633Y-57139D01*
X377190Y-200280D02*
X371095Y-206375D01*
X351155Y-206375D01*
X347345Y-210185D01*
X321945Y-210185D02*
X321945Y-227965D01*
X369202Y-201803D02*
X372618Y-198387D01*
X372618Y-70590D01*
X361061Y-59033D01*
X361061Y-29718D02*
X357505Y-26162D01*
X347991Y-26162D01*
X340233Y-18404D01*
X340233Y-18288D01*
X332105Y-10160D02*
X332105Y-5080D01*
D17*
X332105Y-5080D03*
D18*
X330327Y-201803D02*
X321945Y-210185D01*
X330327Y-201803D02*
X369202Y-201803D01*
X361061Y-59033D02*
X361061Y-29718D01*
X340233Y-18288D02*
X332105Y-10160D01*
D17*
X319405Y-5080D03*
D18*
X333375Y-19050D01*
X334413Y-19050D01*
X356489Y-60926D02*
X368046Y-72483D01*
X368046Y-195517D01*
X366395Y-197168D01*
X315479Y-210185D02*
X302260Y-210185D01*
X328497Y-197168D02*
X366395Y-197168D01*
X328497Y-197168D02*
X315479Y-210185D01*
X302260Y-210185D02*
X296545Y-215900D01*
X296545Y-227965D01*
X356489Y-41126D02*
X334413Y-19050D01*
X356489Y-41126D02*
X356489Y-60926D01*
X241300Y-207010D02*
X220345Y-227965D01*
X276225Y-207010D02*
X281940Y-201295D01*
X281940Y-4445D01*
D17*
X281940Y-4445D03*
D18*
X276225Y-207010D02*
X241300Y-207010D01*
X263525Y-202438D02*
X277368Y-188595D01*
X277368Y-9841D01*
X274892Y-7365D02*
X274892Y9462D01*
X283845Y18415D02*
X328930Y18415D01*
X335915Y25400D01*
X280670Y38735D02*
X274320Y38735D01*
D17*
X274320Y38735D03*
D18*
X274892Y-7365D02*
X277368Y-9841D01*
X274892Y9462D02*
X283845Y18415D01*
X335915Y25400D02*
X335915Y35560D01*
X325755Y45720D01*
X287655Y45720D01*
X280670Y38735D01*
X204470Y-218440D02*
X194945Y-227965D01*
X214424Y-218440D02*
X215821Y-217043D01*
X224801Y-217043D01*
X239406Y-202438D02*
X263525Y-202438D01*
X214424Y-218440D02*
X204470Y-218440D01*
X224801Y-217043D02*
X239406Y-202438D01*
D17*
X324898Y36608D03*
D18*
X324898Y27845D01*
X320040Y22987D01*
X281951Y22987D01*
X270320Y11355D01*
X270320Y-19495D02*
X272796Y-21971D01*
X272796Y-186055D02*
X260985Y-197866D01*
X270320Y-19495D02*
X270320Y11355D01*
X272796Y-21971D02*
X272796Y-186055D01*
X222907Y-212471D02*
X213927Y-212471D01*
X213038Y-213360D01*
X169545Y-217805D02*
X169545Y-227965D01*
X237512Y-197866D02*
X260985Y-197866D01*
X237512Y-197866D02*
X222907Y-212471D01*
X213038Y-213360D02*
X173990Y-213360D01*
X169545Y-217805D01*
X315595Y-86995D02*
X316230Y-86360D01*
X315595Y-86995D02*
X298133Y-86995D01*
D17*
X298133Y-86995D03*
D18*
X298133Y-104140D02*
X316230Y-104140D01*
D17*
X298133Y-104140D03*
X249610Y-97790D03*
D18*
X238760Y-97790D01*
X221615Y-80645D02*
X208280Y-80645D01*
X221615Y-80645D02*
X238760Y-97790D01*
D17*
X249610Y-110490D03*
D18*
X235585Y-110490D01*
X223520Y-98425D02*
X208915Y-98425D01*
X223520Y-98425D02*
X235585Y-110490D01*
X222885Y-115570D02*
X208915Y-115570D01*
X230505Y-123190D02*
X249610Y-123190D01*
D17*
X249610Y-123190D03*
D18*
X230505Y-123190D02*
X222885Y-115570D01*
X222885Y-132715D02*
X208915Y-132715D01*
X230251Y-140081D02*
X230505Y-140081D01*
D17*
X230505Y-140081D03*
D18*
X230251Y-140081D02*
X222885Y-132715D01*
X230505Y-149860D02*
X208915Y-149860D01*
D17*
X230505Y-149860D03*
X433705Y-59690D03*
X433705Y-76835D03*
X433705Y-93980D03*
X433705Y-111125D03*
X433705Y-128270D03*
X433705Y-145415D03*
X433705Y-162560D03*
X99060Y-116205D03*
D19*
X97790Y-117475D01*
X66040Y-117475D01*
X60325Y-111760D01*
X60325Y-24765D02*
X66675Y-18415D01*
D17*
X66675Y-18415D03*
D19*
X60325Y-24765D02*
X60325Y-111760D01*
X66675Y-18415D02*
X93345Y-18415D01*
X101600Y-10160D02*
X101600Y14605D01*
X109855Y22860D01*
X118110Y22860D02*
X120015Y24765D01*
X120015Y48324D01*
D17*
X120015Y48324D03*
D19*
X101600Y-10160D02*
X93345Y-18415D01*
X109855Y22860D02*
X118110Y22860D01*
M02*
