G04 EAGLE Gerber RS-274X export*
G75*
%MOMM*%
%FSLAX34Y34*%
%LPD*%
%IN*%
%IPPOS*%
%AMOC8*
5,1,8,0,0,1.08239X$1,22.5*%
G01*
%ADD10C,0.254000*%


D10*
X26035Y-216535D02*
X26132Y-218749D01*
X26421Y-220946D01*
X26900Y-223109D01*
X27567Y-225222D01*
X28415Y-227270D01*
X29438Y-229235D01*
X30629Y-231104D01*
X31977Y-232862D01*
X33475Y-234496D01*
X35108Y-235993D01*
X36866Y-237341D01*
X38735Y-238532D01*
X40701Y-239555D01*
X42748Y-240403D01*
X44861Y-241070D01*
X47024Y-241549D01*
X49221Y-241838D01*
X51435Y-241935D01*
X514350Y-241935D01*
X516564Y-241838D01*
X518761Y-241549D01*
X520924Y-241070D01*
X523037Y-240403D01*
X525085Y-239555D01*
X527050Y-238532D01*
X528919Y-237341D01*
X530677Y-235993D01*
X532311Y-234496D01*
X533808Y-232862D01*
X535156Y-231104D01*
X536347Y-229235D01*
X537370Y-227270D01*
X538218Y-225222D01*
X538885Y-223109D01*
X539364Y-220946D01*
X539653Y-218749D01*
X539750Y-216535D01*
X539750Y203200D01*
X539653Y205414D01*
X539364Y207611D01*
X538885Y209774D01*
X538218Y211887D01*
X537370Y213935D01*
X536347Y215900D01*
X535156Y217769D01*
X533808Y219527D01*
X532311Y221161D01*
X530677Y222658D01*
X528919Y224006D01*
X527050Y225197D01*
X525085Y226220D01*
X523037Y227068D01*
X520924Y227735D01*
X518761Y228214D01*
X516564Y228503D01*
X514350Y228600D01*
X51435Y228600D01*
X49221Y228503D01*
X47024Y228214D01*
X44861Y227735D01*
X42748Y227068D01*
X40701Y226220D01*
X38735Y225197D01*
X36866Y224006D01*
X35108Y222658D01*
X33475Y221161D01*
X31977Y219527D01*
X30629Y217769D01*
X29438Y215900D01*
X28415Y213935D01*
X27567Y211887D01*
X26900Y209774D01*
X26421Y207611D01*
X26132Y205414D01*
X26035Y203200D01*
X26035Y-216535D01*
X33005Y-174695D02*
X33016Y-174956D01*
X33051Y-175216D01*
X33107Y-175471D01*
X33186Y-175721D01*
X33286Y-175963D01*
X33407Y-176195D01*
X33548Y-176416D01*
X33707Y-176623D01*
X33884Y-176816D01*
X34077Y-176993D01*
X34284Y-177152D01*
X34505Y-177293D01*
X34737Y-177414D01*
X34979Y-177514D01*
X35229Y-177593D01*
X35484Y-177649D01*
X35744Y-177684D01*
X36005Y-177695D01*
X44005Y-177695D01*
X44266Y-177684D01*
X44526Y-177649D01*
X44781Y-177593D01*
X45031Y-177514D01*
X45273Y-177414D01*
X45505Y-177293D01*
X45726Y-177152D01*
X45933Y-176993D01*
X46126Y-176816D01*
X46303Y-176623D01*
X46462Y-176416D01*
X46603Y-176195D01*
X46724Y-175963D01*
X46824Y-175721D01*
X46903Y-175471D01*
X46959Y-175216D01*
X46994Y-174956D01*
X47005Y-174695D01*
X46994Y-174434D01*
X46959Y-174174D01*
X46903Y-173919D01*
X46824Y-173669D01*
X46724Y-173427D01*
X46603Y-173195D01*
X46462Y-172974D01*
X46303Y-172767D01*
X46126Y-172574D01*
X45933Y-172397D01*
X45726Y-172238D01*
X45505Y-172097D01*
X45273Y-171976D01*
X45031Y-171876D01*
X44781Y-171797D01*
X44526Y-171741D01*
X44266Y-171706D01*
X44005Y-171695D01*
X36005Y-171695D01*
X35744Y-171706D01*
X35484Y-171741D01*
X35229Y-171797D01*
X34979Y-171876D01*
X34737Y-171976D01*
X34505Y-172097D01*
X34284Y-172238D01*
X34077Y-172397D01*
X33884Y-172574D01*
X33707Y-172767D01*
X33548Y-172974D01*
X33407Y-173195D01*
X33286Y-173427D01*
X33186Y-173669D01*
X33107Y-173919D01*
X33051Y-174174D01*
X33016Y-174434D01*
X33005Y-174695D01*
X33005Y-88195D02*
X33016Y-88456D01*
X33051Y-88716D01*
X33107Y-88971D01*
X33186Y-89221D01*
X33286Y-89463D01*
X33407Y-89695D01*
X33548Y-89916D01*
X33707Y-90123D01*
X33884Y-90316D01*
X34077Y-90493D01*
X34284Y-90652D01*
X34505Y-90793D01*
X34737Y-90914D01*
X34979Y-91014D01*
X35229Y-91093D01*
X35484Y-91149D01*
X35744Y-91184D01*
X36005Y-91195D01*
X44005Y-91195D01*
X44266Y-91184D01*
X44526Y-91149D01*
X44781Y-91093D01*
X45031Y-91014D01*
X45273Y-90914D01*
X45505Y-90793D01*
X45726Y-90652D01*
X45933Y-90493D01*
X46126Y-90316D01*
X46303Y-90123D01*
X46462Y-89916D01*
X46603Y-89695D01*
X46724Y-89463D01*
X46824Y-89221D01*
X46903Y-88971D01*
X46959Y-88716D01*
X46994Y-88456D01*
X47005Y-88195D01*
X46994Y-87934D01*
X46959Y-87674D01*
X46903Y-87419D01*
X46824Y-87169D01*
X46724Y-86927D01*
X46603Y-86695D01*
X46462Y-86474D01*
X46303Y-86267D01*
X46126Y-86074D01*
X45933Y-85897D01*
X45726Y-85738D01*
X45505Y-85597D01*
X45273Y-85476D01*
X45031Y-85376D01*
X44781Y-85297D01*
X44526Y-85241D01*
X44266Y-85206D01*
X44005Y-85195D01*
X36005Y-85195D01*
X35744Y-85206D01*
X35484Y-85241D01*
X35229Y-85297D01*
X34979Y-85376D01*
X34737Y-85476D01*
X34505Y-85597D01*
X34284Y-85738D01*
X34077Y-85897D01*
X33884Y-86074D01*
X33707Y-86267D01*
X33548Y-86474D01*
X33407Y-86695D01*
X33286Y-86927D01*
X33186Y-87169D01*
X33107Y-87419D01*
X33051Y-87674D01*
X33016Y-87934D01*
X33005Y-88195D01*
X73205Y-174695D02*
X73216Y-174956D01*
X73251Y-175216D01*
X73307Y-175471D01*
X73386Y-175721D01*
X73486Y-175963D01*
X73607Y-176195D01*
X73748Y-176416D01*
X73907Y-176623D01*
X74084Y-176816D01*
X74277Y-176993D01*
X74484Y-177152D01*
X74705Y-177293D01*
X74937Y-177414D01*
X75179Y-177514D01*
X75429Y-177593D01*
X75684Y-177649D01*
X75944Y-177684D01*
X76205Y-177695D01*
X87205Y-177695D01*
X87466Y-177684D01*
X87726Y-177649D01*
X87981Y-177593D01*
X88231Y-177514D01*
X88473Y-177414D01*
X88705Y-177293D01*
X88926Y-177152D01*
X89133Y-176993D01*
X89326Y-176816D01*
X89503Y-176623D01*
X89662Y-176416D01*
X89803Y-176195D01*
X89924Y-175963D01*
X90024Y-175721D01*
X90103Y-175471D01*
X90159Y-175216D01*
X90194Y-174956D01*
X90205Y-174695D01*
X90194Y-174434D01*
X90159Y-174174D01*
X90103Y-173919D01*
X90024Y-173669D01*
X89924Y-173427D01*
X89803Y-173195D01*
X89662Y-172974D01*
X89503Y-172767D01*
X89326Y-172574D01*
X89133Y-172397D01*
X88926Y-172238D01*
X88705Y-172097D01*
X88473Y-171976D01*
X88231Y-171876D01*
X87981Y-171797D01*
X87726Y-171741D01*
X87466Y-171706D01*
X87205Y-171695D01*
X76205Y-171695D01*
X75944Y-171706D01*
X75684Y-171741D01*
X75429Y-171797D01*
X75179Y-171876D01*
X74937Y-171976D01*
X74705Y-172097D01*
X74484Y-172238D01*
X74277Y-172397D01*
X74084Y-172574D01*
X73907Y-172767D01*
X73748Y-172974D01*
X73607Y-173195D01*
X73486Y-173427D01*
X73386Y-173669D01*
X73307Y-173919D01*
X73251Y-174174D01*
X73216Y-174434D01*
X73205Y-174695D01*
X73205Y-88195D02*
X73216Y-88456D01*
X73251Y-88716D01*
X73307Y-88971D01*
X73386Y-89221D01*
X73486Y-89463D01*
X73607Y-89695D01*
X73748Y-89916D01*
X73907Y-90123D01*
X74084Y-90316D01*
X74277Y-90493D01*
X74484Y-90652D01*
X74705Y-90793D01*
X74937Y-90914D01*
X75179Y-91014D01*
X75429Y-91093D01*
X75684Y-91149D01*
X75944Y-91184D01*
X76205Y-91195D01*
X87205Y-91195D01*
X87466Y-91184D01*
X87726Y-91149D01*
X87981Y-91093D01*
X88231Y-91014D01*
X88473Y-90914D01*
X88705Y-90793D01*
X88926Y-90652D01*
X89133Y-90493D01*
X89326Y-90316D01*
X89503Y-90123D01*
X89662Y-89916D01*
X89803Y-89695D01*
X89924Y-89463D01*
X90024Y-89221D01*
X90103Y-88971D01*
X90159Y-88716D01*
X90194Y-88456D01*
X90205Y-88195D01*
X90194Y-87934D01*
X90159Y-87674D01*
X90103Y-87419D01*
X90024Y-87169D01*
X89924Y-86927D01*
X89803Y-86695D01*
X89662Y-86474D01*
X89503Y-86267D01*
X89326Y-86074D01*
X89133Y-85897D01*
X88926Y-85738D01*
X88705Y-85597D01*
X88473Y-85476D01*
X88231Y-85376D01*
X87981Y-85297D01*
X87726Y-85241D01*
X87466Y-85206D01*
X87205Y-85195D01*
X76205Y-85195D01*
X75944Y-85206D01*
X75684Y-85241D01*
X75429Y-85297D01*
X75179Y-85376D01*
X74937Y-85476D01*
X74705Y-85597D01*
X74484Y-85738D01*
X74277Y-85897D01*
X74084Y-86074D01*
X73907Y-86267D01*
X73748Y-86474D01*
X73607Y-86695D01*
X73486Y-86927D01*
X73386Y-87169D01*
X73307Y-87419D01*
X73251Y-87674D01*
X73216Y-87934D01*
X73205Y-88195D01*
X525350Y-223952D02*
X525282Y-224814D01*
X525147Y-225668D01*
X524945Y-226508D01*
X524678Y-227330D01*
X524347Y-228129D01*
X523955Y-228899D01*
X523503Y-229636D01*
X522995Y-230335D01*
X522434Y-230993D01*
X521823Y-231604D01*
X521165Y-232165D01*
X520466Y-232673D01*
X519729Y-233125D01*
X518959Y-233517D01*
X518160Y-233848D01*
X517338Y-234115D01*
X516498Y-234317D01*
X515644Y-234452D01*
X514782Y-234520D01*
X513918Y-234520D01*
X513056Y-234452D01*
X512202Y-234317D01*
X511362Y-234115D01*
X510540Y-233848D01*
X509741Y-233517D01*
X508971Y-233125D01*
X508234Y-232673D01*
X507535Y-232165D01*
X506877Y-231604D01*
X506266Y-230993D01*
X505705Y-230335D01*
X505197Y-229636D01*
X504745Y-228899D01*
X504353Y-228129D01*
X504022Y-227330D01*
X503755Y-226508D01*
X503553Y-225668D01*
X503418Y-224814D01*
X503350Y-223952D01*
X503350Y-223088D01*
X503418Y-222226D01*
X503553Y-221372D01*
X503755Y-220532D01*
X504022Y-219710D01*
X504353Y-218911D01*
X504745Y-218141D01*
X505197Y-217404D01*
X505705Y-216705D01*
X506266Y-216047D01*
X506877Y-215436D01*
X507535Y-214875D01*
X508234Y-214367D01*
X508971Y-213915D01*
X509741Y-213523D01*
X510540Y-213192D01*
X511362Y-212925D01*
X512202Y-212723D01*
X513056Y-212588D01*
X513918Y-212520D01*
X514782Y-212520D01*
X515644Y-212588D01*
X516498Y-212723D01*
X517338Y-212925D01*
X518160Y-213192D01*
X518959Y-213523D01*
X519729Y-213915D01*
X520466Y-214367D01*
X521165Y-214875D01*
X521823Y-215436D01*
X522434Y-216047D01*
X522995Y-216705D01*
X523503Y-217404D01*
X523955Y-218141D01*
X524347Y-218911D01*
X524678Y-219710D01*
X524945Y-220532D01*
X525147Y-221372D01*
X525282Y-222226D01*
X525350Y-223088D01*
X525350Y-223952D01*
X525350Y209118D02*
X525282Y208256D01*
X525147Y207402D01*
X524945Y206562D01*
X524678Y205740D01*
X524347Y204941D01*
X523955Y204171D01*
X523503Y203434D01*
X522995Y202735D01*
X522434Y202077D01*
X521823Y201466D01*
X521165Y200905D01*
X520466Y200397D01*
X519729Y199945D01*
X518959Y199553D01*
X518160Y199222D01*
X517338Y198955D01*
X516498Y198753D01*
X515644Y198618D01*
X514782Y198550D01*
X513918Y198550D01*
X513056Y198618D01*
X512202Y198753D01*
X511362Y198955D01*
X510540Y199222D01*
X509741Y199553D01*
X508971Y199945D01*
X508234Y200397D01*
X507535Y200905D01*
X506877Y201466D01*
X506266Y202077D01*
X505705Y202735D01*
X505197Y203434D01*
X504745Y204171D01*
X504353Y204941D01*
X504022Y205740D01*
X503755Y206562D01*
X503553Y207402D01*
X503418Y208256D01*
X503350Y209118D01*
X503350Y209982D01*
X503418Y210844D01*
X503553Y211698D01*
X503755Y212538D01*
X504022Y213360D01*
X504353Y214159D01*
X504745Y214929D01*
X505197Y215666D01*
X505705Y216365D01*
X506266Y217023D01*
X506877Y217634D01*
X507535Y218195D01*
X508234Y218703D01*
X508971Y219155D01*
X509741Y219547D01*
X510540Y219878D01*
X511362Y220145D01*
X512202Y220347D01*
X513056Y220482D01*
X513918Y220550D01*
X514782Y220550D01*
X515644Y220482D01*
X516498Y220347D01*
X517338Y220145D01*
X518160Y219878D01*
X518959Y219547D01*
X519729Y219155D01*
X520466Y218703D01*
X521165Y218195D01*
X521823Y217634D01*
X522434Y217023D01*
X522995Y216365D01*
X523503Y215666D01*
X523955Y214929D01*
X524347Y214159D01*
X524678Y213360D01*
X524945Y212538D01*
X525147Y211698D01*
X525282Y210844D01*
X525350Y209982D01*
X525350Y209118D01*
X39724Y-2750D02*
X39166Y-2687D01*
X38619Y-2562D01*
X38089Y-2377D01*
X37583Y-2133D01*
X37107Y-1834D01*
X36668Y-1484D01*
X36271Y-1087D01*
X35921Y-648D01*
X35622Y-172D01*
X35378Y334D01*
X35193Y864D01*
X35068Y1411D01*
X35005Y1969D01*
X35005Y2531D01*
X35068Y3089D01*
X35193Y3636D01*
X35378Y4166D01*
X35622Y4672D01*
X35921Y5148D01*
X36271Y5587D01*
X36668Y5984D01*
X37107Y6334D01*
X37583Y6633D01*
X38089Y6877D01*
X38619Y7062D01*
X39166Y7187D01*
X39724Y7250D01*
X40286Y7250D01*
X40844Y7187D01*
X41391Y7062D01*
X41921Y6877D01*
X42427Y6633D01*
X42903Y6334D01*
X43342Y5984D01*
X43739Y5587D01*
X44089Y5148D01*
X44388Y4672D01*
X44632Y4166D01*
X44817Y3636D01*
X44942Y3089D01*
X45005Y2531D01*
X45005Y1969D01*
X44942Y1411D01*
X44817Y864D01*
X44632Y334D01*
X44388Y-172D01*
X44089Y-648D01*
X43739Y-1087D01*
X43342Y-1484D01*
X42903Y-1834D01*
X42427Y-2133D01*
X41921Y-2377D01*
X41391Y-2562D01*
X40844Y-2687D01*
X40286Y-2750D01*
X39724Y-2750D01*
X39724Y-70750D02*
X39166Y-70687D01*
X38619Y-70562D01*
X38089Y-70377D01*
X37583Y-70133D01*
X37107Y-69834D01*
X36668Y-69484D01*
X36271Y-69087D01*
X35921Y-68648D01*
X35622Y-68172D01*
X35378Y-67666D01*
X35193Y-67136D01*
X35068Y-66589D01*
X35005Y-66031D01*
X35005Y-65469D01*
X35068Y-64911D01*
X35193Y-64364D01*
X35378Y-63834D01*
X35622Y-63328D01*
X35921Y-62852D01*
X36271Y-62413D01*
X36668Y-62016D01*
X37107Y-61666D01*
X37583Y-61367D01*
X38089Y-61123D01*
X38619Y-60938D01*
X39166Y-60813D01*
X39724Y-60750D01*
X40286Y-60750D01*
X40844Y-60813D01*
X41391Y-60938D01*
X41921Y-61123D01*
X42427Y-61367D01*
X42903Y-61666D01*
X43342Y-62016D01*
X43739Y-62413D01*
X44089Y-62852D01*
X44388Y-63328D01*
X44632Y-63834D01*
X44817Y-64364D01*
X44942Y-64911D01*
X45005Y-65469D01*
X45005Y-66031D01*
X44942Y-66589D01*
X44817Y-67136D01*
X44632Y-67666D01*
X44388Y-68172D01*
X44089Y-68648D01*
X43739Y-69087D01*
X43342Y-69484D01*
X42903Y-69834D01*
X42427Y-70133D01*
X41921Y-70377D01*
X41391Y-70562D01*
X40844Y-70687D01*
X40286Y-70750D01*
X39724Y-70750D01*
X76569Y-105545D02*
X76103Y-105471D01*
X75653Y-105325D01*
X75233Y-105111D01*
X74851Y-104833D01*
X74517Y-104499D01*
X74239Y-104117D01*
X74025Y-103697D01*
X73879Y-103248D01*
X73805Y-102781D01*
X73805Y-102309D01*
X73879Y-101843D01*
X74025Y-101393D01*
X74239Y-100973D01*
X74517Y-100591D01*
X74851Y-100257D01*
X75233Y-99979D01*
X75653Y-99765D01*
X76103Y-99619D01*
X76569Y-99545D01*
X77041Y-99545D01*
X77508Y-99619D01*
X77957Y-99765D01*
X78377Y-99979D01*
X78759Y-100257D01*
X79093Y-100591D01*
X79371Y-100973D01*
X79585Y-101393D01*
X79731Y-101843D01*
X79805Y-102309D01*
X79805Y-102781D01*
X79731Y-103248D01*
X79585Y-103697D01*
X79371Y-104117D01*
X79093Y-104499D01*
X78759Y-104833D01*
X78377Y-105111D01*
X77957Y-105325D01*
X77508Y-105471D01*
X77041Y-105545D01*
X76569Y-105545D01*
X76569Y-163345D02*
X76103Y-163271D01*
X75653Y-163125D01*
X75233Y-162911D01*
X74851Y-162633D01*
X74517Y-162299D01*
X74239Y-161917D01*
X74025Y-161497D01*
X73879Y-161048D01*
X73805Y-160581D01*
X73805Y-160109D01*
X73879Y-159643D01*
X74025Y-159193D01*
X74239Y-158773D01*
X74517Y-158391D01*
X74851Y-158057D01*
X75233Y-157779D01*
X75653Y-157565D01*
X76103Y-157419D01*
X76569Y-157345D01*
X77041Y-157345D01*
X77508Y-157419D01*
X77957Y-157565D01*
X78377Y-157779D01*
X78759Y-158057D01*
X79093Y-158391D01*
X79371Y-158773D01*
X79585Y-159193D01*
X79731Y-159643D01*
X79805Y-160109D01*
X79805Y-160581D01*
X79731Y-161048D01*
X79585Y-161497D01*
X79371Y-161917D01*
X79093Y-162299D01*
X78759Y-162633D01*
X78377Y-162911D01*
X77957Y-163125D01*
X77508Y-163271D01*
X77041Y-163345D01*
X76569Y-163345D01*
M02*
