G04 EAGLE Gerber RS-274X export*
G75*
%MOMM*%
%FSLAX34Y34*%
%LPD*%
%INSilkscreen Bottom*%
%IPPOS*%
%AMOC8*
5,1,8,0,0,1.08239X$1,22.5*%
G01*
%ADD10C,0.050800*%
%ADD11C,0.101600*%
%ADD12R,0.127000X0.025400*%
%ADD13R,0.203200X0.025400*%
%ADD14R,0.279400X0.025400*%
%ADD15R,0.177800X0.025400*%
%ADD16R,0.355600X0.025400*%
%ADD17R,0.381000X0.025400*%
%ADD18R,0.457200X0.025400*%
%ADD19R,0.736600X0.025400*%
%ADD20R,0.508000X0.025400*%
%ADD21R,0.914400X0.025400*%
%ADD22R,0.558800X0.025400*%
%ADD23R,1.092200X0.025400*%
%ADD24R,0.152400X0.025400*%
%ADD25R,0.584200X0.025400*%
%ADD26R,1.219200X0.025400*%
%ADD27R,1.371600X0.025400*%
%ADD28R,0.228600X0.025400*%
%ADD29R,1.473200X0.025400*%
%ADD30R,1.574800X0.025400*%
%ADD31R,1.651000X0.025400*%
%ADD32R,1.752600X0.025400*%
%ADD33R,1.828800X0.025400*%
%ADD34R,1.905000X0.025400*%
%ADD35R,0.889000X0.025400*%
%ADD36R,0.863600X0.025400*%
%ADD37R,0.711200X0.025400*%
%ADD38R,0.431800X0.025400*%
%ADD39R,0.685800X0.025400*%
%ADD40R,0.635000X0.025400*%
%ADD41R,0.406400X0.025400*%
%ADD42R,0.609600X0.025400*%
%ADD43R,0.330200X0.025400*%
%ADD44R,0.533400X0.025400*%
%ADD45R,0.304800X0.025400*%
%ADD46R,0.254000X0.025400*%
%ADD47R,0.482600X0.025400*%
%ADD48R,0.050800X0.025400*%
%ADD49R,0.838200X0.025400*%
%ADD50R,0.965200X0.025400*%
%ADD51R,1.041400X0.025400*%
%ADD52R,1.117600X0.025400*%
%ADD53R,1.270000X0.025400*%
%ADD54R,1.320800X0.025400*%
%ADD55R,1.422400X0.025400*%
%ADD56R,1.524000X0.025400*%
%ADD57R,1.549400X0.025400*%
%ADD58R,0.660400X0.025400*%
%ADD59R,0.101600X0.025400*%
%ADD60R,0.812800X0.025400*%
%ADD61R,1.295400X0.025400*%
%ADD62R,1.244600X0.025400*%
%ADD63R,1.193800X0.025400*%
%ADD64R,0.076200X0.025400*%
%ADD65R,1.066800X0.025400*%
%ADD66R,0.990600X0.025400*%
%ADD67R,0.025400X0.025400*%
%ADD68R,0.787400X0.025400*%
%ADD69R,0.762000X0.025400*%
%ADD70C,0.127000*%
%ADD71C,0.152400*%


D10*
X80836Y211531D02*
X81585Y210782D01*
X81585Y209283D01*
X80836Y208534D01*
X77838Y208534D01*
X77089Y209283D01*
X77089Y210782D01*
X77838Y211531D01*
X79337Y211531D01*
X79337Y210033D01*
X77089Y213138D02*
X81585Y213138D01*
X77089Y216135D01*
X81585Y216135D01*
X81585Y217742D02*
X77089Y217742D01*
X77089Y219990D01*
X77838Y220739D01*
X80836Y220739D01*
X81585Y219990D01*
X81585Y217742D01*
X108255Y211531D02*
X108255Y208534D01*
X106007Y208534D01*
X106756Y210033D01*
X106756Y210782D01*
X106007Y211531D01*
X104508Y211531D01*
X103759Y210782D01*
X103759Y209283D01*
X104508Y208534D01*
X105258Y213138D02*
X108255Y213138D01*
X105258Y213138D02*
X103759Y214637D01*
X105258Y216135D01*
X108255Y216135D01*
X130658Y207899D02*
X133655Y207899D01*
X130658Y207899D02*
X129159Y209398D01*
X130658Y210896D01*
X133655Y210896D01*
X129159Y212503D02*
X129159Y214002D01*
X129159Y213252D02*
X133655Y213252D01*
X133655Y212503D02*
X133655Y214002D01*
X133655Y215572D02*
X129159Y215572D01*
X129159Y218569D02*
X133655Y215572D01*
X133655Y218569D02*
X129159Y218569D01*
X154559Y208534D02*
X159055Y208534D01*
X154559Y208534D02*
X154559Y210782D01*
X155308Y211531D01*
X158306Y211531D01*
X159055Y210782D01*
X159055Y208534D01*
X157556Y213138D02*
X159055Y214637D01*
X154559Y214637D01*
X154559Y216135D02*
X154559Y213138D01*
X158306Y217742D02*
X159055Y218491D01*
X159055Y219990D01*
X158306Y220739D01*
X157556Y220739D01*
X156807Y219990D01*
X156807Y219240D01*
X156807Y219990D02*
X156058Y220739D01*
X155308Y220739D01*
X154559Y219990D01*
X154559Y218491D01*
X155308Y217742D01*
X179959Y208534D02*
X184455Y208534D01*
X179959Y208534D02*
X179959Y210782D01*
X180708Y211531D01*
X183706Y211531D01*
X184455Y210782D01*
X184455Y208534D01*
X182956Y213138D02*
X184455Y214637D01*
X179959Y214637D01*
X179959Y216135D02*
X179959Y213138D01*
X179959Y217742D02*
X179959Y220739D01*
X179959Y217742D02*
X182956Y220739D01*
X183706Y220739D01*
X184455Y219990D01*
X184455Y218491D01*
X183706Y217742D01*
X205359Y208534D02*
X209855Y208534D01*
X205359Y208534D02*
X205359Y210782D01*
X206108Y211531D01*
X209106Y211531D01*
X209855Y210782D01*
X209855Y208534D01*
X208356Y213138D02*
X209855Y214637D01*
X205359Y214637D01*
X205359Y216135D02*
X205359Y213138D01*
X205359Y219990D02*
X209855Y219990D01*
X207607Y217742D01*
X207607Y220739D01*
X230759Y208534D02*
X235255Y208534D01*
X230759Y208534D02*
X230759Y210782D01*
X231508Y211531D01*
X234506Y211531D01*
X235255Y210782D01*
X235255Y208534D01*
X230759Y213138D02*
X230759Y216135D01*
X230759Y213138D02*
X233756Y216135D01*
X234506Y216135D01*
X235255Y215386D01*
X235255Y213887D01*
X234506Y213138D01*
X235255Y217742D02*
X235255Y220739D01*
X234506Y220739D01*
X231508Y217742D01*
X230759Y217742D01*
X256159Y208534D02*
X260655Y208534D01*
X256159Y208534D02*
X256159Y210782D01*
X256908Y211531D01*
X259906Y211531D01*
X260655Y210782D01*
X260655Y208534D01*
X256159Y213138D02*
X256159Y216135D01*
X256159Y213138D02*
X259156Y216135D01*
X259906Y216135D01*
X260655Y215386D01*
X260655Y213887D01*
X259906Y213138D01*
X259906Y219240D02*
X260655Y220739D01*
X259906Y219240D02*
X258407Y217742D01*
X256908Y217742D01*
X256159Y218491D01*
X256159Y219990D01*
X256908Y220739D01*
X257658Y220739D01*
X258407Y219990D01*
X258407Y217742D01*
X280924Y208534D02*
X285420Y208534D01*
X280924Y208534D02*
X280924Y210782D01*
X281673Y211531D01*
X284671Y211531D01*
X285420Y210782D01*
X285420Y208534D01*
X280924Y213138D02*
X280924Y216135D01*
X280924Y213138D02*
X283921Y216135D01*
X284671Y216135D01*
X285420Y215386D01*
X285420Y213887D01*
X284671Y213138D01*
X285420Y217742D02*
X285420Y220739D01*
X285420Y217742D02*
X283172Y217742D01*
X283921Y219240D01*
X283921Y219990D01*
X283172Y220739D01*
X281673Y220739D01*
X280924Y219990D01*
X280924Y218491D01*
X281673Y217742D01*
X306324Y208534D02*
X310820Y208534D01*
X306324Y208534D02*
X306324Y210782D01*
X307073Y211531D01*
X310071Y211531D01*
X310820Y210782D01*
X310820Y208534D01*
X310071Y213138D02*
X310820Y213887D01*
X310820Y215386D01*
X310071Y216135D01*
X309321Y216135D01*
X308572Y215386D01*
X308572Y214637D01*
X308572Y215386D02*
X307823Y216135D01*
X307073Y216135D01*
X306324Y215386D01*
X306324Y213887D01*
X307073Y213138D01*
X310071Y217742D02*
X310820Y218491D01*
X310820Y219990D01*
X310071Y220739D01*
X309321Y220739D01*
X308572Y219990D01*
X308572Y219240D01*
X308572Y219990D02*
X307823Y220739D01*
X307073Y220739D01*
X306324Y219990D01*
X306324Y218491D01*
X307073Y217742D01*
X332359Y208534D02*
X336855Y208534D01*
X332359Y208534D02*
X332359Y210782D01*
X333108Y211531D01*
X336106Y211531D01*
X336855Y210782D01*
X336855Y208534D01*
X336106Y213138D02*
X336855Y213887D01*
X336855Y215386D01*
X336106Y216135D01*
X335356Y216135D01*
X334607Y215386D01*
X334607Y214637D01*
X334607Y215386D02*
X333858Y216135D01*
X333108Y216135D01*
X332359Y215386D01*
X332359Y213887D01*
X333108Y213138D01*
X332359Y217742D02*
X332359Y220739D01*
X332359Y217742D02*
X335356Y220739D01*
X336106Y220739D01*
X336855Y219990D01*
X336855Y218491D01*
X336106Y217742D01*
X357759Y208534D02*
X362255Y208534D01*
X357759Y208534D02*
X357759Y210782D01*
X358508Y211531D01*
X361506Y211531D01*
X362255Y210782D01*
X362255Y208534D01*
X361506Y213138D02*
X362255Y213887D01*
X362255Y215386D01*
X361506Y216135D01*
X360756Y216135D01*
X360007Y215386D01*
X360007Y214637D01*
X360007Y215386D02*
X359258Y216135D01*
X358508Y216135D01*
X357759Y215386D01*
X357759Y213887D01*
X358508Y213138D01*
X362255Y217742D02*
X362255Y220739D01*
X362255Y217742D02*
X360007Y217742D01*
X360756Y219240D01*
X360756Y219990D01*
X360007Y220739D01*
X358508Y220739D01*
X357759Y219990D01*
X357759Y218491D01*
X358508Y217742D01*
X382524Y208534D02*
X387020Y208534D01*
X382524Y208534D02*
X382524Y210782D01*
X383273Y211531D01*
X386271Y211531D01*
X387020Y210782D01*
X387020Y208534D01*
X386271Y213138D02*
X387020Y213887D01*
X387020Y215386D01*
X386271Y216135D01*
X385521Y216135D01*
X384772Y215386D01*
X384772Y214637D01*
X384772Y215386D02*
X384023Y216135D01*
X383273Y216135D01*
X382524Y215386D01*
X382524Y213887D01*
X383273Y213138D01*
X382524Y219990D02*
X387020Y219990D01*
X384772Y217742D01*
X384772Y220739D01*
X409423Y208534D02*
X412420Y208534D01*
X409423Y208534D02*
X407924Y210033D01*
X409423Y211531D01*
X412420Y211531D01*
X412420Y213138D02*
X407924Y213138D01*
X407924Y216135D02*
X412420Y213138D01*
X412420Y216135D02*
X407924Y216135D01*
X435458Y209169D02*
X438455Y209169D01*
X435458Y209169D02*
X433959Y210668D01*
X435458Y212166D01*
X438455Y212166D01*
X438455Y213773D02*
X433959Y213773D01*
X438455Y213773D02*
X438455Y216021D01*
X437706Y216770D01*
X436207Y216770D01*
X435458Y216021D01*
X435458Y213773D01*
X463220Y210896D02*
X463220Y207899D01*
X458724Y207899D01*
X458724Y210896D01*
X460972Y209398D02*
X460972Y207899D01*
X458724Y212503D02*
X463220Y212503D01*
X458724Y215500D01*
X463220Y215500D01*
X80201Y-232334D02*
X80950Y-233083D01*
X80950Y-234582D01*
X80201Y-235331D01*
X77203Y-235331D01*
X76454Y-234582D01*
X76454Y-233083D01*
X77203Y-232334D01*
X78702Y-232334D01*
X78702Y-233832D01*
X76454Y-230727D02*
X80950Y-230727D01*
X76454Y-227730D01*
X80950Y-227730D01*
X80950Y-226123D02*
X76454Y-226123D01*
X76454Y-223875D01*
X77203Y-223126D01*
X80201Y-223126D01*
X80950Y-223875D01*
X80950Y-226123D01*
X108255Y-232334D02*
X108255Y-235331D01*
X106007Y-235331D01*
X106756Y-233832D01*
X106756Y-233083D01*
X106007Y-232334D01*
X104508Y-232334D01*
X103759Y-233083D01*
X103759Y-234582D01*
X104508Y-235331D01*
X105258Y-230727D02*
X108255Y-230727D01*
X105258Y-230727D02*
X103759Y-229229D01*
X105258Y-227730D01*
X108255Y-227730D01*
X132906Y-235331D02*
X133655Y-234582D01*
X133655Y-233083D01*
X132906Y-232334D01*
X132156Y-232334D01*
X131407Y-233083D01*
X131407Y-233832D01*
X131407Y-233083D02*
X130658Y-232334D01*
X129908Y-232334D01*
X129159Y-233083D01*
X129159Y-234582D01*
X129908Y-235331D01*
X130658Y-230727D02*
X133655Y-230727D01*
X130658Y-230727D02*
X129159Y-229229D01*
X130658Y-227730D01*
X133655Y-227730D01*
X132906Y-226123D02*
X133655Y-225374D01*
X133655Y-223875D01*
X132906Y-223126D01*
X132156Y-223126D01*
X131407Y-223875D01*
X131407Y-224625D01*
X131407Y-223875D02*
X130658Y-223126D01*
X129908Y-223126D01*
X129159Y-223875D01*
X129159Y-225374D01*
X129908Y-226123D01*
X154559Y-235331D02*
X159055Y-235331D01*
X154559Y-235331D02*
X154559Y-233083D01*
X155308Y-232334D01*
X158306Y-232334D01*
X159055Y-233083D01*
X159055Y-235331D01*
X157556Y-230727D02*
X159055Y-229229D01*
X154559Y-229229D01*
X154559Y-230727D02*
X154559Y-227730D01*
X159055Y-226123D02*
X159055Y-223126D01*
X159055Y-226123D02*
X156807Y-226123D01*
X157556Y-224625D01*
X157556Y-223875D01*
X156807Y-223126D01*
X155308Y-223126D01*
X154559Y-223875D01*
X154559Y-225374D01*
X155308Y-226123D01*
X180594Y-235331D02*
X185090Y-235331D01*
X180594Y-235331D02*
X180594Y-233083D01*
X181343Y-232334D01*
X184341Y-232334D01*
X185090Y-233083D01*
X185090Y-235331D01*
X180594Y-230727D02*
X180594Y-227730D01*
X180594Y-230727D02*
X183591Y-227730D01*
X184341Y-227730D01*
X185090Y-228479D01*
X185090Y-229978D01*
X184341Y-230727D01*
X205359Y-235966D02*
X209855Y-235966D01*
X205359Y-235966D02*
X205359Y-233718D01*
X206108Y-232969D01*
X209106Y-232969D01*
X209855Y-233718D01*
X209855Y-235966D01*
X209855Y-229114D02*
X205359Y-229114D01*
X207607Y-231362D02*
X209855Y-229114D01*
X207607Y-228365D02*
X207607Y-231362D01*
X230759Y-234696D02*
X235255Y-234696D01*
X230759Y-234696D02*
X230759Y-232448D01*
X231508Y-231699D01*
X234506Y-231699D01*
X235255Y-232448D01*
X235255Y-234696D01*
X233756Y-230092D02*
X235255Y-228594D01*
X230759Y-228594D01*
X230759Y-230092D02*
X230759Y-227095D01*
X234506Y-223990D02*
X235255Y-222491D01*
X234506Y-223990D02*
X233007Y-225488D01*
X231508Y-225488D01*
X230759Y-224739D01*
X230759Y-223240D01*
X231508Y-222491D01*
X232258Y-222491D01*
X233007Y-223240D01*
X233007Y-225488D01*
X256159Y-235331D02*
X260655Y-235331D01*
X256159Y-235331D02*
X256159Y-233083D01*
X256908Y-232334D01*
X259906Y-232334D01*
X260655Y-233083D01*
X260655Y-235331D01*
X259156Y-230727D02*
X260655Y-229229D01*
X256159Y-229229D01*
X256159Y-230727D02*
X256159Y-227730D01*
X260655Y-226123D02*
X260655Y-223126D01*
X259906Y-223126D01*
X256908Y-226123D01*
X256159Y-226123D01*
X282194Y-235331D02*
X286690Y-235331D01*
X282194Y-235331D02*
X282194Y-233083D01*
X282943Y-232334D01*
X285941Y-232334D01*
X286690Y-233083D01*
X286690Y-235331D01*
X286690Y-230727D02*
X286690Y-227730D01*
X286690Y-230727D02*
X284442Y-230727D01*
X285191Y-229229D01*
X285191Y-228479D01*
X284442Y-227730D01*
X282943Y-227730D01*
X282194Y-228479D01*
X282194Y-229978D01*
X282943Y-230727D01*
X306959Y-235331D02*
X311455Y-235331D01*
X306959Y-235331D02*
X306959Y-233083D01*
X307708Y-232334D01*
X310706Y-232334D01*
X311455Y-233083D01*
X311455Y-235331D01*
X309956Y-230727D02*
X311455Y-229229D01*
X306959Y-229229D01*
X306959Y-230727D02*
X306959Y-227730D01*
X310706Y-226123D02*
X311455Y-225374D01*
X311455Y-223875D01*
X310706Y-223126D01*
X309956Y-223126D01*
X309207Y-223875D01*
X308458Y-223126D01*
X307708Y-223126D01*
X306959Y-223875D01*
X306959Y-225374D01*
X307708Y-226123D01*
X308458Y-226123D01*
X309207Y-225374D01*
X309956Y-226123D01*
X310706Y-226123D01*
X309207Y-225374D02*
X309207Y-223875D01*
X332359Y-234696D02*
X336855Y-234696D01*
X332359Y-234696D02*
X332359Y-232448D01*
X333108Y-231699D01*
X336106Y-231699D01*
X336855Y-232448D01*
X336855Y-234696D01*
X335356Y-230092D02*
X336855Y-228594D01*
X332359Y-228594D01*
X332359Y-230092D02*
X332359Y-227095D01*
X333108Y-225488D02*
X332359Y-224739D01*
X332359Y-223240D01*
X333108Y-222491D01*
X336106Y-222491D01*
X336855Y-223240D01*
X336855Y-224739D01*
X336106Y-225488D01*
X335356Y-225488D01*
X334607Y-224739D01*
X334607Y-222491D01*
X357759Y-234696D02*
X362255Y-234696D01*
X357759Y-234696D02*
X357759Y-232448D01*
X358508Y-231699D01*
X361506Y-231699D01*
X362255Y-232448D01*
X362255Y-234696D01*
X357759Y-230092D02*
X357759Y-227095D01*
X357759Y-230092D02*
X360756Y-227095D01*
X361506Y-227095D01*
X362255Y-227844D01*
X362255Y-229343D01*
X361506Y-230092D01*
X360756Y-225488D02*
X362255Y-223990D01*
X357759Y-223990D01*
X357759Y-225488D02*
X357759Y-222491D01*
X383159Y-234696D02*
X387655Y-234696D01*
X387655Y-232448D01*
X386906Y-231699D01*
X385407Y-231699D01*
X384658Y-232448D01*
X384658Y-234696D01*
X384658Y-233197D02*
X383159Y-231699D01*
X383159Y-227095D02*
X387655Y-230092D01*
X387655Y-227095D02*
X383159Y-230092D01*
X408559Y-233197D02*
X413055Y-233197D01*
X413055Y-231699D02*
X413055Y-234696D01*
X413055Y-230092D02*
X408559Y-227095D01*
X408559Y-230092D02*
X413055Y-227095D01*
X434594Y-235331D02*
X439090Y-235331D01*
X434594Y-235331D02*
X434594Y-233083D01*
X435343Y-232334D01*
X438341Y-232334D01*
X439090Y-233083D01*
X439090Y-235331D01*
X434594Y-230727D02*
X434594Y-227730D01*
X434594Y-230727D02*
X437591Y-227730D01*
X438341Y-227730D01*
X439090Y-228479D01*
X439090Y-229978D01*
X438341Y-230727D01*
X434594Y-226123D02*
X434594Y-223126D01*
X434594Y-226123D02*
X437591Y-223126D01*
X438341Y-223126D01*
X439090Y-223875D01*
X439090Y-225374D01*
X438341Y-226123D01*
X459994Y-235331D02*
X464490Y-235331D01*
X459994Y-235331D02*
X459994Y-233083D01*
X460743Y-232334D01*
X463741Y-232334D01*
X464490Y-233083D01*
X464490Y-235331D01*
X459994Y-230727D02*
X459994Y-227730D01*
X459994Y-230727D02*
X462991Y-227730D01*
X463741Y-227730D01*
X464490Y-228479D01*
X464490Y-229978D01*
X463741Y-230727D01*
X463741Y-226123D02*
X464490Y-225374D01*
X464490Y-223875D01*
X463741Y-223126D01*
X462991Y-223126D01*
X462242Y-223875D01*
X462242Y-224625D01*
X462242Y-223875D02*
X461493Y-223126D01*
X460743Y-223126D01*
X459994Y-223875D01*
X459994Y-225374D01*
X460743Y-226123D01*
D11*
X485013Y-1736D02*
X496707Y-1736D01*
X496707Y4111D01*
X494758Y6060D01*
X490860Y6060D01*
X488911Y4111D01*
X488911Y-1736D01*
X485013Y11907D02*
X485013Y15805D01*
X486962Y17754D01*
X490860Y17754D01*
X492809Y15805D01*
X492809Y11907D01*
X490860Y9958D01*
X486962Y9958D01*
X485013Y11907D01*
X485013Y21652D02*
X485013Y27499D01*
X486962Y29448D01*
X488911Y27499D01*
X488911Y23601D01*
X490860Y21652D01*
X492809Y23601D01*
X492809Y29448D01*
X492809Y33346D02*
X492809Y35295D01*
X485013Y35295D01*
X485013Y33346D02*
X485013Y37244D01*
X496707Y35295D02*
X498656Y35295D01*
X494758Y43091D02*
X486962Y43091D01*
X485013Y45040D01*
X492809Y45040D02*
X492809Y41142D01*
X492809Y48938D02*
X485013Y48938D01*
X488911Y48938D02*
X492809Y52836D01*
X492809Y54785D01*
X485013Y60632D02*
X485013Y64530D01*
X486962Y66479D01*
X490860Y66479D01*
X492809Y64530D01*
X492809Y60632D01*
X490860Y58683D01*
X486962Y58683D01*
X485013Y60632D01*
X485013Y70377D02*
X492809Y70377D01*
X492809Y76224D01*
X490860Y78173D01*
X485013Y78173D01*
X496707Y93765D02*
X496707Y101561D01*
X496707Y93765D02*
X485013Y93765D01*
X485013Y101561D01*
X490860Y97663D02*
X490860Y93765D01*
X496707Y105459D02*
X496707Y107408D01*
X485013Y107408D01*
X485013Y105459D02*
X485013Y109357D01*
X485013Y115204D02*
X485013Y119102D01*
X485013Y115204D02*
X486962Y113255D01*
X490860Y113255D01*
X492809Y115204D01*
X492809Y119102D01*
X490860Y121051D01*
X488911Y121051D01*
X488911Y113255D01*
X492809Y126898D02*
X492809Y132745D01*
X492809Y126898D02*
X490860Y124949D01*
X486962Y124949D01*
X485013Y126898D01*
X485013Y132745D01*
X486962Y138592D02*
X494758Y138592D01*
X486962Y138592D02*
X485013Y140541D01*
X492809Y140541D02*
X492809Y136643D01*
X492809Y144439D02*
X485013Y144439D01*
X488911Y144439D02*
X492809Y148337D01*
X492809Y150286D01*
X485013Y156133D02*
X485013Y160031D01*
X486962Y161980D01*
X490860Y161980D01*
X492809Y160031D01*
X492809Y156133D01*
X490860Y154184D01*
X486962Y154184D01*
X485013Y156133D01*
X485013Y165878D02*
X492809Y165878D01*
X492809Y171725D01*
X490860Y173674D01*
X485013Y173674D01*
X492809Y177572D02*
X492809Y179520D01*
X485013Y179520D01*
X485013Y177572D02*
X485013Y181469D01*
X496707Y179520D02*
X498656Y179520D01*
X492809Y187316D02*
X492809Y193163D01*
X492809Y187316D02*
X490860Y185367D01*
X486962Y185367D01*
X485013Y187316D01*
X485013Y193163D01*
X477657Y38218D02*
X477657Y30423D01*
X465963Y30423D01*
X465963Y38218D01*
X471810Y34320D02*
X471810Y30423D01*
X477657Y47963D02*
X475708Y49912D01*
X477657Y47963D02*
X477657Y44065D01*
X475708Y42116D01*
X473759Y42116D01*
X471810Y44065D01*
X471810Y47963D01*
X469861Y49912D01*
X467912Y49912D01*
X465963Y47963D01*
X465963Y44065D01*
X467912Y42116D01*
X465963Y53810D02*
X477657Y53810D01*
X477657Y59657D01*
X475708Y61606D01*
X471810Y61606D01*
X469861Y59657D01*
X469861Y53810D01*
X471810Y65504D02*
X471810Y73300D01*
X467912Y77198D02*
X477657Y77198D01*
X467912Y77198D02*
X465963Y79147D01*
X465963Y83045D01*
X467912Y84994D01*
X477657Y84994D01*
X477657Y88892D02*
X465963Y88892D01*
X469861Y92790D01*
X465963Y96688D01*
X477657Y96688D01*
X477657Y100586D02*
X465963Y100586D01*
X477657Y100586D02*
X477657Y106433D01*
X475708Y108382D01*
X473759Y108382D01*
X471810Y106433D01*
X469861Y108382D01*
X467912Y108382D01*
X465963Y106433D01*
X465963Y100586D01*
X471810Y100586D02*
X471810Y106433D01*
X469861Y123974D02*
X477657Y123974D01*
X469861Y123974D02*
X465963Y127872D01*
X469861Y131770D01*
X477657Y131770D01*
X473759Y135668D02*
X477657Y139566D01*
X465963Y139566D01*
X465963Y135668D02*
X465963Y143464D01*
X465963Y147362D02*
X467912Y147362D01*
X467912Y149311D01*
X465963Y149311D01*
X465963Y147362D01*
X467912Y153209D02*
X475708Y153209D01*
X477657Y155158D01*
X477657Y159056D01*
X475708Y161005D01*
X467912Y161005D01*
X465963Y159056D01*
X465963Y155158D01*
X467912Y153209D01*
X475708Y161005D01*
D12*
X399161Y37846D03*
D13*
X399034Y38100D03*
D14*
X425831Y38354D03*
D15*
X398399Y38354D03*
D16*
X425704Y38608D03*
D17*
X408305Y38608D03*
D15*
X397891Y38608D03*
D18*
X425450Y38862D03*
D19*
X408305Y38862D03*
D15*
X397637Y38862D03*
D20*
X425450Y39116D03*
D21*
X408432Y39116D03*
D15*
X397129Y39116D03*
D22*
X425196Y39370D03*
D23*
X408305Y39370D03*
D24*
X396748Y39370D03*
D25*
X425323Y39624D03*
D26*
X408432Y39624D03*
D15*
X396367Y39624D03*
D24*
X427482Y39878D03*
D14*
X423545Y39878D03*
D27*
X408432Y39878D03*
D15*
X396113Y39878D03*
D24*
X427482Y40132D03*
D28*
X423291Y40132D03*
D29*
X408432Y40132D03*
D24*
X395732Y40132D03*
X427228Y40386D03*
D15*
X423037Y40386D03*
D30*
X408432Y40386D03*
D24*
X395478Y40386D03*
D15*
X427101Y40640D03*
D24*
X422910Y40640D03*
D31*
X408559Y40640D03*
D15*
X395097Y40640D03*
X427101Y40894D03*
D12*
X423037Y40894D03*
D32*
X408559Y40894D03*
D15*
X394843Y40894D03*
X426847Y41148D03*
D24*
X423164Y41148D03*
D33*
X408432Y41148D03*
D24*
X394462Y41148D03*
D13*
X426720Y41402D03*
D24*
X423164Y41402D03*
D34*
X408559Y41402D03*
D24*
X394208Y41402D03*
D13*
X426466Y41656D03*
D24*
X423418Y41656D03*
D35*
X413893Y41656D03*
D36*
X402844Y41656D03*
D24*
X393954Y41656D03*
D13*
X426212Y41910D03*
D24*
X423418Y41910D03*
D19*
X414909Y41910D03*
D37*
X401828Y41910D03*
D24*
X393700Y41910D03*
D38*
X425069Y42164D03*
D39*
X415671Y42164D03*
D40*
X401193Y42164D03*
D24*
X393446Y42164D03*
D41*
X424942Y42418D03*
D42*
X416306Y42418D03*
X400558Y42418D03*
D24*
X393192Y42418D03*
D16*
X424942Y42672D03*
D25*
X416687Y42672D03*
X400177Y42672D03*
D24*
X392938Y42672D03*
D43*
X424815Y42926D03*
D44*
X417195Y42926D03*
X399669Y42926D03*
D24*
X392938Y42926D03*
D45*
X424688Y43180D03*
D20*
X417576Y43180D03*
X399288Y43180D03*
D24*
X392684Y43180D03*
D46*
X424434Y43434D03*
D20*
X417830Y43434D03*
X399034Y43434D03*
D24*
X392430Y43434D03*
D28*
X424307Y43688D03*
D47*
X418211Y43688D03*
X398653Y43688D03*
D24*
X392176Y43688D03*
D15*
X424307Y43942D03*
D18*
X418592Y43942D03*
D47*
X398399Y43942D03*
D24*
X391922Y43942D03*
D12*
X424307Y44196D03*
D18*
X418846Y44196D03*
D12*
X409829Y44196D03*
D18*
X398018Y44196D03*
D24*
X391922Y44196D03*
D48*
X424180Y44450D03*
D18*
X419100Y44450D03*
D24*
X410718Y44450D03*
D18*
X397764Y44450D03*
D24*
X391668Y44450D03*
D38*
X419481Y44704D03*
D24*
X411734Y44704D03*
D38*
X397383Y44704D03*
D24*
X391414Y44704D03*
D38*
X419735Y44958D03*
D12*
X412369Y44958D03*
D38*
X397129Y44958D03*
D24*
X391414Y44958D03*
D41*
X419862Y45212D03*
D12*
X412877Y45212D03*
D38*
X396875Y45212D03*
D24*
X391160Y45212D03*
D41*
X420116Y45466D03*
D12*
X413385Y45466D03*
D41*
X396748Y45466D03*
D24*
X390906Y45466D03*
D41*
X420370Y45720D03*
D12*
X413893Y45720D03*
D41*
X396494Y45720D03*
D24*
X390906Y45720D03*
D17*
X420497Y45974D03*
D12*
X414147Y45974D03*
D14*
X407035Y45974D03*
D41*
X396240Y45974D03*
D24*
X390652Y45974D03*
D17*
X420751Y46228D03*
D12*
X414655Y46228D03*
D22*
X407162Y46228D03*
D17*
X396113Y46228D03*
D24*
X390652Y46228D03*
D17*
X421005Y46482D03*
D12*
X414909Y46482D03*
D37*
X407162Y46482D03*
D17*
X395859Y46482D03*
D24*
X390398Y46482D03*
D17*
X421005Y46736D03*
D12*
X415163Y46736D03*
D49*
X407035Y46736D03*
D17*
X395605Y46736D03*
D24*
X390398Y46736D03*
D17*
X421259Y46990D03*
D12*
X415417Y46990D03*
D50*
X407162Y46990D03*
D16*
X395478Y46990D03*
D24*
X390144Y46990D03*
D17*
X421513Y47244D03*
D12*
X415671Y47244D03*
D51*
X407035Y47244D03*
D17*
X395351Y47244D03*
D24*
X390144Y47244D03*
D16*
X421640Y47498D03*
D12*
X415925Y47498D03*
D52*
X407162Y47498D03*
D16*
X395224Y47498D03*
D24*
X389890Y47498D03*
D17*
X421767Y47752D03*
D12*
X416179Y47752D03*
D26*
X407162Y47752D03*
D16*
X394970Y47752D03*
D24*
X389890Y47752D03*
D16*
X421894Y48006D03*
D24*
X416306Y48006D03*
D53*
X407162Y48006D03*
D17*
X394843Y48006D03*
D12*
X389763Y48006D03*
D16*
X422148Y48260D03*
D24*
X416560Y48260D03*
D54*
X407162Y48260D03*
D16*
X394716Y48260D03*
D24*
X389636Y48260D03*
D16*
X422148Y48514D03*
D24*
X416814Y48514D03*
D27*
X407162Y48514D03*
D16*
X394462Y48514D03*
D12*
X389509Y48514D03*
D16*
X422402Y48768D03*
D15*
X416941Y48768D03*
D55*
X407162Y48768D03*
D16*
X394462Y48768D03*
D24*
X389382Y48768D03*
D43*
X422529Y49022D03*
D24*
X417068Y49022D03*
D29*
X407162Y49022D03*
D43*
X394335Y49022D03*
D24*
X389382Y49022D03*
D43*
X422529Y49276D03*
D24*
X417322Y49276D03*
D56*
X407162Y49276D03*
D16*
X394208Y49276D03*
D12*
X389255Y49276D03*
D43*
X422783Y49530D03*
D15*
X417449Y49530D03*
D30*
X407162Y49530D03*
D43*
X394081Y49530D03*
D24*
X389128Y49530D03*
D43*
X422783Y49784D03*
D24*
X417576Y49784D03*
D57*
X406781Y49784D03*
D43*
X394081Y49784D03*
D24*
X389128Y49784D03*
D16*
X422910Y50038D03*
D15*
X417703Y50038D03*
D44*
X411607Y50038D03*
D58*
X402082Y50038D03*
D43*
X393827Y50038D03*
D12*
X389001Y50038D03*
D43*
X423037Y50292D03*
D24*
X417830Y50292D03*
D38*
X411861Y50292D03*
D42*
X401574Y50292D03*
D43*
X393827Y50292D03*
D12*
X389001Y50292D03*
D43*
X423037Y50546D03*
D15*
X417957Y50546D03*
D16*
X411988Y50546D03*
D22*
X401320Y50546D03*
D43*
X393827Y50546D03*
D24*
X388874Y50546D03*
D43*
X423291Y50800D03*
D15*
X417957Y50800D03*
D14*
X412115Y50800D03*
D44*
X400939Y50800D03*
D43*
X393573Y50800D03*
D24*
X388874Y50800D03*
D43*
X423291Y51054D03*
D15*
X418211Y51054D03*
D28*
X412115Y51054D03*
D44*
X400685Y51054D03*
D43*
X393573Y51054D03*
D12*
X388747Y51054D03*
D43*
X423291Y51308D03*
D15*
X418211Y51308D03*
X412115Y51308D03*
D20*
X400558Y51308D03*
D43*
X393573Y51308D03*
D12*
X388747Y51308D03*
D45*
X423418Y51562D03*
D13*
X418338Y51562D03*
D59*
X411988Y51562D03*
D47*
X400177Y51562D03*
D45*
X393446Y51562D03*
D24*
X388620Y51562D03*
D43*
X423545Y51816D03*
D15*
X418465Y51816D03*
D48*
X411988Y51816D03*
D18*
X400050Y51816D03*
D43*
X393319Y51816D03*
D24*
X388620Y51816D03*
D43*
X423545Y52070D03*
D15*
X418465Y52070D03*
D18*
X399796Y52070D03*
D43*
X393319Y52070D03*
D24*
X388620Y52070D03*
D43*
X423545Y52324D03*
D13*
X418592Y52324D03*
D18*
X399796Y52324D03*
D43*
X393319Y52324D03*
D12*
X388493Y52324D03*
D45*
X423672Y52578D03*
D13*
X418592Y52578D03*
D18*
X399542Y52578D03*
D45*
X393192Y52578D03*
D12*
X388493Y52578D03*
D45*
X423672Y52832D03*
D13*
X418592Y52832D03*
D38*
X399415Y52832D03*
D45*
X393192Y52832D03*
D12*
X388493Y52832D03*
D45*
X423672Y53086D03*
D15*
X418719Y53086D03*
D38*
X399415Y53086D03*
D43*
X393065Y53086D03*
D24*
X388366Y53086D03*
D43*
X423799Y53340D03*
D13*
X418846Y53340D03*
D38*
X399161Y53340D03*
D43*
X393065Y53340D03*
D24*
X388366Y53340D03*
D43*
X423799Y53594D03*
D13*
X418846Y53594D03*
D41*
X399034Y53594D03*
D43*
X393065Y53594D03*
D24*
X388366Y53594D03*
D43*
X423799Y53848D03*
D13*
X418846Y53848D03*
D41*
X399034Y53848D03*
D43*
X393065Y53848D03*
D24*
X388366Y53848D03*
D45*
X423926Y54102D03*
D13*
X418846Y54102D03*
D38*
X398907Y54102D03*
D45*
X392938Y54102D03*
D24*
X388366Y54102D03*
D45*
X423926Y54356D03*
D13*
X418846Y54356D03*
D41*
X398780Y54356D03*
D45*
X392938Y54356D03*
D24*
X388366Y54356D03*
D45*
X423926Y54610D03*
D13*
X418846Y54610D03*
D41*
X398780Y54610D03*
D45*
X392938Y54610D03*
D12*
X388239Y54610D03*
D45*
X423926Y54864D03*
D13*
X418846Y54864D03*
D41*
X398780Y54864D03*
D45*
X392938Y54864D03*
D12*
X388239Y54864D03*
D45*
X423926Y55118D03*
D13*
X418846Y55118D03*
D41*
X398780Y55118D03*
D45*
X392938Y55118D03*
D12*
X388239Y55118D03*
D45*
X423926Y55372D03*
D13*
X418846Y55372D03*
D17*
X398653Y55372D03*
D45*
X392938Y55372D03*
D12*
X388239Y55372D03*
D45*
X423926Y55626D03*
D13*
X418846Y55626D03*
D17*
X398653Y55626D03*
D45*
X392938Y55626D03*
D12*
X388239Y55626D03*
D45*
X423926Y55880D03*
D13*
X418846Y55880D03*
D17*
X398653Y55880D03*
D45*
X392938Y55880D03*
D12*
X388239Y55880D03*
D45*
X423926Y56134D03*
D28*
X418719Y56134D03*
D17*
X398653Y56134D03*
D45*
X392938Y56134D03*
D12*
X388239Y56134D03*
D45*
X423926Y56388D03*
D28*
X418719Y56388D03*
D17*
X398653Y56388D03*
D45*
X392938Y56388D03*
D12*
X388239Y56388D03*
D45*
X423926Y56642D03*
D28*
X418719Y56642D03*
D17*
X398653Y56642D03*
D45*
X392938Y56642D03*
D24*
X388366Y56642D03*
D43*
X423799Y56896D03*
D28*
X418719Y56896D03*
D17*
X398653Y56896D03*
D45*
X392938Y56896D03*
D24*
X388366Y56896D03*
D43*
X423799Y57150D03*
D28*
X418719Y57150D03*
D17*
X398653Y57150D03*
D45*
X392938Y57150D03*
D24*
X388366Y57150D03*
D45*
X423672Y57404D03*
D28*
X418719Y57404D03*
D41*
X398780Y57404D03*
D43*
X393065Y57404D03*
D24*
X388366Y57404D03*
D45*
X423672Y57658D03*
D28*
X418465Y57658D03*
D41*
X398780Y57658D03*
D43*
X393065Y57658D03*
D24*
X388366Y57658D03*
D45*
X423672Y57912D03*
D28*
X418465Y57912D03*
D41*
X398780Y57912D03*
D43*
X393065Y57912D03*
D12*
X388493Y57912D03*
D45*
X423672Y58166D03*
D28*
X418465Y58166D03*
D41*
X398780Y58166D03*
D43*
X393065Y58166D03*
D12*
X388493Y58166D03*
D45*
X423672Y58420D03*
D46*
X418338Y58420D03*
D41*
X398780Y58420D03*
D45*
X393192Y58420D03*
D12*
X388493Y58420D03*
D43*
X423545Y58674D03*
D46*
X418338Y58674D03*
D38*
X398907Y58674D03*
D45*
X393192Y58674D03*
D12*
X388493Y58674D03*
D43*
X423545Y58928D03*
D28*
X418211Y58928D03*
D41*
X399034Y58928D03*
D43*
X393319Y58928D03*
D24*
X388620Y58928D03*
D45*
X423418Y59182D03*
D46*
X418084Y59182D03*
D38*
X399161Y59182D03*
D43*
X393319Y59182D03*
D24*
X388620Y59182D03*
D45*
X423418Y59436D03*
D46*
X418084Y59436D03*
D38*
X399161Y59436D03*
D43*
X393319Y59436D03*
D12*
X388747Y59436D03*
D43*
X423291Y59690D03*
D46*
X417830Y59690D03*
D38*
X399415Y59690D03*
D45*
X393446Y59690D03*
D12*
X388747Y59690D03*
D43*
X423291Y59944D03*
D46*
X417830Y59944D03*
D38*
X399415Y59944D03*
D43*
X393573Y59944D03*
D12*
X388747Y59944D03*
D45*
X423164Y60198D03*
D46*
X417576Y60198D03*
D18*
X399542Y60198D03*
D43*
X393573Y60198D03*
D24*
X388874Y60198D03*
D43*
X423037Y60452D03*
D46*
X417576Y60452D03*
D18*
X399796Y60452D03*
D16*
X393700Y60452D03*
D12*
X389001Y60452D03*
D43*
X423037Y60706D03*
D46*
X417322Y60706D03*
D47*
X399923Y60706D03*
D43*
X393827Y60706D03*
D12*
X389001Y60706D03*
D45*
X422910Y60960D03*
D46*
X417322Y60960D03*
D18*
X400050Y60960D03*
D43*
X393827Y60960D03*
D12*
X389001Y60960D03*
D43*
X422783Y61214D03*
D46*
X417068Y61214D03*
D47*
X400177Y61214D03*
D16*
X393954Y61214D03*
D24*
X389128Y61214D03*
D43*
X422783Y61468D03*
D14*
X416941Y61468D03*
D47*
X400431Y61468D03*
D43*
X394081Y61468D03*
D12*
X389255Y61468D03*
D43*
X422529Y61722D03*
D14*
X416687Y61722D03*
D20*
X400558Y61722D03*
D16*
X394208Y61722D03*
D12*
X389255Y61722D03*
D43*
X422529Y61976D03*
D14*
X416687Y61976D03*
D20*
X400812Y61976D03*
D43*
X394335Y61976D03*
D24*
X389382Y61976D03*
D16*
X422402Y62230D03*
D14*
X416433Y62230D03*
D20*
X401066Y62230D03*
D16*
X394462Y62230D03*
D12*
X389509Y62230D03*
D43*
X422275Y62484D03*
D14*
X416179Y62484D03*
D44*
X401193Y62484D03*
D43*
X394589Y62484D03*
D12*
X389509Y62484D03*
D16*
X422148Y62738D03*
D14*
X415925Y62738D03*
D44*
X401447Y62738D03*
D16*
X394716Y62738D03*
D12*
X389763Y62738D03*
D16*
X421894Y62992D03*
D14*
X415671Y62992D03*
D44*
X401701Y62992D03*
D16*
X394970Y62992D03*
D12*
X389763Y62992D03*
D16*
X421894Y63246D03*
D43*
X415417Y63246D03*
D44*
X401955Y63246D03*
D16*
X394970Y63246D03*
D24*
X389890Y63246D03*
D16*
X421640Y63500D03*
D43*
X415163Y63500D03*
D20*
X402082Y63500D03*
D16*
X395224Y63500D03*
D12*
X390017Y63500D03*
D17*
X421513Y63754D03*
D43*
X414909Y63754D03*
D20*
X402336Y63754D03*
D17*
X395351Y63754D03*
D24*
X390144Y63754D03*
D16*
X421386Y64008D03*
D45*
X414528Y64008D03*
D44*
X402463Y64008D03*
D17*
X395605Y64008D03*
D12*
X390271Y64008D03*
D17*
X421259Y64262D03*
D43*
X414147Y64262D03*
D44*
X402717Y64262D03*
D17*
X395605Y64262D03*
D24*
X390398Y64262D03*
D17*
X421005Y64516D03*
D43*
X413893Y64516D03*
D44*
X402971Y64516D03*
D17*
X395859Y64516D03*
D12*
X390525Y64516D03*
D17*
X420751Y64770D03*
D16*
X413512Y64770D03*
D44*
X403225Y64770D03*
D17*
X396113Y64770D03*
D24*
X390652Y64770D03*
D41*
X420624Y65024D03*
D16*
X413004Y65024D03*
D44*
X403479Y65024D03*
D41*
X396240Y65024D03*
D12*
X390779Y65024D03*
D41*
X420370Y65278D03*
D17*
X412623Y65278D03*
D44*
X403733Y65278D03*
D17*
X396367Y65278D03*
D12*
X391033Y65278D03*
D41*
X420116Y65532D03*
X411988Y65532D03*
D44*
X403987Y65532D03*
D17*
X396621Y65532D03*
D12*
X391033Y65532D03*
D41*
X419862Y65786D03*
D47*
X411353Y65786D03*
D44*
X404241Y65786D03*
D17*
X396875Y65786D03*
D12*
X391287Y65786D03*
D38*
X419735Y66040D03*
D25*
X410337Y66040D03*
D44*
X404495Y66040D03*
D41*
X397002Y66040D03*
D24*
X391414Y66040D03*
D38*
X419481Y66294D03*
D51*
X407289Y66294D03*
D17*
X397129Y66294D03*
D12*
X391541Y66294D03*
D18*
X419100Y66548D03*
D50*
X407162Y66548D03*
D17*
X397383Y66548D03*
D12*
X391795Y66548D03*
D18*
X418846Y66802D03*
D49*
X406781Y66802D03*
D17*
X397637Y66802D03*
D12*
X392049Y66802D03*
D18*
X418592Y67056D03*
D59*
X408686Y67056D03*
D44*
X405257Y67056D03*
D17*
X397891Y67056D03*
D12*
X392049Y67056D03*
D47*
X418211Y67310D03*
D44*
X405511Y67310D03*
D16*
X398018Y67310D03*
D12*
X392303Y67310D03*
D20*
X417830Y67564D03*
D44*
X405765Y67564D03*
D16*
X398272Y67564D03*
D12*
X392557Y67564D03*
D20*
X417576Y67818D03*
D44*
X406019Y67818D03*
D17*
X398399Y67818D03*
D12*
X392811Y67818D03*
D44*
X417195Y68072D03*
X406273Y68072D03*
D17*
X398653Y68072D03*
D12*
X392811Y68072D03*
D22*
X416814Y68326D03*
D44*
X406527Y68326D03*
D16*
X398780Y68326D03*
D12*
X393065Y68326D03*
D42*
X416306Y68580D03*
D20*
X406654Y68580D03*
D16*
X399034Y68580D03*
D12*
X393319Y68580D03*
D58*
X415798Y68834D03*
D20*
X406908Y68834D03*
D16*
X399288Y68834D03*
D12*
X393573Y68834D03*
D39*
X415163Y69088D03*
D20*
X407162Y69088D03*
D16*
X399542Y69088D03*
D12*
X393827Y69088D03*
D60*
X414274Y69342D03*
D20*
X407416Y69342D03*
D17*
X399669Y69342D03*
D12*
X394081Y69342D03*
D61*
X411607Y69596D03*
D16*
X399796Y69596D03*
D12*
X394335Y69596D03*
D62*
X411353Y69850D03*
D16*
X400050Y69850D03*
D12*
X394589Y69850D03*
D63*
X411353Y70104D03*
D16*
X400304Y70104D03*
D12*
X394843Y70104D03*
D52*
X411226Y70358D03*
D43*
X400431Y70358D03*
D12*
X395097Y70358D03*
D64*
X387731Y70358D03*
D65*
X410972Y70612D03*
D43*
X400685Y70612D03*
D12*
X395605Y70612D03*
D64*
X391795Y70612D03*
D12*
X387731Y70612D03*
D66*
X410845Y70866D03*
D45*
X400812Y70866D03*
D12*
X391795Y70866D03*
D24*
X387604Y70866D03*
D21*
X410718Y71120D03*
D43*
X400939Y71120D03*
D24*
X391668Y71120D03*
D15*
X387731Y71120D03*
D49*
X410591Y71374D03*
D43*
X401193Y71374D03*
D24*
X391668Y71374D03*
D15*
X387731Y71374D03*
D19*
X410337Y71628D03*
D45*
X401320Y71628D03*
D24*
X391668Y71628D03*
D15*
X387477Y71628D03*
D40*
X410083Y71882D03*
D45*
X401574Y71882D03*
D15*
X391541Y71882D03*
X387477Y71882D03*
D22*
X409702Y72136D03*
D45*
X401828Y72136D03*
D14*
X392049Y72136D03*
D15*
X387477Y72136D03*
D38*
X409321Y72390D03*
D45*
X402082Y72390D03*
D18*
X391414Y72390D03*
D13*
X387350Y72390D03*
D38*
X409321Y72644D03*
D45*
X402082Y72644D03*
D47*
X391287Y72644D03*
D15*
X387223Y72644D03*
D41*
X409448Y72898D03*
D45*
X402336Y72898D03*
D47*
X391287Y72898D03*
D15*
X387223Y72898D03*
D38*
X409575Y73152D03*
D14*
X402463Y73152D03*
D38*
X391541Y73152D03*
D15*
X387223Y73152D03*
D41*
X409702Y73406D03*
D14*
X402717Y73406D03*
D43*
X391287Y73406D03*
D15*
X386969Y73406D03*
D41*
X409702Y73660D03*
D14*
X402717Y73660D03*
D15*
X391287Y73660D03*
X386969Y73660D03*
D41*
X409702Y73914D03*
D14*
X402971Y73914D03*
D24*
X391160Y73914D03*
D15*
X386969Y73914D03*
D17*
X409829Y74168D03*
D14*
X402971Y74168D03*
D24*
X391160Y74168D03*
X386842Y74168D03*
D41*
X409956Y74422D03*
D46*
X403098Y74422D03*
D12*
X391033Y74422D03*
D24*
X386842Y74422D03*
D41*
X409956Y74676D03*
D14*
X403225Y74676D03*
D12*
X391033Y74676D03*
D24*
X386842Y74676D03*
D41*
X409956Y74930D03*
D14*
X403225Y74930D03*
D64*
X391033Y74930D03*
D24*
X386842Y74930D03*
D41*
X409956Y75184D03*
D14*
X403225Y75184D03*
D48*
X390906Y75184D03*
D15*
X386969Y75184D03*
D17*
X410083Y75438D03*
D14*
X403479Y75438D03*
D15*
X386969Y75438D03*
D17*
X410083Y75692D03*
D14*
X403479Y75692D03*
D24*
X387096Y75692D03*
D17*
X410083Y75946D03*
D14*
X403479Y75946D03*
D24*
X387096Y75946D03*
D17*
X410083Y76200D03*
D14*
X403479Y76200D03*
D24*
X387096Y76200D03*
D17*
X410083Y76454D03*
D14*
X403479Y76454D03*
D12*
X387223Y76454D03*
D17*
X410083Y76708D03*
D14*
X403479Y76708D03*
D59*
X387350Y76708D03*
D17*
X410083Y76962D03*
D45*
X403352Y76962D03*
D67*
X387477Y76962D03*
D17*
X410083Y77216D03*
D45*
X403352Y77216D03*
D17*
X410083Y77470D03*
D45*
X403352Y77470D03*
D17*
X410083Y77724D03*
D45*
X403352Y77724D03*
D17*
X410083Y77978D03*
D45*
X403352Y77978D03*
D41*
X409956Y78232D03*
D45*
X403098Y78232D03*
D41*
X409956Y78486D03*
D45*
X403098Y78486D03*
D41*
X409956Y78740D03*
D45*
X403098Y78740D03*
D41*
X409956Y78994D03*
D45*
X402844Y78994D03*
D41*
X409702Y79248D03*
D43*
X402717Y79248D03*
D41*
X409702Y79502D03*
D45*
X402590Y79502D03*
D41*
X409702Y79756D03*
D45*
X402336Y79756D03*
D38*
X409575Y80010D03*
D45*
X402082Y80010D03*
D41*
X409448Y80264D03*
D45*
X401828Y80264D03*
D38*
X409321Y80518D03*
D43*
X401447Y80518D03*
D38*
X409321Y80772D03*
D43*
X401193Y80772D03*
D38*
X409067Y81026D03*
D43*
X400685Y81026D03*
D38*
X409067Y81280D03*
D17*
X399923Y81280D03*
D18*
X408940Y81534D03*
D45*
X399542Y81534D03*
D15*
X395859Y81534D03*
D18*
X408686Y81788D03*
D15*
X395859Y81788D03*
D47*
X408559Y82042D03*
D15*
X395859Y82042D03*
D47*
X408305Y82296D03*
D15*
X395859Y82296D03*
D20*
X408178Y82550D03*
D15*
X395859Y82550D03*
D20*
X407924Y82804D03*
D15*
X395859Y82804D03*
D20*
X407670Y83058D03*
D15*
X395859Y83058D03*
D44*
X407543Y83312D03*
D15*
X395859Y83312D03*
D22*
X407162Y83566D03*
D15*
X395859Y83566D03*
D22*
X406908Y83820D03*
D15*
X395859Y83820D03*
D42*
X406654Y84074D03*
D15*
X395859Y84074D03*
D58*
X406146Y84328D03*
D15*
X395859Y84328D03*
D37*
X405638Y84582D03*
D15*
X395859Y84582D03*
D68*
X405003Y84836D03*
D15*
X395859Y84836D03*
D21*
X404114Y85090D03*
D15*
X395859Y85090D03*
D35*
X403987Y85344D03*
D15*
X395859Y85344D03*
D36*
X403860Y85598D03*
D15*
X395859Y85598D03*
D49*
X403733Y85852D03*
D15*
X395859Y85852D03*
D60*
X403606Y86106D03*
D15*
X395859Y86106D03*
D69*
X403352Y86360D03*
D15*
X395859Y86360D03*
D19*
X403225Y86614D03*
D15*
X395859Y86614D03*
D39*
X402971Y86868D03*
D15*
X395859Y86868D03*
D58*
X402844Y87122D03*
D15*
X395859Y87122D03*
D42*
X402590Y87376D03*
D15*
X395859Y87376D03*
D22*
X402336Y87630D03*
D15*
X395859Y87630D03*
D20*
X402082Y87884D03*
D15*
X395859Y87884D03*
D38*
X401701Y88138D03*
D15*
X395859Y88138D03*
D16*
X401320Y88392D03*
D15*
X395859Y88392D03*
D46*
X400812Y88646D03*
D15*
X395859Y88646D03*
D70*
X362583Y-63490D02*
X364490Y-65397D01*
X362583Y-63490D02*
X358770Y-63490D01*
X356864Y-65397D01*
X356864Y-67304D01*
X358770Y-69210D01*
X360677Y-69210D01*
X358770Y-69210D02*
X356864Y-71117D01*
X356864Y-73023D01*
X358770Y-74930D01*
X362583Y-74930D01*
X364490Y-73023D01*
X352796Y-71117D02*
X352796Y-63490D01*
X352796Y-71117D02*
X348983Y-74930D01*
X345170Y-71117D01*
X345170Y-63490D01*
X341102Y-65397D02*
X339195Y-63490D01*
X335382Y-63490D01*
X333476Y-65397D01*
X333476Y-67304D01*
X335382Y-69210D01*
X337289Y-69210D01*
X335382Y-69210D02*
X333476Y-71117D01*
X333476Y-73023D01*
X335382Y-74930D01*
X339195Y-74930D01*
X341102Y-73023D01*
X379724Y-83177D02*
X381630Y-81270D01*
X385443Y-81270D01*
X387350Y-83177D01*
X387350Y-85084D01*
X385443Y-86990D01*
X381630Y-86990D01*
X379724Y-88897D01*
X379724Y-90803D01*
X381630Y-92710D01*
X385443Y-92710D01*
X387350Y-90803D01*
X375656Y-92710D02*
X375656Y-81270D01*
X371843Y-88897D02*
X375656Y-92710D01*
X371843Y-88897D02*
X368030Y-92710D01*
X368030Y-81270D01*
X363962Y-81270D02*
X363962Y-92710D01*
X358242Y-92710D01*
X356336Y-90803D01*
X356336Y-83177D01*
X358242Y-81270D01*
X363962Y-81270D01*
X352268Y-92710D02*
X348455Y-92710D01*
X350361Y-92710D02*
X350361Y-81270D01*
X348455Y-81270D02*
X352268Y-81270D01*
X342566Y-81270D02*
X338752Y-81270D01*
X342566Y-81270D02*
X344472Y-83177D01*
X344472Y-90803D01*
X342566Y-92710D01*
X338752Y-92710D01*
X336846Y-90803D01*
X336846Y-83177D01*
X338752Y-81270D01*
X382313Y-100322D02*
X384220Y-98415D01*
X388033Y-98415D01*
X389940Y-100322D01*
X389940Y-102229D01*
X388033Y-104135D01*
X384220Y-104135D01*
X382313Y-106042D01*
X382313Y-107948D01*
X384220Y-109855D01*
X388033Y-109855D01*
X389940Y-107948D01*
X378246Y-109855D02*
X378246Y-98415D01*
X374433Y-106042D02*
X378246Y-109855D01*
X374433Y-106042D02*
X370620Y-109855D01*
X370620Y-98415D01*
X360832Y-98415D02*
X358926Y-100322D01*
X360832Y-98415D02*
X364645Y-98415D01*
X366552Y-100322D01*
X366552Y-107948D01*
X364645Y-109855D01*
X360832Y-109855D01*
X358926Y-107948D01*
X354858Y-109855D02*
X354858Y-98415D01*
X354858Y-109855D02*
X347232Y-109855D01*
X343164Y-109855D02*
X343164Y-98415D01*
X335538Y-98415D02*
X343164Y-106042D01*
X341257Y-104135D02*
X335538Y-109855D01*
X360039Y-118102D02*
X361945Y-116195D01*
X365758Y-116195D01*
X367665Y-118102D01*
X367665Y-125728D01*
X365758Y-127635D01*
X361945Y-127635D01*
X360039Y-125728D01*
X360039Y-121915D01*
X363852Y-121915D01*
X355971Y-127635D02*
X355971Y-116195D01*
X348345Y-127635D01*
X348345Y-116195D01*
X344277Y-116195D02*
X344277Y-127635D01*
X338557Y-127635D01*
X336651Y-125728D01*
X336651Y-118102D01*
X338557Y-116195D01*
X344277Y-116195D01*
D71*
X446405Y-154940D02*
X446405Y-170180D01*
X421005Y-170180D01*
X421005Y-154940D01*
X446405Y-154940D01*
D11*
X479663Y-157767D02*
X481612Y-155818D01*
X485510Y-155818D01*
X487459Y-157767D01*
X487459Y-159716D01*
X485510Y-161665D01*
X481612Y-161665D01*
X479663Y-163614D01*
X479663Y-165563D01*
X481612Y-167512D01*
X485510Y-167512D01*
X487459Y-165563D01*
X469918Y-155818D02*
X467969Y-157767D01*
X469918Y-155818D02*
X473816Y-155818D01*
X475765Y-157767D01*
X475765Y-165563D01*
X473816Y-167512D01*
X469918Y-167512D01*
X467969Y-165563D01*
X464071Y-167512D02*
X464071Y-155818D01*
X464071Y-167512D02*
X456275Y-167512D01*
D71*
X421005Y-153035D02*
X421005Y-137795D01*
X446405Y-137795D01*
X446405Y-153035D01*
X421005Y-153035D01*
D11*
X479881Y-139862D02*
X481830Y-137913D01*
X485728Y-137913D01*
X487677Y-139862D01*
X487677Y-141811D01*
X485728Y-143760D01*
X481830Y-143760D01*
X479881Y-145709D01*
X479881Y-147658D01*
X481830Y-149607D01*
X485728Y-149607D01*
X487677Y-147658D01*
X475983Y-149607D02*
X475983Y-137913D01*
X475983Y-149607D02*
X470136Y-149607D01*
X468187Y-147658D01*
X468187Y-139862D01*
X470136Y-137913D01*
X475983Y-137913D01*
X464289Y-141811D02*
X464289Y-149607D01*
X464289Y-141811D02*
X460391Y-137913D01*
X456493Y-141811D01*
X456493Y-149607D01*
X456493Y-143760D02*
X464289Y-143760D01*
D71*
X421005Y-135890D02*
X421005Y-120650D01*
X446405Y-120650D01*
X446405Y-135890D01*
X421005Y-135890D01*
D11*
X476159Y-131827D02*
X480057Y-131827D01*
X478108Y-131827D02*
X478108Y-120133D01*
X480057Y-120133D02*
X476159Y-120133D01*
X472261Y-120133D02*
X472261Y-131827D01*
X464465Y-131827D02*
X472261Y-120133D01*
X464465Y-120133D02*
X464465Y-131827D01*
X456669Y-131827D02*
X456669Y-120133D01*
X460567Y-120133D02*
X452771Y-120133D01*
D71*
X421005Y-118745D02*
X421005Y-103505D01*
X446405Y-103505D01*
X446405Y-118745D01*
X421005Y-118745D01*
D11*
X481962Y-115317D02*
X481962Y-103623D01*
X476115Y-103623D01*
X474166Y-105572D01*
X474166Y-109470D01*
X476115Y-111419D01*
X481962Y-111419D01*
X470268Y-115317D02*
X470268Y-107521D01*
X466370Y-103623D01*
X462472Y-107521D01*
X462472Y-115317D01*
X462472Y-109470D02*
X470268Y-109470D01*
X452727Y-115317D02*
X452727Y-103623D01*
X458574Y-109470D01*
X450778Y-109470D01*
D71*
X421005Y-101600D02*
X421005Y-86360D01*
X446405Y-86360D01*
X446405Y-101600D01*
X421005Y-101600D01*
D11*
X481962Y-98172D02*
X481962Y-86478D01*
X476115Y-86478D01*
X474166Y-88427D01*
X474166Y-92325D01*
X476115Y-94274D01*
X481962Y-94274D01*
X470268Y-98172D02*
X470268Y-90376D01*
X466370Y-86478D01*
X462472Y-90376D01*
X462472Y-98172D01*
X462472Y-92325D02*
X470268Y-92325D01*
X458574Y-90376D02*
X454676Y-86478D01*
X454676Y-98172D01*
X458574Y-98172D02*
X450778Y-98172D01*
D71*
X446405Y-84455D02*
X446405Y-69215D01*
X446405Y-84455D02*
X421005Y-84455D01*
X421005Y-69215D01*
X446405Y-69215D01*
D11*
X484919Y-70728D02*
X484919Y-82422D01*
X484919Y-70728D02*
X479072Y-70728D01*
X477123Y-72677D01*
X477123Y-76575D01*
X479072Y-78524D01*
X484919Y-78524D01*
X473225Y-82422D02*
X473225Y-74626D01*
X469327Y-70728D01*
X465429Y-74626D01*
X465429Y-82422D01*
X465429Y-76575D02*
X473225Y-76575D01*
X461531Y-80473D02*
X461531Y-72677D01*
X459582Y-70728D01*
X455684Y-70728D01*
X453735Y-72677D01*
X453735Y-80473D01*
X455684Y-82422D01*
X459582Y-82422D01*
X461531Y-80473D01*
X453735Y-72677D01*
D71*
X421005Y-67310D02*
X421005Y-52070D01*
X446405Y-52070D01*
X446405Y-67310D01*
X421005Y-67310D01*
D11*
X482597Y-64517D02*
X482597Y-52823D01*
X476750Y-52823D01*
X474801Y-54772D01*
X474801Y-58670D01*
X476750Y-60619D01*
X482597Y-60619D01*
X478699Y-60619D02*
X474801Y-64517D01*
X463107Y-54772D02*
X465056Y-52823D01*
X468954Y-52823D01*
X470903Y-54772D01*
X470903Y-56721D01*
X468954Y-58670D01*
X465056Y-58670D01*
X463107Y-60619D01*
X463107Y-62568D01*
X465056Y-64517D01*
X468954Y-64517D01*
X470903Y-62568D01*
X455311Y-64517D02*
X455311Y-52823D01*
X459209Y-52823D02*
X451413Y-52823D01*
D71*
X196215Y-142240D02*
X196215Y-157480D01*
X196215Y-142240D02*
X221615Y-142240D01*
X221615Y-157480D01*
X196215Y-157480D01*
D11*
X191132Y-155957D02*
X191132Y-144263D01*
X185285Y-144263D01*
X183336Y-146212D01*
X183336Y-148161D01*
X185285Y-150110D01*
X183336Y-152059D01*
X183336Y-154008D01*
X185285Y-155957D01*
X191132Y-155957D01*
X191132Y-150110D02*
X185285Y-150110D01*
X177489Y-144263D02*
X173591Y-144263D01*
X177489Y-144263D02*
X179438Y-146212D01*
X179438Y-154008D01*
X177489Y-155957D01*
X173591Y-155957D01*
X171642Y-154008D01*
X171642Y-146212D01*
X173591Y-144263D01*
X165795Y-144263D02*
X161897Y-144263D01*
X165795Y-144263D02*
X167744Y-146212D01*
X167744Y-154008D01*
X165795Y-155957D01*
X161897Y-155957D01*
X159948Y-154008D01*
X159948Y-146212D01*
X161897Y-144263D01*
X152152Y-144263D02*
X152152Y-155957D01*
X156050Y-144263D02*
X148254Y-144263D01*
X144356Y-146212D02*
X144356Y-154008D01*
X144356Y-146212D02*
X142407Y-144263D01*
X138509Y-144263D01*
X136560Y-146212D01*
X136560Y-154008D01*
X138509Y-155957D01*
X142407Y-155957D01*
X144356Y-154008D01*
X136560Y-146212D01*
D71*
X196215Y-140335D02*
X196215Y-125095D01*
X221615Y-125095D01*
X221615Y-140335D01*
X196215Y-140335D01*
D11*
X191132Y-137542D02*
X191132Y-125848D01*
X185285Y-125848D01*
X183336Y-127797D01*
X183336Y-131695D01*
X185285Y-133644D01*
X191132Y-133644D01*
X179438Y-137542D02*
X179438Y-125848D01*
X173591Y-125848D01*
X171642Y-127797D01*
X171642Y-129746D01*
X173591Y-131695D01*
X171642Y-133644D01*
X171642Y-135593D01*
X173591Y-137542D01*
X179438Y-137542D01*
X179438Y-131695D02*
X173591Y-131695D01*
X167744Y-125848D02*
X159948Y-125848D01*
X167744Y-125848D02*
X167744Y-131695D01*
X163846Y-129746D01*
X161897Y-129746D01*
X159948Y-131695D01*
X159948Y-135593D01*
X161897Y-137542D01*
X165795Y-137542D01*
X167744Y-135593D01*
D71*
X196215Y-123190D02*
X196215Y-107950D01*
X221615Y-107950D01*
X221615Y-123190D01*
X196215Y-123190D01*
D11*
X191132Y-121667D02*
X191132Y-109973D01*
X185285Y-109973D01*
X183336Y-111922D01*
X183336Y-115820D01*
X185285Y-117769D01*
X191132Y-117769D01*
X179438Y-121667D02*
X179438Y-109973D01*
X173591Y-109973D01*
X171642Y-111922D01*
X171642Y-113871D01*
X173591Y-115820D01*
X171642Y-117769D01*
X171642Y-119718D01*
X173591Y-121667D01*
X179438Y-121667D01*
X179438Y-115820D02*
X173591Y-115820D01*
X161897Y-121667D02*
X161897Y-109973D01*
X167744Y-115820D01*
X159948Y-115820D01*
D71*
X196215Y-106045D02*
X196215Y-90805D01*
X221615Y-90805D01*
X221615Y-106045D01*
X196215Y-106045D01*
D11*
X191132Y-103887D02*
X191132Y-92193D01*
X185285Y-92193D01*
X183336Y-94142D01*
X183336Y-98040D01*
X185285Y-99989D01*
X191132Y-99989D01*
X179438Y-103887D02*
X179438Y-92193D01*
X173591Y-92193D01*
X171642Y-94142D01*
X171642Y-96091D01*
X173591Y-98040D01*
X171642Y-99989D01*
X171642Y-101938D01*
X173591Y-103887D01*
X179438Y-103887D01*
X179438Y-98040D02*
X173591Y-98040D01*
X167744Y-94142D02*
X165795Y-92193D01*
X161897Y-92193D01*
X159948Y-94142D01*
X159948Y-96091D01*
X161897Y-98040D01*
X163846Y-98040D01*
X161897Y-98040D02*
X159948Y-99989D01*
X159948Y-101938D01*
X161897Y-103887D01*
X165795Y-103887D01*
X167744Y-101938D01*
D71*
X195580Y-88265D02*
X195580Y-73025D01*
X220980Y-73025D01*
X220980Y-88265D01*
X195580Y-88265D01*
D11*
X190497Y-84837D02*
X190497Y-73143D01*
X184650Y-73143D01*
X182701Y-75092D01*
X182701Y-78990D01*
X184650Y-80939D01*
X190497Y-80939D01*
X178803Y-84837D02*
X178803Y-77041D01*
X174905Y-73143D01*
X171007Y-77041D01*
X171007Y-84837D01*
X171007Y-78990D02*
X178803Y-78990D01*
X167109Y-75092D02*
X165160Y-73143D01*
X161262Y-73143D01*
X159313Y-75092D01*
X159313Y-77041D01*
X161262Y-78990D01*
X159313Y-80939D01*
X159313Y-82888D01*
X161262Y-84837D01*
X165160Y-84837D01*
X167109Y-82888D01*
X167109Y-80939D01*
X165160Y-78990D01*
X167109Y-77041D01*
X167109Y-75092D01*
X165160Y-78990D02*
X161262Y-78990D01*
M02*
