M48
;GenerationSoftware,Autodesk,EAGLE,9.6.2*%
;CreationDate,2024-06-01T13:34:20Z*%
FMAT,2
ICI,OFF
METRIC,TZ,000.000
T7C0.200
T6C0.394
T5C0.600
T4C0.900
T3C1.000
T2C1.016
T1C2.200
%
G90
M71
T1
X51435Y20955
X51435Y-22352
T2
X5271Y3937
X7810Y3937
T3
X4000Y225
X4000Y-6575
X12700Y-18923
X20320Y-18923
X15240Y-18923
X17780Y-18923
T4
X11874Y-22796
X14414Y-22796
X16955Y-22796
X19495Y-22796
X22034Y-22796
X24574Y-22796
X27114Y-22796
X29654Y-22796
X34735Y-22796
X37275Y-22796
X39815Y-22796
X42355Y-22796
X44894Y-22796
X47434Y-22796
X42291Y21654
X47371Y21654
X44831Y21654
X39751Y21654
X37211Y21654
X34671Y21654
X32131Y21654
X29591Y21654
X27051Y21654
X24511Y21654
X21971Y21654
X19431Y21654
X16891Y21654
X14351Y21654
X11811Y21654
X9271Y21654
X32194Y-22796
X9335Y-22796
T5
X8170Y-17470
X7680Y-16034
X7680Y-10255
X4000Y-8820
X8170Y-8820
X4000Y-17470
T6
X37789Y-5144
X18352Y-13017
X19177Y-4886
X18796Y-2057
X25463Y1080
X38418Y-508
X39180Y-5112
X17336Y-12954
X13271Y-6712
X21845Y4890
X23558Y9271
X25781Y2731
X24066Y10732
X19749Y2502
X13252Y-4820
X19812Y1524
X18796Y-1080
X6013Y17653
X12458Y18669
X8022Y17312
X11480Y18542
X15818Y9716
X14847Y15621
X16178Y16315
X18806Y14976
X15818Y4840
X15875Y8661
X30416Y-19939
X30416Y-17018
X30670Y-508
X29083Y-19996
X29400Y-508
X29083Y-16955
X39561Y19749
X38354Y19685
X37021Y16192
X23362Y12738
X13652Y-10985
X18796Y18479
X8763Y-3111
X15430Y-8827
X36322Y-21406
X37979Y-21336
X40831Y-381
X36386Y-572
X34481Y-444
X33211Y-508
X31940Y-508
X28194Y-444
X27432Y3873
X32490Y3661
X29813Y-8700
X29813Y-10414
X24961Y-9779
X24961Y-11049
X24961Y-12319
X23050Y-14008
X23050Y-14986
X43371Y-5969
X43371Y-7683
X43371Y-9398
X43371Y-11112
X43371Y-12827
X43371Y-14541
X43371Y-16256
X9906Y-11620
X6667Y-1841
X12001Y4832
X14541Y19558
X18034Y16192
X25273Y16447
X18796Y4763
X20320Y-4318
X10478Y-5461
X8636Y-4382
X11747Y63
X9652Y2731
X8509Y508
X10414Y5842
X6985Y10922
X3873Y9335
X29781Y8573
X29908Y3238
X31877Y-5144
X26289Y-2984
X34481Y-12065
X32258Y-16256
X21971Y-18987
X23114Y-16447
X16828Y-16637
X15811Y-7937
X30162Y14605
X39688Y14287
X42101Y-444
X25082Y-18796
X22669Y13970
X20320Y16256
X13906Y-13843
X14871Y10890
X8338Y16334
X14408Y7683
X15818Y7683
X23939Y3492
X19749Y5651
X24193Y18942
X41212Y16129
X17742Y7683
X33592Y-6477
X29813Y-6858
X23050Y-13030
X23939Y-18498
X40820Y18152
X18733Y8388
X15303Y1587
X16319Y-324
X39624Y-572
T7
X36778Y12487
X36778Y10652
X36778Y8817
X35860Y11569
X35860Y9735
X34943Y12487
X34943Y10652
X34943Y8817
X34025Y11569
X34025Y9735
X37695Y11569
X37695Y9735
M30